<mxfile host="app.diagrams.net" modified="2023-06-27T14:26:57.281Z" agent="Mozilla/5.0 (X11; Linux aarch64) AppleWebKit/537.36 (KHTML, like Gecko) Chrome/86.0.4240.198 Safari/537.36" etag="ib-Qct6BI-PhCkQIgq5x" version="21.4.0" type="github">
  <diagram name="Page-1" id="IWmA7k9uJuvF3LYyU9Ro">
    <mxGraphModel dx="1369" dy="722" grid="1" gridSize="10" guides="1" tooltips="1" connect="1" arrows="1" fold="1" page="1" pageScale="1" pageWidth="827" pageHeight="1169" math="0" shadow="0">
      <root>
        <mxCell id="0" />
        <mxCell id="1" parent="0" />
        <mxCell id="Esx5o3foS_uKvqINkfH6-1" value="" style="shape=image;verticalLabelPosition=bottom;labelBackgroundColor=default;verticalAlign=top;aspect=fixed;imageAspect=0;image=data:image/png,iVBORw0KGgoAAAANSUhEUgAAAYQAAAFpCAAAAAC5DABTAAAgAElEQVR4AQzB2ZYk2XUg1jPdwczcPSIys1AFNMgGW9QSl171/38h6Y2LTTVIoKpyiHB3M7vDGcS98S+Icc7L5/XvuPy+U7ni/rCrw8sjmE2T3zGVlPsUozmAqLgGik8PREELNAwgNkQEBoVKUEEnIDO5sQTjeESqRb0INisi590hAmB4+sRzeB9RE9T2cK4v/UmEIt2LjNMjfwJlfPTt4jHu7k6EgaGQ0ZTLzR6QiXieeMOPkwWJbEZ4EJsHCQCHeUiCLthK6hPZoVIzRBYK9UwnhUd1c0jpk88E51hEg3rTXPqU6gmHk9HljPI4qBpER2Fa4FCj6bwUpNGiQyb0Goci59o1ACTcZ0k4QIKrnQGihYfPzmVCWHgQ/pOZqb4t9b7orwMJK4wG+PNFve1W3/Yf7XqZuMM6lOnksuoYnLs5EIi4OuEwQYBATtOdRZJTgFVqCIwj4egmy6KTCIxSwvGcFCij2bIRebb9kOKhJ8nl9dg5c/eKETPGmZOv1yHpIcb142koYoqhZYO9w8vrY6eVCPrDb/zsOQWyD0SbwBCOXLOrRkSKARFpnacRc4ZhiLLxMTFb5D4rmU+Dycsn2FWiJQ9XImAGrFnuj1uVevT9RDJHmki8/Cn+3h1iUmVgbxYsarz5OQPKepphuCx2isgurLKlB0TyK34fZlRzmxoUhr94QDghE88xwaiETaDbz98UhhYZan/g9y/+fWt27XtVhvUcpUFIBAiYM3ajIHASd0RnKROYZvIG7KBJYE6UZM6ZzEOSdeIztuOUKsHAF/x+iBkaLosboeAxl5s/p6lLGnQDXh0evujTglJMh7m+dDWu+FSqeYXnY25pDMrAEdMA1YjAgq5rnxE6MAyRYuHD0oKqrsZrBBps6GF0037oNABaS0/1PpMFBQWkRI5OOq4bzTmPjmYO+F8YXraPSYXbIAx2iyCadqWGpAaIYKQuBacLh9DZ6uWgF3yUsZ+CXHHaToUG/kxldjUojgBDExnxkW4SD19dS4qzv4D9dH77Kd1Lb7XEAyS0R1pHBLqITQNFhkjZEOVUWiZmmdhnRAClJK0zsCdJ9DFIAIS0p6XFkobKAsb74UrVKRNFwBjheRuNiFLdbMdpttB8QEF3T5d0D6l0EpR+Hy51WUIHXXjvzkzNFVDQMBFNLDyMrSvNIAC4wKBlOceMCMptJIfLZk2JZb4jGxIsr7Z7B7CaTwcsmU4FyWTCw8CmDYtAEnHzhFBfqH0oSQqY0wmiRCsrziPXrml4kaFeSq7taCCIV/swEkOOCa/jHhSOf+Y8nsMl9WD3YB6Szvxn/tb0ssweKewiXX278Y8Pt3Jr91hojoCN70zwks6pIwgAkwshdpNsVFGxW1hwFvfZBVNC9vakNTUTR7nS01ZXTRc4DgWdnIXcJejyPGXG58egunW/JOqtj1jpMRIGMf/L6//X8NQ5o/SGBvmaPTmv+q4QyaaFQBC7lIQSvUEOJR+WrKeiQCSOQvmTf30oIvAVH778fDzvlnwYlf/+z//3rx5Qq/dhCwI1pMhJjRlAh4UhhDOGBSDlzboGSkrezAGQsWPJtK9rmzC0pDZCYqs8ZiMS92E1l+5zz6/YDgPFPzJ5755iOqEDRby8DC9L/1t6GwojEJc5fCli9yPKkiarmyIpps6C1+mgakGICGCZJi44+QXOqQGOUmPMYQlSthHucknnML58ysfvDpohqo/h4cYIoUBz/XP8Bqxrn1JkDhJ5g4/GVb49XFwk/5zez2bimvAwiaBt4ejB7YwkYqohrkyAmSixDc/Ey9id50hyRmIKI1lf0rcPEDW/hAZ/Svpr8winuP7Lf/6wgLJMi+5BFBTEABHr0nZDkkRHB3cPRGIBS+4oOQxhGsUIxpIM0SbxdImYRpdSbOoIUVTjlHuAoc8SYBN/AsbRAgIhiBwBXv7Mv0+hv/rG1Y8BJD7WZXLB/ahLAIVOBTJnTALFwo2GIxCxRQqPGoN+Th/PCRgsbm4KIrl1x0zCwobBN+gNnpMSM8FoLgZgFiDmL8shkjP9th43OgfcanqvLPNjpwSNcJhUHSmFe3dhxHKj5zMyd4Na/JjBROgYFCZLQeShFdoYwEkPviZtKsSY+kg0Onx26v0aPJ8W/wXj6rDuWotFPGeKKGlKbkBQpTWAfIGxG5sOkHCk5bp+PCOVpCF9wuiccEW1GcjZ92Byz9dLO1tJ3U18mAsimMAMAXP8BAn7DAvgwEvtp91+ej4LlN91Fffwjsnhsozzy8uP36EGMDA2Xaw7rTidwYOtEHTPEI5CMFzWy/0jmIXmdIeAssTDwCNJYK7SB5kViT7KBVbYHxPBgwIB84mvFvMlPz/m+tqtQ3DnFzqEdC6goAqQ5/PCcIYFLwZU9Bx4W3qfWXy0YClmhIDBUuvmravKacymntlBsjRlHKYesL0OOyFxd4VVz+m05peXf8VENnQ6ImMJd6fiwnYELrcxhgLohBzT+frTT//5N0j10k90gzGJ0200HSS80H2wR5Tt1ve+vD3PQwrRoRLuyR0oNPAP4OFoGsg+r//0+A0xWr2w+DwmQKaRZeCaVFk1AJhz7uq6wsPTanvIgGs+XcG8VNdL9q5l+K29E5LEBAcmzLRblr0xB+bFD0uYar3Yb/oqddybxgTC7eW+L3Nw4Ue+6HGudQR5c7tc2pkWnCkIOug17prQQ5ot196IJ4QvSU8jQjsdRAJZIFlQKi/asLVsJDZkaY/g26vfQeYYjflafdaPSEHp4aWebWL5/OnvH9vlPIYHgufk0zTnBExqCoUn9AnijoDunC/btzuthecOFBjmsH06Wzd2e0t3k9nntc5MHXg7n8ClPlsBnN2QiETwZ5wRSQdm1L59/jhRVdaaX+j9Gy0FP+BF9sipRTyUsxfk2/iaEiGoY0IYPf+y/fjxNKRUYuJ1PSydcys/nAAiMAnjENxz6c+Z2BjDgquUG6zj94Mrj8PJeiBuN+9hoUbmtTZIYUJhKtd4grd6IQM5+igFJvSRl2a1mhMRH+bgisw41ZwlkDkEjJ22tqeI7FKOYHp0elmpjdWPkNbrq2r88n2/BcJjrenj4Zx5RqHF+suMdsxKBjbfYmzWxV3AYXZHSWn0YEZEH4xpjXZAUPKIWG6nqmxtrtBRxnP8kn+ljcZ87QaDL/N5GT5HGMLyeuKf1R3BZjBOuo7miAB1fclTjide5x7DksKW28k0EAQHb+x+/QTfzz2laSQYfbqHFPSh6w12cF3e2jM4NMuS+hjX272Nc/AFO2LMoG0V1lWfhwnqAQkMAlKWCJd8WhI4JmYIUkDfrq3LOJYb5jjPMT2LLPsRGZ1Xh8kMfZy+0JTqwwEpu3oEQqClMlpGymYGPLrX8uJ9yjJOyHZgAlrzYbRY1/IGf3Vcl3dbxdz5v33J//p3L7KXYuUYrBqyvZwHm4byJveTiihgYD7sIr1Np0qEfb0+Jtb1KNidxpj6+vr9cXs97xBErgWPnKA7DOeSJv7lwKV3BPWsvjS1wPrKvGknPSl952LMu5cyoFz07Op2/dP662O9vY2/vRMaXtb9PkEyRhGbGpelNwP+tH3bheinVc+P4bU+92m01jEZZndaroIp2fdGJfaJCMgAwjiD6u3E21bf/70Rp9BcZk1HsGIa8jruNkekvPDojZbg4rtWgXgOucxTFpidmMmHB8V/QQpgRhELgHYQlUWCtJZngzSUApGAkAXrYepgsn368cFELSH+j/R7P27nQFxnS/eWiuQlmibuB97y40EME1lAh102b0cA80KWt6eio6xDJ4TGrLmNfBk7JaAYXqXz9KJwXH7594F/OU2mJnHb2vSA4fj5y+/pNk58nutyQL6uz3fbamOYK3fFzm/tFO8vL3ftis4vL+0/RinVTBDmuL767DO2z9/vhm9/TO8fXdUnTisvuTWHAJ2Ylkq59G9nWtOubljYLTAFC106fZa38f/+CCEsyTD3M0ky0p7RaZzMkTBmUOaIevTEEQYUw3NRHyECAYZoBDPMca0QEMTaOzBfWPOUdO4l35GAu9eyv5TEv5/A9Ut9X+vfVv8W5civtH50GEhJEfG7XhMkGdTS5f7Qn97uu09vAYlM4/pKxz08cimArD67fr4+mrsLhsR0TOeZt2TgAz/rj0a5yEf9h++/4V/8bM6JhKZTQ+m9XvSQ3G7r415TsPDlHieWwdQKBnnz4LdL+xqJSjdTotWeRpm9iCLoeklt6swvxz7gtsGjgbkZcs41dnUISkMNa1rLOE5LidOhUvp0p5IQoOJJ2y/f/tokYeJDMbkmLhAYnAJD1YchACQKEmodExjJVKdCiuQQXGB4APNoM9ZrQhgDYoaPoMworNMne6RkNO3L8lFB+NF8K3+J/ye+3C72P89Jb2h6qAak4ly1Ea9mPBS87A95/Qyw96amKKF4vdqHsuMCkC/zoPGgzzyndSiXvM/aOpy+CJkyR+JzOtapclm+4j+PozkJMAHHHOhRr6oGgz+357KM3f2zQ/mI+cXuTMLzZNH1T/N/IuKm3lQMwgCEZhWq0Tnx7B41wxySpe2Oblhy4qkUpuhRSNV4eeNnHzPSQp2YOtqkIr3Tsh0Nl6GeCmg/gJAXiRLApuReynOs81CiBOBs3bHIDEfySKSUcKrkMLeUOB6dPy3mwMeY6qaUEEoC5H3ApLK0SfmKYgLxPmF5rb8/IFW4Ln8/Uz3IRhggr4x5RNBlzNzvhNjmcrkt8tyt7AriwpnbRxDmZZzly+O7kG/LSRSH8YK7/XF+b4DJCUZk5gkSB7ttBVf8iz9nYHBusiTv5nKTab/lt6t/pYr24SKlvP72jOxoaZnNF2vLi7479boEnD4RnDBnB05LdwSQc1Jh4pNI2zQmWK72dFdeSLuapCCd9Vr3PqcLh6Uy5a2/x7L1e2B9OU5HyQa5j6EAf/rT/esEgq5iUNczSnx0KNnDEYeAE0QACyU5PWlncgAIFkxz4FbMGFprITCxFiJtVs6MSoTzXF8br30t/X745bU9BgsMJRCJA8jBAfhW8nGQk1saU0E4ZGUSjOlgnhasMnQch2LBNsuX8wdF+kPseOH9TLiP8sfxMcMdOCVruoCCwDJP5LdX/Ic5PEXH0lNOPCveE0r8Pv/4L//56wLX35skofF6TnXPamQR1z/Hw76PtDQtKfmuYcQrYmmaLsp5jM9wJzCn6T7MLZW1zH03Zry86o8zsth/yYKuGDMQHBcWGaeXL9ffv8/6Ob93p5SEYD4arl+28a3HdBSeUT4v9w/qAzARxixZRh8g4laXkvYup65yThSH8FzcIK1m6Xwf6ZYO3FYb41QeC2Ppw4esThC0luPOV5vmVP05AwEokfVwIlnWuStCtxTNmSEvK4/Osth5Yi6Fq7eZ/D5cwshzuWvIbbT0SUajUKVP8x7Tg5iTPDSyYcYEo+VI+M+7pcvzPZJzVV5q/z6Xhe7n+mYz26fju5a8PAsRfj9SSkfm8cf/6+u/pefv9fLy41w606FstAIkMyxIacx/Tv+5B3tk/ugGnLjOp4dL5XKD565lmbuSALoJtZMEsb7J9z08bq/+7ZQKPQjpkgs8Hkf+hT5O4kTiEE8tv9SvB1jLGLHQnlfrNoIyKdSFh7EqRJiRuFoqrp7W0W/w21xeaKRNRrNB2AEYwIki3AzLuqK77Ccach8gSa1QDHWXCr4U3c0HwTSnRLis5dkDMseQih5sKhfdIxwJO5RDmdh0eUtnK6GmC7l9T8rJncmUjRJqS8zQ8f/cgfk4PHPQtGtuz44r7U6ppE0/lvksq9a/+O7/q89l89L1Jn+zTTrUlw+gDnyoGABydQSIkR3/R/33e77Yni7n07hQ+OiUgJgkFRwPuG6PR3ASNZLzhJSi3uZjD2IU0CGO7ES+5Pr28e0oxZ/gsaaE0BrRLdo0MiZQiSmF1cOA8+ycOABNzRiMcwzHwsM4n1HsGbeXZjmzh+0pnWpO120sbW/TUdZV2WDMbGqGSJd8Yh9B4LyGrRW/61QKNURmSURzAhIwkviwQFnWXRkMwql4cyBwkpSsLelhZZs+7q8PkDAnZ3EVniq5fPl3/JfhUwksy2HhLz/9eFeS3RnCPt3ujzV14n37P/h7+20yZ4gnITQuFDynrHgqJcZjksAaFmydIv3h81/vLKEpaQ9CAlXnmmxaSZeYzb5s7z9m2mwGJj8DV6UYaacKPi3DFKFeFgy88LeZ148DBtTtnLfse6urTR3ANeYUnnpdBvBAlvMAqWHDER2BOAYmQAIE4+x64lKH54yToLtbhOY/5vdcPr5FhOfV+xRhnurI7Nc//fjeLVLeXZZXOebduMjRHZkyuwMCQBiFcbERzHVthuHGkkvfeYE+AjzlSTy4vNjj6bVBBjdXKknBfdAb84H/Y6iPNTWGFoTLH47/jBv/RqjhpeYpNx8e73Td5Nlexq7qCQPQHJEmpE2GwyW++u1GzZsmmMhQSozTCRggwtDBAuuG58BSkpumF//+xJRMvdQ+aJZQzTY5xQhYfRrlSNdFtB/f03XTuzzxtb7DStCfnKEfgOmiA9Z86hJQQ1lab9OXisMBEDHpHlyxYS52YlGfnMVwq/NHsAkEuuYLGFL8iDV6jj4CmNjVAYXqPz7fzwklfyjd/hQ/GoqhduVkThJmHK4BEZQE0R3rOqZD2LoEnodUVjtNgDFRFMK8n3UcEoYCp9dsCjEplXTgz+YliC31Q3jyF/2QNf/dQsFd1qzr9a5Xf7S6zcMVGIF4mqilBfeor/Q9DbE9vRXffdIFDghEr+mpAQxEpEMBgpZlTGApQjYLnedkDkGn5VBswGzVDillNKxTASTLmmLvh0Eq0g3ml2UXH+eiVvU8C7ko5ls0gpGY3JN2n0o5s08QMO6aHOmUUsfTESLyCg1u5fiONS3QF3gPwqW2GL5Qz+2JOInIprMkjNd+KCJ5x7JuOPoU756YSBUoial2J/NICyGF07Y+9gEIdXWaJzEyDFwOpSohuZ9Q/9vHb7EHVjiBWAyZpnDp+MlpKT4hBrIHbZ7lyPPU7kzONx0FjJOdc9alRcIwcRsJNUu+m9V1bpr6O9ZoUCmV0QNBEmg3gAqR5dwdGUKyOiOlpehJ08lt+FppgrdpIHWCdFyBwiSaEr7lbr5PCKuJxuLzUtnp/AhOpEcFeQjEcunPDCTu4RHCqmZ59YhwsQlsgxGX1HoHSY1JgZd0fMTLqp5XjI9OJSDAUhLADzOVQNWQIqB1NBfmmHiFPeWmYIaFESSIqmhvBxZtftnMwyAv/HjOQMgpBKewASOkNiIjLempLr+cgX87MacelLNOAmQDwZdgdkbCIXlaqRiBuX69gzC4J8OR66i3533CyxG3b0YJAB3RlTzh5TW+jpcypu6WF8AQOpeJ67h7dlqnJ2gNMSEsrB3dUhVqZ+RXfxwKy40PO5SRZUJi5RMrU5rNx/XWd51Rpl3FxNSX1NN6PhWva3sQWrrudjtOXVwuMZ4MnvkIw5QreXeeQ2B6AXfOeFdJnZI7Zdk7Fu5wXWf66ExDsk2qq5bYv+FqAUHoeX0oKDGlBPqyf1z4MA0WJEH2EEmzu2OKg69+KiJtMPtUQ0QKzgWmAjPQ3IMiXdJuEhKX/NuOXBXokh/PECGbgi+BPDRv0Ot2dtbF0sI4nkdZJb67LzTmdanfnp9Od/zpt4OQcMl0Mj16ylhzV0gVx8NDKkQCu56RSbE8y+X+wUmNkHGp0I7wWdbOxyHlhY7RnLf1mNOFGKesV+jfO9py5RhjFh59pJvl9akwp7zqCZc+QC48plaOeeTcTgDitCWbR5A1zIL0UsduQ40ACbra5eV4B5FIS0wQPVFICZbX3Z97rl3FTAqFCXzA4oGUxqRNm4FgCFv58rgLOnYrbJSXOAdl0hZbTXPk+DFAZKFTnWh6hGFKGz7HxoCy39ldFphRlSzXNjiXAZxt90aJcQS+uaSmVDVKiR2jgAPlNf6ePrP/UIcrfeW34yP99Dyu2/b8OrysA7IlPJwp4qbvKIg4JgpjSYEwoQRssadP56+agcICcoVT2XXhLu0EzgI+PAnHCCPJRcu6ed+P1kqKjev4ETahvnjV76ZMsphPYEGVi+yNX/psxukJOFNdcdID81CpRJVGc1Cq3gQNdJbt3IWBCckldk0FJkktJ44TXvcnIoCAO6QGvKY52ByI2sQUyKDLH8ffMqF0Yp3y02r3HdYxTMt1OwHPD81bkuMJxCkCISKA2Y+lMsV7F1MOIwRDSdJdSglZ6o/362NEZEr4WUsdHjpF0rrPBITRvF6+2opBlWaTBJ/tf0Vw+lQ+Tt1usvzPaRbAyUXMtFNxx24Jp/xC0w/mPDpNuLyNd2UK9TBcaRg5lWGiw5lEtFFGQZuTy5pHydQtHE4jFqnw2zNoy8zzeRKDi5TU9iphsuTvnjFJB4ehCEzZGgdwUKC8ru/fJqTMCz6UXtJzGkgwn5HxLNxRUBxT4RhdT7z57kGO6GiYgiqmPg3MwlQEZspH+mV+XWgvmXxq+VkVhtPRXZKAlstx11yz9QdIkspY+HiaclFPWcZzZDoMHBgcJIfxf2n4+mXc55wHSLrgmy1JIVQJL+txOmLd+u5vz2dYLMtC8zvkP779LT3P7dK+A3z+mfFf9wGoee0BvAPV7RiImNpY3iSm51T048NFEkwSMlMPWXAOx6U+ldyCQNgsoVTw88xXipnfAr49ODOuF2yHt4dmom05HxPCubAnHqhT3JCSsAmR7oGOvKb2IYnT6Fq3W/96x1QEgqzhT+XEPhgkwUz0JNNbsrDtYjNdfvv7TD/VbwOMyDC5reR80s32MSDcuaY9//k3/fn4JjDqEkfwctmBMcOzy4LzlOtyfFdZ8tIeA3LaaLL0Mfd0xR1L1t4tpmP2IAQQMEkMHRxvn//WSCH4DW9QwCEA0S/LvE/xtJxys7t62gXrJf/gBhf+fHz4Qy/M0OrtbucMwKQI4b5kagduFfaef3o5d0lynT/eNSiZsaCFO5YLnw/Nn+pHA3cwTywlzygAOKDOOZYvAfvXFpBebzqwwA+bHZbFW8BEXpbnSMx7IwspYLeGYug8dELKZIu7DWMmUtup1glZw2KrYcMdL2npT4R52lZjQtnixMvHV/D1+ujJgBGrGEhT6HXZn4EUjtfLD/useqPvCp7zPiO2K4yA2/Xj45JiTl/SPtXppbRzdEk8JkuWdocrtlrRxrDTGLcZjK7AyHy5lvafsdZ2Lhbun/GCRSGJQWi56DuRrelJxUNte36k5ZKPaUoYHAZ87aqKC5If5C1R3eDT85hm5qWm57H9t/lVXzaJ/nxOTItNYFDnAFm2/kMvP4+PDuimsGB5haOnRCWUbA5fsHF8OGPlBlfRat80ghP4hAtR+TjXzI+dIIjIZabqQKEhRgmxKnLoMIcaDVEMxCCCBedgK3Vel2OENUtFJwMXOXtEOfTWDQCzj7XkwWeHyLE3IgqF6+vzSZLL8hxoxN3NcyWHyys8T0gl4AOKPBr7lKoWIDA6MWd+4DZ8E6Gn8XujLBFQoKkAy7WinLN8nGO7cPr+ii8ERjl7dM9l+U6idKPlr8cXOWY+wNdxQvKf7yaWKl3/45k95dCI7XykFG+p4Cm9+x45aMh6ar2Z+LNDeP5iu4oNXDbNsO3f+qcv708lcDXZtLyM3VKCIM+pj9nRGI1y0iPyJaI+Gw1lRtjplQ52XsDG05lFHSlAJdOML4sXe8/ZE54Nr88zzcjkFOoGFCASGAx9cWB1x+TDssbl7fFhedG5dVXI17kHr66z0eXy/eEsMQyvn+GbCwrGhACqfQcm8PJleT+hOIkp5OM9cp/pzXTRIDwngLx0q6OvN7BHl7PxL/BdE8uYwRzL9TDB2r719XWV317xDzwmcAEYjnwZus1DttLey4rEh+9MndH+6W+WGDt++e1BkeT63GUZeoGPdIUVqTV+dHYOXFZd0lfh3d/onv6h/xhmkJafqOTx++/z0/rdCcwdubrk1pGlIy0rPU4fIGhYlrJ/8FWyf8xL/fYBRdZHT6513VBbmx5SQmHVHuGcLhebOc1EBOPvens7d5yRyHE6GgqOfCHvLjF7XU6NtA4fSHb79PFu+XqdrSsGXuN9pIK9G35avjbO0HVQfVs/aGnGOMMg3/Z3CCZeXvVDHRIuSPx87yjq8kqa5wSJMQP+wHcqKuvcm4ud9X/zv2/wHYYBi9LqTQrOp+eVgBf8mWK4yIwU6vDiT/FxE5te4cWf1IwJg2gf8om/5vQcKEpVJwfBy7O5LMjSG0UvHZg/8R0WBHi2mpq86SMsqMSybcvz9x/4eTwKaRgwlQXHCVlRg/54OX8d4JFwjO1zff4aW1rs3W/p+Ogiy+weIXWlfB+ohsKiwZphSFrPw7c0UTD6Pb36hxSxMyrsTlAX7FjZple82+YNUBbiNqe+XI4PkNsbtHEaaJHHWAixd9qwTbmYwTlluwxfOuSBfmq60b0Hoqwv57tzkCWeruo4HZeXbDqH+cKjwYs85AXntO60pt9l5ZfP//bACUboWHCw6AyS1PzG+IVIYbHdF1Jd/vdffyXRCi2Kt2sfy+Ig0zd7nMurH0wPpMsdRKNo1kaCW/7V3mz3L0BHW2yNR3kzjONQyLLCHqSI5lkAu5btvV1moAcs9aY/mqzmFtd/0P2rqUfy6VJexjeDUu2MBbI3my4IeHrJeTnUHDDsBR/4SseYXukdlxSrhR+UKgwom97l8mxmXBZqRNiAt5s9enOiS63xpPf+WfppKJcl8N7QUE4ryJfWAakN2qSWxz2VMjANWKbrrjVfvRkYZdAet3yczR0KoSqmfNumHqfZdbkfWJNZqW2ikpOfCPyPl397So0TyaTYCEAKIjo9Ab4lBEBTY4nJl90CXy4fR2SXE8IqL9xoGU+q50U6BM3bfYfKvtI+TKpqq7dPv7VbuV+GeBfF4hB8fKQ3RRkkA/1hmM/q03cAACAASURBVJMccsXf9TpQALys5fGwtCQ76dPlvqtMVSzZ21nycAdEEieB4U4BHqoX0ULzGcXdM59wLc1o5pffLE2tqeDBvS7LOFe6ry+6H6YMpCE4US43+fqMiXy51PPAp19AR2RMhcbA0UQ6YFpq6IDeQlK9vD7/Y5biafs4N+4zJJcUs0uF+egoC5J20EYcITn4uug5pkVhHb4wdePINFRhKlUpn5+/eqHJ6Is0HZQxQvAMMvzMKczRTRO4GRWkl+3bcKaLIdxNL8sx0vo0hus4l+qPNPdISynxxM7PCfntU/p6uf26L5wDfLcMIbIf2z8+77zbhfnxVLhs8YDr+JDqtma3VNtXKHnjdiyX+Tw9gQPcyvOhLEZiWlY7mW0QYl2O5nDFYVPBoeTk7h2E0/X0OA3CVW48eC8XbkfKtiyPXbPCdOCFZshqjzOt02C9SWsagIDDrgtxfCC3gWwetSYywnsjx1L+eP51poUsH0NQKaWaxzmMVpltCvuMSwl/Os+4XI65GqiFMiLPLkLRnbd1HNPi5GuaaT4mcl4sluhzpoVHIJoq4udU/QR26wnCkV9T0GMsGe4hZbV7j432mf0sIjqXZM8KkM+3be9DlvJXgvTG9/Oz/DjrF0Z2/YBseNVBb+P0r2Nb8DGmvdTZ8C/Hr7h0/JSeyrePb7xQiT5/Snc9wR1Wh1CDxI15elmiTVrIPFIaV/kxyLtx9XKbM2/L/NuDUqU5mCAWevQsrrg+hku6VL0Pp/XyHJISQDlBzyE1jC8X6h+QXBHt3N4E2kOoA2K40UIZa7v3AE5JzpMkpz4DCQMB44JnB06iChCmXutFTgX1RdqgIKZ+AlOYUk7aLN++xPd5juFb7RzHCCmLecHeMS/wgyQVfyi+Ldmnsoc7kDMUofGES8G9Qal8+AwhAOjgpL5IGAdfRlJd5ZTWPs2juBlOcHkzr/O0n5Z3fXM93YjuDuDBZrl4W/7p8XdIs7z5h5fyPChhsqNs3mVMVypolkCdrOJhKBAmr/WAlX/vr5d7N7dAgaVEl7fXx78/ZM3oB19lvMBHSwoyydSVrl22s2F6bYPBOZfvJD7cPOX1muF/QYp8AvZ4u9LxIOpCBq5cbMP5Q8mTrMuP0xLi4t05CNWQtuXhCwT58EmbD08lTGIYhXOgAOhER3ZAKNQVt0/0cYw+ImcU92ZcsvvFnoNK0fck9RrfBr5WTtAYfCoKpC5e9MDilOnpG3Ach69ZcCD5g1dxbriQ5+fYFo923LTzIUU7kBfhV5vLL+3XAwg6BJeg0SZwLZpa25bjBMLyyudIvXXZko9ZaUCazQEThQv07nmj1gACKS23Zrk+dpPKrpMxEYwpG3367VfnWlL3kQVvZmJnd05kMbRofJ5P1Nu6P4lrhnd8yePQqEi55l8722IAHuuntH+YNWLkZjmZ4N4BINWN37vliIruoCizpWtNLTYa6s8JVBI2VSys6gGSicUnhPhkgaFrQdqt0GgULThtA8t5xiX3XuUctKbWA3O10/FVkoBdxqMXiYRTWkrvWDCt8YPXg7LCQBbpuMgHZDM908/8XkOL0rDxFnY+U21Bvny6dM39dT2H3sEesirYYrs7b6v31hZUBWMRLqmfs9OaVbMokvcBKMUcZrh5SjhmkjQBYEkWslA7BUhmErKxH0Cf/vwfxxP4bYDA5UevosZ+zktl6sNpHSadwX6J38frtve2vjnvFqyBFZ6TZiGHCrDe9O9qp6eU20zhSODuwJfUuwOrCzhfB5b9kS8vfOzb0kY0Dcw3e84hrOQWyLky23BgGph0RFlv7VtHoSDqvvxc/9Z59li4xVqPnrbcdMwECoifI5Pha3s4Z+W1j4N4uhShEJkPnH4tMYB2f1Nd4O5X6+WnfaBkUm3m6BCY/Enl5wvYXefbhfpKfnzdywwtyVzTy1Xfjy7lDBma0OsapymUil6PXmVOJUrL4TGcQpliWr1xn+HLZn1crr2RzUKh6h6q9Kft66FTrpgsXt4fNEO2td/XTDCo20oPX67+91z28Up6+lqB3c0CSj4fWSbJjBqxruPheA7KF92Z3IgBXSVpgyzRPfl8+ePhn779p2030Y4pGkznhdJsPgWnWohjLZBsmgUxwHSW2z/c/z7BqEb0ePvv+q8jT1UGlXSJp19YYZysmgR/8eITl9kFtujUz+BA1yUBZ9w1mcK67IBd2JVBId/oW/J0Td6OEwARmTTqw5dbDJMTX7B0k1fav+6ydUGKga8v+ft9KOiSjlMyYEl9Kt1e8bT7QEYXmsIwLUADCNxpXcYEgPV63s9yIbVwydwVbQJQ5Ttdzs635RjincfM19IP+JSeAS2CLLbb2KmZLSkGkgIU6uyxSP9GX0YXn5Row8OApll6gQ/KMdCYYLIPhXKhhyb3z/+YPrD/2y5vywhgC518Wdog74pFmyKiVDAEM2eRqQZC9QqD9cmCOECWOIgUu7pzrtC9lGgNy13XhH/O1/GImAPzLb2DPfBVZ6hUThEGRccjoaeF7UQy0MgXpP3/Zwi+em3L0sOwfmGmFfY+6Yaq6m62RIkCBQI24Gf//ycbMPxgUYIgttjsCrfuCTustWb4gjWG5zWM6w3iMP4JaL8m2c+sMUz3exETIwKyzgvl3hQ8LSfde622UGsYKMyEsvFjkX1X12g4gaGKGjK4BRieCnZTZSYcNp1HHcCZs9+zKvng6bohRsuxmVNN8yHBO+p8JjyOVuMCkPAMvxo+nveN1wsbQbVE5tLxfBwZFKcXvt+FHEhhoWqIlnxYdDetVNZ02QPq409r7B9/ucZpFmBqoEOmc7e4HzCn5i4OmF3ZRTFHbYPZnUPIs7wyYxhc7sPSLDj2LlRMnZezXLYU77AE/KmkoGM/REvRFuOmj0NcqXAp11YY8BXgebTeeFnod5FQuIzDlwaPYVQLtmCrKpiiDYnT0Y0gsKgBdjkvIOKugUKKrasS6HCgdcV07PGsWx8ESAMCELVmQCGjMW06RRRBU9Uc8zltu6FhikcrAcx7KPU6YEoCY0Q8aObh6EITkHr3jk8+Mga9h+kke0/5trhKg1Oud6WQjs4UrDx5f69IEcUmEqCkRaoVY9obxVKOV2J9OPEz7f99XzMqDDVkI0Ilax6KSyH1oWluaqqcS909kyIAxXXcglHpZfm4clib87FJpGFhShnq5mjIBc+Jp6nfBRQdABhhHVUxF0jT9xGRzCT/0N9v3T//qf+NdsfMTt26/AGrU9BNTXykjHHsEjBEPpgItRv4iS80RwmLH21uNm9iJOa4zAgGzF1ZFQGlBlAGGRZKsoF+aIlkWug+QoqCnHvj7nn0pZDCGIg2rKXcDRxAKLlRRl/KdbfINIBDxGYUCJe+S5J9CQGPkfKozgoABuQpc3q7I3Egw+jouboDrA56sFuK+gZZzjks7fhup7WGNnrDEom9K5J4cIxMIsqpg4sFDNZoQgFApyw9jjH5oocYT12j7BBkwDSzk/UNElnGFSgmb5FlDIiEDl/yz1JmbTRth5/sjg8Ueb8pfv2857r33A7QzHdc5tieuLbL0WNUaKvvnTCWXBtnwh2R8/2WlkiJ+T4yOX8oZDqcQ+m6zrJpXMSjSN/ZRly8xagsO0LHiVXDNPaYmqpMuQsQcbOVAMEcx4GgYCNGd9XAXRNTzg/86xFfyubSy+nW08K7x+PKjTKGYneZhqa4DQgkHtiWvG2OMah4DuCkDkCF6lBwmONxo3g8TLR8fBjleU/q9YBpJkNXJzdQmma5imDgKOIEgTRk6KpgHmIFEMcUO2sIebTWQ9QOmSHmOL57jgq4IjLzIBgglkNC/5L/1WM8DisoRoDjEYYH2ykFhELVWs37KWxpiQ/v0fGtYhQtp3fNlQ00+JDyOPuHjFj6DVNWXLK6xH4M9RwqZSEIU6lXjdmW9X5oNbcQPTys78MauoQCfUynevC0HUjBLUA0lREY3dalflR2txGTMahg0epAJbPsRuen7kFGaZom3DX59aaBPU1p7yc8Umz1iEVkDY2idKdJbkqZCYlxABP04R3TFG6VsZ9A1/h28LK+OYEMwhAsoKKpg6WXx/F+r0ZTxjGcI2E07qJiELADqXkEAMb4FX7bHeN6PxA5pbztxnMzXBmnVLWDOWGJcz5Kv7G6bz4/y30M5jJGPs/Hd6DRKCxOwL7cb6nY0u6QuiBXf/xx/8Yx/y4xUnqDc+mdKy5Jrr66pJjFo477QI4dk1h8hn10Q+ZYzHCAVWbFGONmkFwgUuthzYegNAQkpKzdQTEHJQ/73RgR8MErdHM+2SaEMXvtQpmJJjsQYPXGZIS36jRNAxHmx725HR1Z6QtdFNUohX0XTMgRCQYhkChUyNm6sNBT389P2+/0iT+6q4IbBUq6p+DDuTzljyP4rimjegI1jGAQXUTdlYIEJzHjuKzS7ibx7z5+N/bAuDFN5/eKK9JaLtwGYqQyPx6XasRsLsgPdhlTvhA455BvdxqZJKQnaZl08zHNH1sAUQCll/LeeJ4+yPTL8z8fWZmDVVg7alg3C3PL85DLQDIjdi5lbOZgVGBVwUE8gK0pTk0xRegeTSFnUxVjJBpAmyU2necxyd4dKUno2gwViQrqoERz27s4OxXqgTTGjZwLke1jmbhWnJ4ef730AGIKvFDEw4yK3MU5OmQyNSdnV6iYGFwynL5cvj2/yG+d4qhT7aSaiEo9OHGFzG47PPohQBLnc986JJBQzG0MNEqyxHoFmiaw6G+I4et4Bbpp4uHla/xLwxdGzFgPLUxQMFRxBJwMgJrSgQ+nbxKgjmmRwzqfrT8875VL3TbJqUSVW4eA/GwXood03GWmvZvEhyd9Owg/YqJsnSljg7xJrEIh+KPtoRkoxjjPrxorcAx0Pt4NeEic/RipCCQGk0YlutJ8f8VE3pep0dLvPrnodNoOtzYSMosBJTJE2o1cCZ/kcjp9F4MTe2p1La2Llj9vv9XBGaQJlPmctjG84A4cWD1BE4VsSFZbTMm9nXJ+eP8+/wH/1TXBxlWTRm7CmCfpvZf5aJgX2xQBYyYdwwAZIyDLAYZZT+Gy+flp3MrcL0zGsTFeRkiu0w/6r4ZfGCSFq3EJCx47dV+swhNLhrvjFZmxcrzLWjZ+qDUuG/zUqha63jstfzw+UA+ZQlwC3/enz/ffj+BHHOm05P2a+HXDHNhxwEKXcN5r7IqUfMXKMlwon/P1zuxsRvOn68VGtO7zDDcqMLB41R6m1eS8/PVCjA6TMZ/wrSYzjZ/3xnIfOVuoAgBTEokCcIz5z+Pf9tPLduy4Tqy4hbXt6DT13U3DSWqHXCgE2ZWLYWYDA2wN4uROY9cUF2njRDpdb+Hv078MXEdV4WhAsYuHp3AfB6yudFY4hDF3GRzMTKeQ+vFYXgUE7BTuw87TLiHZCLBjdpCuzB7maXx0fHGFTCMNDV/LtyO6no9bPPmYvaMNlZAMxx5Xvs0P7YoP8d5HkBLA92pFFIDiFE6Yy7fX5Uv7xmGM0UrS4sODHRqIPIhn67yOazDFyH0pvQOawk/zx0fixmu/2MN0UWjI1unF7iPPnqNemJwXRB5vnkqRhq0wy9YconHQZYGbycbPug+Swr0xInT/+3/3X/5mYSnHZuuK8371XCE59Y7kDV7i1SAChqh3ybNaACtDyEbmwnE/BnI4VVUE47bn/+h/u8MJDoWwSJUV7ualMJgawDxdRxw2PX10cVd2SXE+jsfH9tFMbYWDmFUSeGTDCllFwJksT0drjp9oGGR0EVzKXVIaYZcFKnGg1haVgP50qV9M+rJvLufH/uEI00Rve1CjZBCX5El8691SDDSFdoN4257ObaB3J557cy7a+xyvQkZLufHktQUPpy+XTTRIeHrfyim97uaIqD5rc5inQrJhURQid40prH0/eghsYi3EYbOfTq8Xtgo5VuHojVAFwT79/fjL3iJMfuAa7LFv1YStzHrIIKeCAxA9MPt1LMnMHbLXwGERLnxvjuYZuQlVRNNnvwgUBzNE9k6kCoQ4TTo0UrWIh3368o3rXSyxypxUx/z8rSvSNPCJvu+UTWNyMUM3d4yoKW6HEH5mGjVEE+ucVado027zoZNP8M2fh7P48+afrgPXy0cmzqhDd3t5lm131Rg8BtRMR9oqRiArc8F+3cJLFNl2OJ+KXjc6P37bGiTYnWgqHt17o5gf+o56wzkvv/o5148dgxsg07BkeQ2oUgM6tE4UFgJo1oFzOVozWrqQ0DoGCIIBWCyHzdB1KD/z7VxeL8mCQXyApLp3QcOp4N48okP0qMYQ5OYpORowsVAsU3MwA/beQkEBP0YgDHWAUiLzWZp7CD5Eg1LRkZ6OdywO84Mf6XIjilPy6dh7n047L2lvAP/x/j/GzN0ogqIPY3QqJoW22gP+SKXePVHXgVwcCVavvNETdas872rOi1G4wSRuNLVxwqt4DZ8e4vu98nCMEQYzIqZ6M3altPSGCufnVJtqWMPrRuvXj7fdIEnjCFJSiXvk2zrfGGzjhe2DHvxjCKIK5NhogpaJidvgwLR1l5gcwEkwFGlbR+AYKB1t+gl+PYAAMfEHnkrk7SLF5LSE33twFD4n9qzfG6PbhKFvATiToaoijR4wInngEQEok44OEKJApxiIWh2eKI02hBK4MVbgsPjeNTPi2MMj90b29OPrW6k6JCxrTPtFwALb+ZH+up3lj/G/j9lH50gIWr2gOTGQuanjT4H2A0+8V8UYgbHlU2+NnqZLjYzDhBLEoZHlAx8pyMFZBZRKPvfXGg5LSbvOD7556W9GAEuxY1qG5px03HZSLN54TX3fKcMeCDk64OP8cf1km/oMHNs2neLbO6gBu57nNz3ZoErovILD0SFGHg4A5mnh910M0CFOT1TPp/q3LaLFoUVHXmI3q9LJYwA/Qffki01l+7UvPBJguO/IT+tuQ7Q5eqBgjlDQElVLANLBOShXS+tZXk0hIdgmFIkgbpIZ1/X6ppRSbB0HLTlyLZ9+vYZ78O4hs0kwByDjWW/jVMi2Ebh3nFatMuw5bQeECIoP+Yp/9t4HPvLYDkihgPd0GhcJp9zFzQO70PCGCx0e5FgKIHTgRYaX0EULXphB52dwufRjd4bpBZ2jmB6HgiGBRA7BF7nuSxkbU5oD9H3mBoWPGmZvIvT18/5LRTdWJULxHIapKIQpmeyWCjUJBZp4nMc+QJ29hSWkmed9a7T4sY8ld42pWy5ykaGQMD9MH9Pn2xC/H7I8DypeL6JhPo+9Im6AUxzRRsPHxAW+IUPwYUMn8sPjKR8bEuZTuzVzCiHzDR4qnqfj9QpxTbKDa+GHZTRuWq/x1JpyIC5YFYBic0xf5l/enAkNND7Qe0vhrFtjCmT2kr/h36v4GBP23i2kiO6zj2o0Jaa9UshJr1IIAYay7P70qX+/h/llHCG503jRv4zPP3yTPz4d97fDrsoQZ5+ecrvKfUyrv3dGp5n9sb5bjnJ3LidhbTIox7Q3St5h4PN6PzSc/dgxdgBLz/dqwwEyNzNcWJrzbB1A1JBwjBxkxp2+TPbRZ1iOVhM6iyzHmIhD25pSLA/zt/nL3r5XI6NPi372X94NwdZp3MFVeOVm2iS/LNjb/lBlsibiMfsGnFDNgXIZdTSgHANsOoecOL2+u+QSK/tI7vPq95q3ffmp63tLAKfptgHwfLjzj+f/KgZsKfXBa9vzUi7XMIkjTo/+K/5JGVvNVkGN2S2k5Opi84OA3YQWpLvmkMW1C+Cd/2D7zdKZdmIxLQ/bK5RM//Cff/tvVqt15t7A86fT6L17+hP+886skUHDxL1i+agp4XRut6ZWHvO7GEDMYy+8m4XT4lvBm9CBX9vmYohEjuaFpYekVQLXzqGAQl7L9P338NUa9h5XE8HFtN/NgCMyIu3m/CV/1HMJv+0MHbA8/fH31yqMozykbQwwYxalDuWM3nqYWo86DMkDNGcEJMUpj2HaATiTD5+wliyHcx/r6nDXyCrZhzmU8AL31zbZ8fnhvh0aE4i189NFm7OWWRssdMES9jsXEc4vP25/xa8g7j0EMSUDRgjRmfU+f6kEl+EFQqsaTwJkA8MxToUVNMilpWxScu2B/cf/fP3LB0euY53f7gxMQEucfnn/8uV/3FOxxLuun+H7gSe4DYbywJctoK5YoamHc74Lu3cP5eSRLi3t9nIfa7t5xFCgWaQx0NSAzZTPL+P+ZfJ9vA4gmXMfnrK4oEx82QNq8gHTtHWg09o+aP08/XaVDkCf0gdpxYghsDSLRZoJZFR0zSQMMgzBY+iKpoiE7Lis17tTFLCAKLQeW+Cqc/KRTwY1dplZdtc+l16muhlFeyrbdacE8z5GWV3vws4xJkt4BQStHFXyuqyX3/FF7H+hQmGMAYlYkFLBN/4KzbtYQGgN5jCij5CjKC4EEx7vtRIPSLHDavJ34/sh8vBQ95U++hNq272U6eN+Xt47l4jTR0+f63vIc962IfyYtzqVTcCja+/n2BCdxIxPFPF6JMxlg+z3xoyMEqkb9RrIEdh5XaZDz/H1raIpTmBTurNCIDOFmP0+DFABIWRUCUnTadxtMNUSPauQDXdEjhzHsAEUQLtNQWAMo8AUrRqYGTIhhRDlLgjuMQhCiHo4CpJml4nYnqVbyeNNQ6gKeQ5bmFDLuJpHHCFyDL1dJZlRYFi1uQE2mtUXcqgNn9wHOPC80n1TYgycBKHyA1QyHJS6jJRFZeiSQ/EbJchwHHxL1gA5gY/85c1D2/lJ27l8a0uAowYdxCUNJycMqHdZ44HTTJfmLcRYB2cUVi+paRwawUNX49Q4ykgJCKxh0GE0l62bQLCaUB05sno2Wh7iz68WSxvOp3J1o1lGa7E4lHFDFiyUpvs1PmQXhEo2zd9q4Kd8G6ZIHPNo6hZULGXoFllElOaAiWpVdHVnMJ6D1wamgDG5sTuzmRjgFK4hB+ShxOnTX8Z0HOQ8LTD3DzTN7gx1JqAG0D0NRe/wCAqSqeNy4NpFq+HLIKYuMecH+b6FaaQZjkFgOQ8eDhhMIQz0o4WMpYyqBOzDzweKq/Ac77z2m0wJdT0xhf/qy+gtlHHhaX4+xCqirbW3H+l2L4+B6660BfGVumRsEvOKVTuE2CpCGCMwRRIHMkkzfujpsV6qSQiOJCGKurM1Cvmz/C6Z23Be2E3hYeyqSMO+Pn2/KC4JqLQ3pjgHah+2nPEVJo/50tRSPiy7Agz0BilFMwLhaHj2DVjrCKRO7uA4p/eaSDlafpw/9M6PA7fD5pkc71O68WHmf9g6kNmusy//bny3GwYMfhA2xF7KIJaharg4+IgR0WsMXaEbPg9OqD6BnPPbDdkgs7TAoyymFaMTmKsm6AOYo6koO0xBHuOlu3og3paTv3/ExxlgYnj/DR6miyfvl7Lay/oXh7GEh8uHPqHe5SG+yJvSjphmkD10H6M8nuttI47WFWfYmIHN3CNoXKaP+/KI/t4QAgrR5LUr2VBEXE9wUzcDpDxJ8zNsBK4Mn5bvr+xqafYDfHhmcPVparVwwrG3oMDiAJyiqQ4nDyn46OkMOo3a2bpHHB7JALic3q4QBSLp499/3z7g5OHYLEd42H+doufaDzl/5g2n8rctxb/7x2/3j7+dc1MZbJSqFFRO0NVoTnUMCyVh6wxVOQCuUCClwKJh/V6DNeUFmgDl4n0wh2jS1Qpq5xh8ZxwMsszDgczn66CMgLnLbGMso2a5ljAp+37t5x/MLp1HO6dl/n23QmOH6SzwQUQYS3j4WTZHibSg7xKL492X04Gjp2ncgBE4xC6ktEhb87ZrzLlWVoGukYmnsm/qAOA54RADp2CcMOitpTAoCJKBKjDHIWkmG7joIQqMwDx6SJFNhWhoKj66h+wIiCR3zza8sAWG0x+2n9+HGRbOa4B6hVjG4RnsdL28SICPkdfwoFc6L68fZl9ffj/iJYXeBY3mfB8BBk94QJpPY69N8ESKJFjdkHHGkNYT99Et1yPxXvlB68DAERTIUxFtajnubSpQd2ZcyqYQoZPkT7Xh1D808jPuLcTqtOFLH5z2renjH9PP3+d5ax6en95vxhAqQjyFtyMAB34se93FBgbjLD7zzbHFH7UdLa18FQGgEDxs1XGy6fF2S6V3sChCHU9JNJTx1pmdLQUh8A0xpMy8flwlh+nUf+8hgpo6FBaOOIDBh7JBzBhGhUAuVMqolSY0BUGHlBjt1pJZCgAkYXqSb9vQCJwmPCV5Q6Z88SRGm834PP5a5//kH5lv+8m87hCJA6KONhBpClWyaCl2s9OTH33o4KmP6XQAuFbDJeSS0kqXY0/hcK+DZx/gMCczV4rZrNWUeJeUdLMM+Lje3uU8t22Lz4seeOnTgq4tP+wyRs3nXpmU/Xr+U/j+ezlfO4VzbpfcD1bkhwm3bxYz+rSU/d4MgjSNNM9t77PRMhpWZgllN6fIHO8NNQgsSA/8esUQScegnBBDku+dUlCMCTzxbxZLWoaftrvFyDxat3kMjk0SOIIOIlXNT7grGkfrgCB8LvsxOAUG2rpDnBOE7YaOBZRNETF0hTXehV/yE/xWI4TP72/FdLr0nn7yy1b/EH4lOISn3JoHTjFqH9WIgM04dn+Yt4s+LFVdBXK4t+l8EJGb4fq0eIdTeD2OGLk3AWIwcl6Dow7HQjaOdYGPbWG3kPaRZr2PZdL7FvK6GfWcgGqwPN3qAKcAniGH+jF/Th+NwsGuXOLy8LdvlWkqRNPrB0/ofX3YrO84VSMaIUocVKb64ZEBOgRQKMFornXSQzQWYq4CjCFvFTglW/P9CpWjQUypt97iki30muamScy9a1DR9WHrLMxioBl6P02mo3ZeogxLyFO4N2IPOcBHdQjLFKxWJEE24NQ7Zm7p63jd+Xl+gX/dvUxP7Xt2Ob9tdTnHIK9b2lgwA4ZuEJijH1lbIHBBBBJc075DQY3eAdGHclQih6eIL08MrOC7IQAAIABJREFU2pLLtk+5i6I7kQFTyEgubEZe9eH5uFbG+EDbTTynAXOozVWf7scS/Ri5APWuikQhoECYSnuDadFOWjkBhTr9afzP15gtYnga30dka7AGGL27cwYxt6Bhom1ERUQnM+/zAzYUX9pHSAPGCDDNzbmYDOUIn873Y78oopcogg7x+ctf32MQixyqYoVVG4QQ7xpOycYBIfnoHAxs7zHG5BhY0A8q3j3P8LYZx2ki0eBw6Dw0Fu2IaYS5y40eH0w/9jGVJ61itMD+Rnhaj9sW7qGECT3pNtyWp+OCHKeG1giEwLIPTcF8qhWiC5A5ATh+jfh5YpIBUPbr4/Q6PJAgGYBzCUFGYEe+jbVsZJUzB7o1C/N6bnDbstTSxpRHs7zexqAX23uYmcZhnKkmLfGO0CHTtLxePn25/hsvNXb5HBtU1tFKEsQdyIEzG3ZKJAcSiXlAS3j1x3J059i26XQ/vBPPpzs6cBy7xvwy5fT7bwdEZDqWs17s+Yffvk2wa3pad28XfI5Xp31w5LJ6rT6l4UPQnFTDGOdHOnQQHPHkW4sz7bsjpwk6FDuqzuAcUQMCWHfr85/tb5rQiSOMi8dyyu/f7fxIV4v7MYW0fKBVM3p47m8Nlql7swKHB1cVyLMy7uIBVQ0jm2QCxx84p0NCU29QmoQf2xuA0/DHqSqDpWfY7zXSCO4IEqZezcIf119hvxcAVIur1GFU45QfdftoKZ5mOVrQNjE6ptZVylfY+lS2S7CG3GP5FH7GOKrHQVynE15aFnoeZen34fIAF4o7v9QLcZDDchzAUdEOC5kP0IFEvee1DFjgdlgMHszPfK18wouKpogT5nA5ptxH704l50haNaROIqSDEmpty7MeCJibFdkGhaXUagoTDyNtwmwpaceEhFpJ/PPn14/ITFBUulRIa+CftaxRvxxy9EDzuLQMqFNK78gRGmieavOoR1PMi7qbISC2QVPESLIN/KcqcT/YxXVEgNOfX18FhdymxzbYaXm8feCQEr0zuWAUNeMCrfihQQE1BJI6ME057psLJZpXJbD7fXq0G0Lk0WC9ww/Tdov8uqe5V/r0w69X5qFiIVos6bZBhwcKa61KbQp79H0+b3sC1S4hleAav+i3O8Y+3AyJzPi8VElrP3YkD2AxZlU8duVC2gN7TqMrgwoCl7MTyuF5IBo0SEFr75gxRNJkg9oBENIp9rZ7SapNlTMaBekQMKIMQPjy9OvBiohTB9kHxpjwqPOC8kk+Rg3Ps4xqPeNn6uIeb4fSmneb8/t7D4TMighRBUUwk69xr45/MsGqGauiIqVzvlZQUSJ+gMYmn+1dmGRdjs0yasRqCEG6xxNW3EdAJXLrXggf29UwRaQAztR9zfub8tO8y7Cmj1/4cuuNn+QGked0h3Q/YDYrqHyMiMLJQx9AlO+ygFBuByGQmk/rJBf8ga73ykPUHQkRfVpt4LocH92jq1OMeTo+Dk+zD09pEDRxTNHcLMfEiHcli1mrUIThKsaRkzd3jNbUCcKJbvd4irWra5hwOJlhjCDSaab4+HEbg9cJN5PqQJye5t8ffL+XcmxjebqPT/jqj+kf8bdx2UnYrrw82HT+6y8ykUkKaCNwBxWNAU7lEMQZC7gjQdAOCC9/+vmqMjqGuKaq0l9S3y1EjNWqU57H5uDBm2IJxFvl1A0B1Al5wjumnNK9gRT1/BS22wY59ziF4x6euH5UW/94eZ3n1h6Dy1sv570/hX5sTJg0neL23XO2e1pMBHWYpswGa4Z2bSmf4nZv4kSGEGJgFsAQj2YhqHiZK4RdVNNMA/8XkN0glsX3Hkr3oEs3j2d8r6ahAIG5M5NXMZpCM2AYTMcoq1Tj2KhUUFTOIY9DLHxm55/dPESCLq7AsJy+1n9ZcdyhTNFdfl2+7NeH5fF/f7v/8mtt6ZR/wYeHENv7dQQSm7P2CgRqiJHl4dObRvxcvA80e/5JL5eK8R/pbxvKDTkF7gPjfBqvks7ahI4WCvuhxG7iHCINGsIgxC4EaKaI6+cs9/2ARa7hS3L/uKdIlHNXNsLajIsdMTQoedyUJ77JacatU+jGIQe7ds7kTuCChKNSYswr3rbhRMujvA7jBGaOZR1dEbP1CsUtiidDbexjWkFQPMDQIIPn2CtlMXCArGs6LuKSUmAH0MhiAtAIlfPsd/ExT9pGnLQDN/Ag9BIPDdcxPfBa/wUSBQMSYQ8WX8yvN01/t9/pE9w9fzwsv+3rj//0H/7f339/ay384L+notP0OgiMGsxFah0O7mkufcRP9+MFv6zeqI6ezo/hZyWd8r0RC4AHRIMy0+3OaTlvO8qdCHAYBxEkxhgHDYk5EW2HR20KIPOf0itSa+d2AUpzuLcSYs/9WNLH6fP4ViGMgzmj5rkOXLYbL592d5nsDSh3A1Sj4BSxeXqA626AKY1dPHKkjAM6B3XTUc61o0FJ0joGJNipsDcEiEBT2MWxaxzCIXj3QlNsF2FcsA/H4EIsFELUKhboUHSYnqV29+dwsw4BHHgoZPHncPXFLw3LV/2rlUSqE9yYieaX77dFNy5p9x+O7vkDym6P//QPP/0//9erIj+e36/ulpZ7K1HYMU1W74ch8PpAm+9Pj5XxkyMtt+7AoXSIJqIUZETUGIh2yEVGo1OGI9ObqCCGwjebiNyZqDvx06P81sYMV0Ht5z/3X9Kz3uM41OiZvo+XabxGHye4xi90HYGOK0VGn5dw69QheaSlt7n/nhHNOPgYHk+4Y7Ac/NIRMElzjjSPHta1doUqLBZAIaVE1rulGPBonEVjAu1+jq8GkhKICq3QxhQd7jLHY1jgNcrWNAbkkGi/KbNY8h6evAukR3mFIczsDAJokMwglePi86q9xwzW17h5UMov7Z3CiDJ4Pun8fQu3+JTyP0z37/+tI+Yvsn8coPzo14zqpYzA/V6BMPBc7PxWPt+u+H/U6ThumkNtgSIit/HyfPkFSRmn031ILnQ5phgD2s3IRaeHWG8YAuy+pAHcvjwdvw7J+abxqMsf27f05XhHM+78uf9u57ntFD3QpjlonFttGl34URxQmgCUubaHx4/3aDaBIngTf4Trc3ndaVJhkIidyHiS5uVH+tZS2x2AkCl94qpbg1TyXi0E4xBdmhTbmWjNe5I9hgYQh/fBc9BqIaZgxyHThGEK3t8HMEj0gWc8Oj6Xy4YiVLhiNjcFtRAMrWNagKolVcxRKyKHr+P1oiE8n1kshI8LEKYZ/U/hf76ttZ2S172rxR/5NwcdJWnhenREJ0KNX+dRxhv+b2b3vdHprB+78JlNfH6gb4eJxOVzvN94kjdZowf0AzO2kdZ1+rkZk/Vk9OXpVR76sVuITX1r/GAW+aqxhrn7yruU2I8FBIH8npi5Dwy0WYgyP3Z+3wY/fXm7/pA+vHfONlC9AT7x6yned1r8CGEge4TKcZjlM78eSzy6AcUljnW6jbZbyb5pOXvNp1GPvqyXg2Ca4i4EEXaP46ChQLQE7xGDWZVSjAo2B9Pou5PRnPYjP/uHSkE/6YdkAzJrnrEaQuASUQTAaIk8mnH4+vNuYucfPv/60dbWmp+TpFjPD/K9a/u0wM/dIcan8QG0j5gDmHgXB2JySy8phws+WaLWli9Fvr95PCdX8U/hQzcJC0yPHy1rFXvA3Yml0ww3Pxc58h2BO0Wf/+z/lqBbxH0bqh4faofUwnIZp6WXr683m1s9+TEwiicjEC9weESx56//PMU3efg0fUhuXkdgQVvaAUCfwq8SyZXhNq83wJT6EVGMMqp7Ph2i6qFgw89Ut8vAzATGwfDMUq/nst87zxN0yeysR9Nilaqnx1T3ElxVMWJPk+06dZtgr0DlYb5s04MO2R/PFe1SEwX8wNAjHBhUU+I+wYgL5aGrt67Pr9XFMy+SGzxfv+/zCkp5QBkbT2tsvwkkBhrK0pxSdh0AQ4gtREdac+j41b/qb+38ybaa5q2FmK/6cp7s1R/79/ZVlT76s3QZEQdImO2wBGmB79QMw+T+fH4zsYWPtnVFmh4+rrhQDHULPz3m87/9zVOVJdYuAOUke7eIrsguenr5bpHKOf5iuNh9j7ETW/JqCiWKjBDGgLHGHYhcW15Gs8mUcwqHKxY4pIdPp2Pfu86J9aIlmKeJjwTjGGlBQ0CatI4tfbk02CWd1v0ecjd3ZFfK7G10mLA252lKt+P0opN/g0/thm1LX879F8hjgEQao6x+5FL9+YE+Rlxa48z77a6IaVodlvHbMaU60mLaG1FOdO0WWAEdSAURUsIubkbBKGoMFKzi1/TH9hc78WH4WOqVCMznP3/65ZLg7aZf1npcdHpodydtRKWIBNumB3tXc2DCADymOdZK4V6F0wk/mqen016bL5+DHFvfB4eI5C2s6W0MRDWHwMG8lLF/fbbtYp3TAUsXHMnMuhqVNX2IB5PgAAGbUo7YxyAiiS90h24Rq0EMhapZKKZ4HyU1zStTHTsQk2HAMMVbBz//cP2uXaGc/NZTheKCYJ7z3D7UGJoCxYi1TQ/6Q/5lK7ohNvv61PoR6L3Fh25GBbd0um/zl+WXPT3V/ulET/f/7zWd/CFtH/zD+M1YekxP+XL1EBPcBcCNQwCkLmBh5q4+PFBStyWRjIGfy+f+c0tzFCU1SNPoEB8ebu+HgMP0OG6H8plHqt0CxhS6+zZPlw0pmLtl6Mzx3I+g3oWWtDl7+py/VXcpCRHqbg4YT+urTngMGYCCDKGo5Gzj+SW2XeWqvZyPm5XUVMNg5gU/HE7l1g8yYhn5ZF0P4MCdTpOOXRQ5WuxUSBGnKM0aoXhOjA1NxGOUwVMYTfB0xn0bICNnhoY3WUtXNywl+SHNfTg6Bz6OKfu/X//6zjo8uiwrlWOk9+v8ZTQZkMLZf9H4zG8HPtoxPcd/Ov7v9y9F09n+B/7dfg37ZivMD5e7TU7aEbo7hiQp153cIjnTUMDgoFPB3hT/dJ/X6x1nqpTGwPiod+eyyOuhTOYLDZQO+TFehVRLTnFrMvFNnKIMA04KmM86pKMOLMGpHBq4gjVJSwyxHtg8QFwvdWKn1gjNzZjcJqfp3KMoQdAPzbaNufBWH2yPKwyR8Djff7egQDbyUvp24xjDkLSS1ubsxDwA5hAtLvzaShMbNE1kiW/tlMbdQEhrXEu2Cx+JO5P5rsPnaah7QIgJ/BjQkQiB6siTfl5+3607Jh88hSzHou/hSxPf2/nx8fIvuKy5vx4P6d7npz9e/sX/z/Jftn8//e22nHp93dJL7UnVCbNIhsMNAHD22jI1zOorH0OAwE/pqur4nz76uVYA0bxiD+dHvb3XFbeKOdsBSUbEblOyYcFHDvF8XGv6MbzX1A9F4OgWn1PXrqANUgyRPxqzYx8e5gnd0O/2/xMEp0uTZEdiWH25Wyy5fEtVdwMDcAjSSEoymfRL7/8MMpNkJmo4MxhguruqviUzI+Ku7q5zgknighipNVQdIOA4hNqmkJUG2sSi1puXlB7v85TdyXrax2V9vAUGGmJ+vdTHY/gUtHqHoZcBimHRRs4hyPn6fmNBrBJn10jlElH3igD3bXntnf3IX+fN9ft+oLM0j97NSQ+RqB8DHIUySFxai/9620YxF1SUvLMRfdYZkPIjTOfPd/e89GMvwYNafC4/6M/6I12hDNZ8dO+cmScdxjE0gNo59kweRZxrEthW6NK6OD/TW/eM/yiVmgAhwrmNsIrYURbXsq1hPAxlEOq6jJsJkGFw4Wiavuq9h5LNATrwf/qy/V4MsVXwwfvt4AR1ACr4AIIoQAoynfbq170qABFkmTxz06BDQGEw+Uu/jS/yoQjmukWPtbkU9Y5KTFbCK9WtiouBNiYUo9qR0ov7HMTEdlqOe5H1Uj/LxBgAzU1t00hQKse2T5ehv/QPWeC9Ggul0QxN0UeEsY3gAFo3Zr4O+/PxTW3gDLlRQO1T1CA8t1Krhay8hrqpklvgpuewsyPPXA26cunkkJDjdMiw1TYEgKv86I4JwXfx3qwQd0PsKGox4v+83ZuGaeoUIGtqOZiycyQ1jmZDiVnx6vquowMohFB0oSpkoI1WEeuv/8f4t+8P8JwNOJ3s3vTkbt2zIE1QChuwidmkel6/Z7V0hlZKmBp586K6/PHz3y3AAo3S8dYpBRiizmUJ7GmDiOp8tdXrR4bgKLbCXIQbYJjO7od4dOEM3WyvePK7yJiiWD+Fo7IfZaCb8sNPdHb7XZ54Y2hqoSubGcWkZTT1HlsbpuBmj7/EvyoftsJ9QHA24qyuwSSMnwVAMZE1XWqZnj7vX9a3qUuY7A1Oz9Pts5S4jnry/GhAE+fhWVb8bKDOobfhnNZqDEitmgH5Bf/zvm94vfIBcJCHXVlc0sGuDwADgTCzqFzStjcFGcETGjYzYLXJd4W+vsDjGEZUiS0tOQ8jZxJDp/Qk20PGACAEV+AZ7t1wfqVbAQDyjEvK5fqnv34T6oDzNX+MqddlVBSMMgAIRSOj8+1hy3Jsg9hd5KbOEKXBtEY5OjuKF8ic8v0IJ08irjV6Pn1rcPKfm9C0bh8Q/ERDHzgZkaICeuiswwesVVRtat10GM0TzddvB2VbaZMBzjsgskEeXbhJcE10gPClPNwk9NX/1rHZH+kHLgQZ276+7H2Go5JDUjUmCKf+kW3xoEooptINhHUAqPOEP9du81NXGaSDxuAh/jQaT/1hCa1JAKYAYZZtqNgx6TBjx808+NdjS9ydCQwDdJUCge3CpJgsTHeZzlKKtg7GAXVXBkOKy4o/No8QPE9fv8CP7/FeumTgBTcOz/x5qBmCM8YuSDbCRNR24QRVxfwiWdGn0A+bl5EzeaZTLIUXgk1oPg8H38uXn+Nff/Q0DUOFSX7TyflQSqNX6sbYqp+1EBwWAx9NZDjnsFvD4MCd3ncHfbqUrZmfZv9p3Dyzn44wsnQzheCtIsLyIh8H+8Yv7OK/7TArnnijBHtNfli16IbSi3084nM8qjgE6UPHEGayailmPA1OTy53xcB5VAnUMYqgQ8TIvVsYJuiSWaEwxtCqaOy5i/fBCUyV54PK4AFeh2MYd+GkLprxVlxwUHkIEztrNJpiCoCEeHSK6l6xfflv//w/1o/OpS2uZphrvVw/qyM7yIOlIUidIpDz+0BpzgydqKJPU63krdbhE7llrp+Q/GwbPdEwqvJ83h5HxgSDuWTp4DFZg8HLrKqggkEb0WOnxTeBXi1cfYrboUXj+XYEd+h/mH69w+la3aOzooMlWs51mBlDTM1UbEJvD+9CI49aKySs3mlKUlpajkePC2VxmA2WxX8IKaiNoQbABNIVAPEMFJiQcppaky7hJLmDIIILKCO4uWqSsGwPYqvgcnEMXljEJ1+yn+Xrn/+Nfq9BWzcfTMem5NkxjCFqQDicQ4OIeYRk26BIAGrWLcZr+shfLn/X9SFUNK37pz9t23wa2T3RezPBCZBX3ovo9PpR4hieaUg3Y26WJpJSjZiHnZ7pNzc3PsMcb2zstYC42pDzgy/8ubEaR9DULUwqXiwMFE34uOmSmviSNaU0zeVobU+/3O8h3tp/+unffofL5Z4HEGqY3QbNdYEhHNgXcNJjlD6Armi22XyUdL23gEQ2MJ223YKPUlAOW7zDkuw+HI4u3gWUATAaMH4dyoMmYupKwygtxR6gVGketfkl0oeb8Zq+57N8B4e9RZzW1jrFtFdj1ud//F4enbk9dHbNqAjwhKa9E6MaiIugAgrCzrUCNPcBwKh2eioYnh/fogu5tIGMlZZeAWPzL/7zPpSZwF3Wx9Zt/en2gUDRcAwBYy14Ppdc1YchHS+T7JcvRSfFByXBKdzfXSISfrzJhX80QvNkGEx8FPVmE0rlRWsdPlAdUi0G1NQMS3a/5DcX9/ann3/95tepNoAG6J7l105BOGAPz7+SdSAgF3oTYA9Y/Zw390e5eeuNRdJVDiMXrKAVDBMCobUhMMSQPdWGLMaIf2qDpMB0qVmnBEzl8vr9h44R53vFs5/7zYS+XL7f2VeHtcOZ/M/19pAQtpEcd7uAbpC8fvaogif5tJjU2hguetTekci6JmtsA4Tc3Jpg4NgswPMJvu+Cz1pKN3SdqAGQ1TAv41EpRGttWnpRd32Sb3cEbwAEqOgyncOjABoTtngdD3p+0hwN3oTx+hLey8Dps5++vdE0HuimoKW6ic26D8E00ChIhFQohiZZxJN24sl/Vv+a33DSfPrl+MEBmQFLc8i2N2ImSgH5hxiSwzbP49jRARBF6IJf+OCuldzdAlnHSCPNcpByIssp3Td0GkY1MlH1EwL+WSHsmchZa5fnXoHJH5W1GLZBE62z1k95fvr3gitDy+bOkc6135qYYQSkYQE3mtm32zKGetwthuZKB0o0MZbaUYG9KMrAAXHNoxu5k2TvwDttAgt3/unH2zAf8ODn+06TBC0unkvb8Uu9c0wT9h+NSZU9OA/YXeilEyrHKDDX3S1RxWbOzYdwiXW03d3L9HbzXvqYnqa9lejRep1DIBbD2sdw3DSF6qQa0gCxdHns6aW/tYkK/8S3Shj9AwzBSRdzPoaHrK2YgZvmZsHyZiHIID2FLWMgDy1GhPcKiB0Tazytj7rjCYak6ZGFGo3gSaoYTwz4i6f5UBiNpfrE1qUNNzn/6EooNHhaykNf/vBvBxDCAI4rgiPb7851NkvnR5vsEwP4WDyUqq6pR5prVggaV7aRM6IhQDNWA2KzDgzsPaANBAhgNj9/+dffC8FZ8+vlxw3AdPWf+qeSR7weH1OMH/h0O9CGRQ+TG0SOPioTAcXJ3wxZB2FzJ+844TF5urXRxY3PbbBHjpN2ZlYlrMIppdK0get1KBADu24iANgo6fAeXR0+y2XOG6To3hGSDlFDP8f0GJoRwNl0+mzRPwSDjBFtmfYPCG7ufZ5Z79nQxAIxv6w/hrIJNiPSAU1gCdbVmnoe+BXBR/Q+Uy/iewbSlpKqWQceQAOddXo+/d6VeCD7r+mjBpPavvzx93fBtN77ZXwaEzgWGsX5bM5SKqMqQzq7uNx/Z314P7oi+HN67GLgAfG1b2ZhsMcu08/64yZApHyZx0N05PPPfy9/Od7tGo5y7undn3Plo4JPMVKh9TK+Na+OC02012VuilaXZyqrjRb1x4PPIiyfm8bAIbg6iMBBiMenrZ5t9BxX3Q/DwcGhWhvKnNWBgoUrf2Kr80r18BNmx1PeFFFCohBrNu3oDLmBqPkgWfzisg9vLrgVuxFoaw0YITrjFyy1xaYuKwIwluYXVJExDEDw1VSmeGJL909NXRVxDPYOJCsqEhoQxtXlu0QUkOtP7Xuhgaav/8v4P3sPadd5VGAjsk7UfcoGNFGjVsH8tHarldwBkxTq5l+uv32ad2QQ/vjbh0UXX76pGM7SUAoyOlam9dhamHb+h/c8AkuY7655brbC9x6vMxwbv77W70pqboSl1jF5makeT1/WRzEvMj5qej5aznt1KaEFp4d4njtNPctkamWwC5oVenMpYB+9URoZCVQZp3NuvdDzUrdxioWIa840i/jqT7Wm0Q0YVLwMnJ/y0Sytj7S+m/EKFVO9C6n6aEtS8ZlLm1jtgCDgqR/A3mmWmbaG+CJi0xIB+tbgtEIHwuojjbIBFAmOTJcXyPbZOFotF18tK5Dx8vyf/5/P6lylqB3dQAfNDJxPJYcYfW2PopTWspPrkV1CkPfmQtw6nxJog/nRlNP5+u8HEjH3sO6fiG7pj/U6jjYaxtSbgvPh/NGRxxEuz7/dlqcoHwc9L2UDxqHLF/roaDA/+W/b9edz/ZFPXmsNQW9y5K1AWrmLT9o0xp3XLi7Whrm6KY6doJq4E+212xKxa/M4eOgzb8N6uvjyfXrK6rvIzj/1GxY/AQNBG0Gq+mgVWH01TJ4oOx7WLT33twzIniDxBGWDREnV37sbEp0UMY664aS1Aq5GNJ/CqPWo7rKCcivpdat2jORbJgdmL86dy19tTPaoESg0NRB+wl/qrzmAItsAVCAPXYjC3HZzM1XODwAHKNEPABdCO7J4NDAKNohJB+LkZ/qWKSgZ8Et6v3efIPfwE73nKf0wNpUYaWqD8ehpXe/3GAB684t2QQ+mP//0+ET+wX/60t+yPvlD2yUYg3YRKPdve1h4aHVP/iGTPxbOBth7HI2nhL22CsSEVdxC8wrSGO91lHSqHXXgdf7WztHaYST4XHZXp69uy74XceqU02X7Pjzx0ntU6eeX49uxxsDjfZD3BqGt05bDKsRp+Xy0gYgm4kktu6VwLXghQh9MKjlIcfTu9EFXn3U0//wFfz9KXn/Zvv63f/+/64GkCLjy0ZmVv45y/iyxGBiYggJ7G2Sc1KyCF5vkQGjA/mSPjkCpVEQPhIOtKLqTFQqzUGk4QIwA0qyjAnA96Iy3+aRbA0NzZM6zx8+WQoCbeBDgxE05sqlez30gP+JPT7c9Py40EF4I5vo44qo/Pj8xsDTrbsI2plObJbvWGgYbPnhftq7gwj7w6TLxzI9acjjKUtsKnYJ8+jMXfnF/zw5ZnQ02fpWsLt9Bw2X3bmn34eR6KreuXk+v9286OcH5TVBddNgmuJFX584XexQBqyLoHFYb/MfNTT/wjyaaDNsDvj7L0UG7iL+ktlU4XX/Sf/pQXK7wi/73e5qPCoTz5G45+BFf98+fa423hmAKQF5VBJFjQdfVH/CM28BinBbJ1Kv5AT4ooiiKEEHUEQwUSpiHUgcVUvORh5hB6/7UFa2Tb6RK5D3fuvMnfxTr5AlBwKNLTby7YHcxRDiqHTqnOp68W/t+O0jfNDgeXbpG7qLLSXUQ7KpCwRkF97kL4pTeOkzz86X07dHBcPpib0VxSfF+Iw90Xd8aigUx3zHGHqBtDwFehrkT3TVaWutHxtOUwscdQ1CbNoPOi6FArwAYYPHoH9gMVDGyZhs9+Xn9xC/gXuRwt0f4JTwyMCJhmsuP3RsBAAAgAElEQVRj41UQy+gc8Mt/bf/fjxqnXm25XB+Pg3Tw/Ny/r1MqtXakauzmsO/CZFGQ2uBKX+GzYS9wWkCg14EI67QjKAy1JTId2RRAbGVDq2FUU/aJyvCzPfr59FE8CsaqbNZxxbtwmgJBO8Lp0VU8CkVUjpczjQC+W7r87SOkUsPaV3e8HVhzWG3waFvzUTWcY881YlZVDqTKeOSB4fr17b15nr1CHcoA8QnfMvR4vRzvHQzSHHY1cB154Onk8XYrQ1Q9qH+G79MZ91f+2yOdvsTPe+2QEhkF3DANGTYEEHn4GNPR9uQR1VXtQwXoQg3/vM/Po9RCsSEVnvQwSv42KPlDQLwZ88t/lb/+raV4dFpO7niMZRzOn+Pf45f1V/f8flAzpGXNHzRBIQ7ShiOImpXHbtdzH9BrjRFjOIiURMKE2PdjkDE4b9aVT1tm9qIsg8ksfJHfBrGqB5rm/cMWLOqmicMoY5o/oIt3vfh1xEm/fNnIEPo0/Xpv7MlPd7bSRHed13ww1NzQM8WnUbuhSisaPQBTGd0Apl/c7zf/TA2jOX10NAYBZ2OerDbATo66CQAsCsFHV6XtYwCgUlrsMTuVSB99Oi3L930cllaDNI2bMsDAQTooQpufxmfG0wWKSBUxEefWa8X/aSND3waJYDBKt+xwnEJXqcOHgcm9y/yX5V/eIUhRjg790WeshO58xzXe3Ut5K4iqiaXHSz+MSHNPJ2uiLWLF2RRT2+u8SneIMDyoU4TWCzj14OsAG5f5UyJJHY7EWdH1S3sTJRRwaV4f33tYbUxpQnc7uosAVeNU2nwyDC28WLOURrk1pGrTkvLDurnjodOpVemjC6VgeBl7Z7SRC0eAQIhSRIzP/sh0fUo1D5w+b4G7ehe4KHYkch2wG6giLzrzXp2s634vhkDBLykzFrQcSAO7Uls3d8Y9udoJu7cJQs6D1+rPfW/+emo3wqMaS53W+VLwf9VhprmQc9pjxId66V9140ND9IXg53/lL3LeP+GBKmwh+NEDNI88NKVhKsuxEzQfrFJcpDkhPcQl18ybIZgODEFsD2urnRwjtD4McUAAY+fz5miMs88w4dZwjujvmy1P+lbABdEYlNuu6Qx9IRHo1nRGrTCn6r/O7aMjx3NqLFpzSc/fdx+fSoGq7nj0sIY6cgegZdU+HzcLA61JIEMEjnAcZn5Z9o2WP13zj6yu7gtXQ6dtBKsIxMxWnXYl8halteDjq/7IAw0dnab3+NKl2lTfbTbsIkoBGkKLpEK8eLj14LlMX8ZnD1d3y0776B76FMMq+L9N/LjVoss5feIVNsuqMkdZb8q5UxAKtNT4Hf78/W4NYmjp530DGLa2coEKvgFiOhq7rsRE7AbrJp6HTxGPh/dCpBrnBxNANnah7I1AADShIbkqpEg2cH16PAwBL35vR3jWz84cRqYY475DmkeKe+6IUSSZa+adnn6h41umGJ+WliF4vOH69h5cmrec3MdhnZ6mex6DnaULNclHd0oK/pwHdnA4DKwrJ8rh8hyc+9t3dD6pUW1Fg6feO7ngHKyPT2AzNWaMFJ62DFKHUwg+L/N1vBFsCuypQ+6OVNAgqBIknz2WeZWenvX9s19PD42tCQijBB89/td1eX+TIctXu0cPbstSKSX6suVbDb6heB/2NBpiBTqmpfvT5xa4SAILCh2juUl36CTGUEPydYyqE495dWPbwBsoQkwWpRH4DnHrAMGNYwxioQQw9Dp93sLP7rtgr9PXUqghF8WgGLbADkvXsC7wbUStEFkhpNHFTctJjk0ThSsP9JFyBv7Wovi01S/ya/amp3XbzcRRTII6tgIIDP5aCqgFHHFq9wM9uYuT+rS8veEUYSBxzjyr2VHJEYf1j/mfSlAxInTOTq+/3i/02ZIBSFh17tW6hWbemD4aE5mCGcrkHGR7ajU6f3b5xw3mxWgaD3UNqbPzE/4FeRRFd8H3HNQmTHxoGgg569Py4w4ICdjzuIdp8t9oCv6WiUi9qrE6p1ELdwzFnIqYX6wYdRBcQrSxd2LJEvzMfsofPBvzXqagPrVHHQADV24H/BR/f7y+vG0EHb+cfy1pPT4hkafu8fmz4WjL6te333jWBp4bLn7AWM59BG1pBlxYQhiti44PowXaobEdjbDHZ21QD0uJQcc4hqJF7AjEBGHuPNmvGxJMK2/1CfdKF98MIdadkwwDgNE5hDPsWZ3aQjs6mc/7h5BICorBr9ayLzsFURWHWbwjEITOcj5to9FaBkd0i/5eicJk5otO7eGRxgj4vz8OM/QTbAVILXoT34Cg3f1TyEdnguadF/OzgrvhEvUtuR3opT2c2umplrDtjB0sulbJz61SbNj1HKSP7Ndp3CqGa9xHPtZTd/73cnlujc1GifgppwlHZyttdqUj2HV+FHNX+QEuhIA2fv7xsIE/LTV/75xojIgdYlCZklNl9qeJfCgVUrsRjPzwief7vZmKGAg9TaKfnScaQ6QrCtBkRZFV42kuuYVxAANP7iiTd0dO6yq1aR0UnI456JEtzLO00QF4do+2zEyy7QCCLoSnOkLtlg/wpCBKitGBEaYBlXxRM3OBno56KjdljOejL20w7xB7V4d/KaPZtNKtGpK6IUM8qnhyc3oc5mdfmqjj4S75iNBjs+IpUF/83TcfAhWUCqoIPslGzNY0kfmCUzYn/hzrrZNfTu830LQa4H1zP/NvE5qViHc46XnS32WtGQwnB3EvvuIqOtws4VzfvVQUH02PYTg5FQeCzMovrgoEDGuK3h27nvst2P6AM25RPitbbkCG03n0Hf1q+x2dmRqRgAKBdE5LrwJs6AE8bJ2WK/1o57UqHJk4Tjqc01psQrTibAzPU5aX134vGI+7YJxoOnC6t6jFjAO7DRSn0MU0eK7ZcVFUWeJZB78fk4PIh0TttkLzWw+MMwRKwY29o4diRkNNMcZ44r4NX+vpH25/4wRKpG3O6geYxpDo0xGQ56Nr8rSpU/K+ZJxGJ5qWXMqYjCdXOW6FVudi2Zx1aOzCKCf85kIT785tuA++yme4yI/hGC/z/hGtmlePGA6J0r0IkpKxkg7PDCjDezJ+mkvVEBDDOWhvMJFB/w5X195pHOLHvQICLqFCHDRReRixDeRRDYCpN4jBT+4OXsAF2A4Bv1xvdbXqlmMPXoNvnWnU5IuMTn4MCwTx6bwXqTO8FZqChJHa7phlDL+68+0x3BU2G40dGyx6lwndUlmRbp2dMWojL+48Dj3AeTwR8eJRdsHo7gOdZOFpNkhLzkwf5fUP8Nd9Il4fzus7eaCREJ7Cv+f1QvuoPaA5UHSsvUqMR/M+0uNgTC54e6gblePkpaDn2nYO19T60RzuOOk0b72d1+2GM+wiBPNUhIvwuMTWpQOZ8VAwCqYu9AbkiAR9tOIvU28QJxT/9dQ+K9H8PP7+Y3oJ7VvN1ftxP4AoXrSoKE1fr/dfd3RoNHo3Bh3CcQJyNPPvXS7XLu9Z3NdeohWYnXrJioFHpbP/aGMAAlOQTusV7sTVufvBqcMlU5MvqlJhKTz1fUAgse6sU7i2o8ar0pEXJ7UJO1By1sGe1s+9j9l5/AN1cd5ZHurXXixnnc5oFJjGgCPT8nX++90hfBWhR/HAXlLbIra0pq2rKrKocWTgfMBiD/ABa6U0MbneOxLsjVwSYZ55bMU/e/d5nJf8A2KDk9/gdd72XVBJwDg0wgx4/U/3v4oy2UAxBHVL7YGHAqjzaYm6Fxcoen9iVnda4fuj9fAVfwOWuP72TXSO43aIP5/ifcvCPv7DHz7+xyekKfbSG7L1qhy8Cl+e6e2tXV6v9M/3Fp5GZ2dqKbVbG3Q+ux0Wu20VSMCd53sI3h4Gip0PW/zGL9T28dMi2w7LJ/FQNg1eK6gmH0qBBBVNLvGjgLkAQpEf6ryN0fjkCP8xV/QhaG4DJ2qtwDSzdAvXeifNjtsvL+87WLvQHS0nz+E+QEl1ibFUBPPU26DkCHMhDwI+1mLTGvFoMODitlw6OAMKS8R+t9n7fVvO+VDfh48WWiGqBuav4wOcufQY1/9w/r++IYdwDCfqyUKqDdnZcN14eX0pb8UkrinMNngJK76VvaxfdT/d/sVe6449wVZ7jX94Km/Hpm6GlOq9w3l5uf8YYtD7MHY6XEjL0rbb9XKFfy4tnXbnMYiMfgzh5eJnHuU4yjBUnFKTeD1tmwyCB4J3vdOUsLsp2aMYZ2ADlw5YoDQGjw18B9QgT6ePN2JB70iY3/DMbwOIYkj4tXDwARXuNdgApHjGAsrA24FCs5Nf+P0Y5tw4kHCai893m6HD2RQ7sMTeGVXNwTBC9gAqSBwJjuZU19jaPojaoJBmarUmZ7ZDYkck0oZPslf2ABK/9rdmq2md/wiP38Sz2QADdo6cqxKBi62Wu3v60/rXT40X380NcecTp5D/3l5ClvB+q+Cljpl66w2er/aodYRkCqOrP4U/bv+6BRE1VUdN1tDcpGDOL9PbAxVGYKKBUKppeAmNz/qxDxM1cDMdMF1irkUWu2X01sgFckyebGPs5pZxk1OrEwk4FMK7B39+3j7+XH4UMCYJp43sQS/j9+Y8+7888JUik1bvdrStxtPMDMYwdhLILS4YGbZtTJz6O0YGbbPmQNTslbcqSMQVkuu5kkd0XbwHAT8fhc15rTYh9AqTvzeMk9dhFdViF3YhqUofaMLoXW4WE5UDp9Lmn/y/2cAUsnIX8t6bkIXrlkt8gZw5TK+3u3u+9ve2TG64dadzeP8xa6mn2O+V691PCq0NC56tjbA6zcK9Mbkv47dMCuitqYILog5N/bLGeDygqQ5OkBuTqvonFErtA0lkyEkNq1vJiFqf7DPHNIYAk1cJwJbGLb6e378RAU0o0AAsabPpS/pGVMm1jaH44LF2o1E7B/H/5RN/iay9Vg/gdXPr1ZeDrr58b3OsLfplP8L54w5PLcA7MWmRhcbJiLP51qKUhBZAtWcKBKfagAJUfc6VxlO6Z0ogvdHFb7vFKxSx4cB0kFfzhAYCXcJCQypqD6GqCqxf/62T0fX01l2r/jIf+/DIoXXF6F3BlJwNmpd2wyVOiWf5/Ujlxirxa3/AHLfPWA7y7RjokcfwJ5SuGJoUYytAQ13C1sV7MAM1cNPKZlkp2GEJH4V9ojKmJSqWbzyLVfrLtz0VNgSK3hhvIyz4OQCNAYA4jV74Od13JsKwXm5/s4nW0LMl60VdsFqXcJjhZZRaSRQBcJrw9TS9bwRmGj1eF2jQxcN7i9N4wDWM+DH98q83eRWt3cBhBTZambSoEIsJg2dR80Ku6MWpFCCp57Md5cXfizkVKbrM9Rjh2T2O7sIsBcBLUXZsGBZ8jCJhmtu9J6KKcLUPxjL/pNu2xBuewnFQ7MLWDShRd9PSAjtBGMwxOZjj51sToEJLtF3Sc7lveaS1flqwTmYSyIjQa3wczaFZM0DPXZkJB4IgT1YdKmCU4hzXKulpvWVallrqBjgA5j+Xh283Bw1DZLSqvIT3zqdeTIzZdWPwoebZlzr95ed/+qf5mnBrtOm53SzMnOmkGa1E73sZrnVFcgFfT+6tRh7YLk5Pc86rbrlHDuWh7gVuT08u/vdPC57aMHWuiUcMNkTY6DS5B5cBprRipeGuXNre3Jz5qZdxdbn6uIvPOwYExJS2LC74rieX3j8EQ0B+Su2xV8PpfNq+05QyfW33VkkSSKbT0muaWXWMjuExHIY0DAjD6eUxcKQW18g2CmZxJQ+H89j4Wt83hbBC5fP9hogNQdzkBddx9Og+OnQA55w6VxUm91B98r/xjD0PYr+GIupP18+HxAW5fPbRjOP1fAp/fY+8VTcHURuYVnrPL9N21B4cKSUawdoCN/n6j9u/lPVJ8oM1S1AxXqAllIY4NMTODo4yFOeAPzvcBzkwXLxS0ja6aIyIWyl0Xo/wnOSfKoIXEELnDjj3skCRMSGlVT9okzCaLi89Y1jHDXplp861BkvqPZ2O7upDCJdp1CSdiLT6dTn/7UOVMLIfUd7RYYhes6VO65//+s3O6VszVE9xzv46c82j6nxrzqVL23qK4XK9bW2cC/18EqHaR9R3Ul2fPt8l9jdD5XiamqsfGbGZqpvS4Nk6Wt3IGQ1JiM/u7ZYWd2vo3aGrH4/CiajB+QJN697iZfFbK30Ydvf6Hx//0hz0zok7LGjg3fu+rthzmVzXlaFyqtLZv7z8v4/oA8ox1NTAo+Dk+BgqhCMwR+k2mlry+A/DuhKIe3JOOtE4xDtPUDv3bbp0H+cfDxkcqGWa01G8Dz2BdEhWaB436saOOAXovVnXxKZtsCmym6DzKeTcpapbU1euHLs1YF6g9S5WVxTHUoQwogGQbLY8v+2v//Dxt8YMjpyW558dVePPu6hSIObuzsxx2t9LeFH8Opfovh/AWc48nN0Hj/uGTolO1z2n207aFYCnJYTaxOUeVM+2S6TLi3x7w8VthwFB5ziaEIMhzSfXiuYWl1mlQ1PqmS+vt9/BL76oCJ6v2mAch0ye0MT5aifSDdZ6lzNBvHnMgax1M0Mm1/lqvRU0YEQMlnXi1oQD/pdcBZ3wZe5FcIABkanDIif9dTlxPPygj+IjTA8AGBIb/Myy99U/WqxZV1/qFM7+Dr3BMIjJ5doAIACl0On8fLs3KW1+0oHtMS+9kiuYyLqpjGXNw9CwymkU8GSSiRVWtKKKOode9PoTVGDctmoAbObSch6VT7bXy5/8DSIwvN9cqP4C23Yguro3CYga49anOrgJyaBriOfPUmjoshxiZgwR/Ti6eTgoqQwT9M1AbAldI09RH5vMgYp25Nr8ifNgSZO0vaxfl2F4z0VCbOSjqYEj6loB1EUAGsXTMSY/DmWGc+0rVDXGAWTG2DU42DrM+J9HYwA3m1ETHSTOu3tzcwvz7f05EGlrbPuFdxpALo7jSC/xfgA4yzzMPb1+f1e8TNsODEbEoKIqDKwwR4SUSu6j43TOhq33k9sJCjOputrpcv0snlrK++SzRZuWR+869wMWoFVi/xSXnmBDcOG9KZASY3r2o8ULwfjlK/xti5V8/oBgPELZUCl9HIKRrSJn9GYwYviofAk6bdK7zuj9YSjE0IJX6T48+Kw3mqQAx3zAMrVKPJHRLU+pC0OXYXHVQeHuTlqPev1DPApm7FmcxZSgmo1IAFuNnolwZFgeR3p+zX/ri7PX49P6iGfoBo76AAIg643P+OchYQ7h2LyH0di6S5A7TSP19zYtEPh+nJf3s/8UNnJXvDNblinWm1Ql9cs1/XNmxw1f2k05ujGMsZMCoY+OIE23u/oTYPGjYX62Cr0RhkbYBOczWC7NTXuNHrG4q+Ua/rT/VShcXmHLG3FJzwfH6P9+GDFNoeN54gJzcuYvXJm3x9QOGkftAfAnubuPT4DAQ0UkBCjDXd37QcG5URTFIuOaNjQxIaXYKxucp/zNVn9vl+l+4JKkdQADU1xCV4BDHPs0kKDA1CjV9Gr32omsdNLgOeojOMAB8ZATHhxqmf3vuj5P598/cR1QShscnrEZRBtDJs5Np2k948+jz7/Q+NwDxS5OkBG1ymyj7mTh7LDeZ9jdgJN/cLi2QqFvU4ww+la6BcZfvn8AAaaf8J4LeGQRJhrOKZDj6P3tTueTFvX5MUGoItbY+4ezqmnq85d8HMcsJcSY7xYBKIV92AhxOW2PyUq2r6GzytYRgcIMPC0wlGZASgOelnLoNuJ+q5gcP8Ovh2xgDkFbjdHBo83e6W7IqWR2SjHM6kYfNS4mD2ChphOM2hIrrg0HJI+lGPreAdzsSm1KbvV5pIRNZbgZerRiyOC7WB2E4WQDlMfwE4T2ZgEnp3tZwramklEti3mjE4hZAlFKx979+frs8Weol59a/eyBImrXAGJjwNn2bmbXpzvKLpUAorPmox2I4KMUihh20QFFX/1vxghheloftz6EaLAHd75lRHRP4XYz76eE9ajo3VAQyZwilFHMJRdfqT8Kxq2jOzrRcIFbpKqT+aVs81wOfY2foCKmhoinkPyqSgmVHbbMJ1/vfjTdmr/8If37/msjGOYXuVVcnPpHiaSogERjAE/MicsJv+mY/oHeHwdEzB2RQZhmkmNx1a+x7BroGASDRKWzpdP0yBzIrNMwVLdKpzjN9VFaB3PrZRdno/SvaOPmVwvNoPRIMvVRi9POUZWZzBwRg7Z9pOl8DfhH0PMi+RODY5OuYNA5NLTqoqSv/s1ENGPlOQMnKl6lkaMqLA5oCnA7eL4reGKkK6k+dojq2M7xb90hxNXfCqDOM20bRRl+CZpHCWl+r4IGYQrYEIhk2LjxpBL+f4LgZFfXLE0M8tuttb7mb/bep4kmMyIrMysrXWXLCIO4A8QMmCH5DrgMJCaMPIQ7AC4CJMTIAyNhl7FdVelsIyLjNHvvv/matdbb8DwOqZiRNDjEs35xevEhKmJeTRtJeuxlmlKHiSD6cFouztSsR35e5nl8/OH5opQ86Kyf2zCFDqsSBoQHDekeMkFiy8f2su7DmW69agaNdMIOMBislVOnr0/La8vUOjJg9HC2zOxNgxFYVwOav/SbHUav+2oInY4YNLKu6zEE7j6XK4j0xoU3YGugykXUMqFHBncFjyLHqeBXIGO2bYM09D2oROut5DUm5ZHm0pss9dRbVSvJqsl7vyGlsXlbQlDGh36Bsn6ChDJ2thybIikUG+E5OGNOoD0IcqkLkjf+Mmmr47OOaa0gEX44bGvKngDTy37gJjj3RIsNCk5l02/Pn5e98cC9Ca/w+O58acPhdL+DnPySxvVNfr5Xdz6+XorU1sFCS3Maud5kdkgdrAG1DjQW3EMSzUayc7127i7YlCF4FIL22G6N3EQyVnDAAGYaRm+U915R9p0FjuP9ps5fPm7bRqe1mpuAc9mIpqEsi2NObbepBwWRJukYnvqKmXMYGCJza4ghVKZRdvwZC2A11TRtW6SfpO+vmIRGvqWzW+tdhj7C3es2CKjCITcvMzXet0pj4hgAmP68Mqmen55XBzIKR5fkZoklIXqjTjMukPa9vO3mPb32ebrfcTji5nPSIB9bT7ehfIJEh05bpPGW2I+e39rlfus8ywrD4ypfHYbhHodT++hrOqPq1d4Pl+9aOh4+fxiGbbEorqI9ZILXng5PneD1YtgBgcugYlNm39IFv7y/mEeZ1ru4AQvt8U5vLoTT2Ld7QMpqpSQJPL+9/vGGab6vQvJI15tR/mLYbNnmMI9g4EIX5DgdX/c9n+VavTzAbQWGghsly21Pc5eku4ZMvFWXAClHpBv+6hxL72ZWyl7t/G37w12IHvmyzwe9tpbOb9e99OcFSzaLKFgpMwVKvleQR+1g5bh+ItnX8q6+RCARomk6SauIFCSGXvFhuittO44sZGK9sTUfJtC1iDgd+mU8r/d9R57oTlTK4b4T5HH0DWOpkjLgODc4y8MbQx1mjdfXgeXel/jq/e9+a/PxZdPo1H3sTbI1l9gaPPzVur59+V13IHJkoYGGnPG29vTtp0/kMI0XPCw7d6K6zxh0zLUh2gKQn2A1mene3n3z2x8bnL6+f+xpKG1tiOPD0e7aIBM0xo0TNAKaaLeg8/y5Ni2EeyUZY0fG0XfPSLPuFcrQvTdAFIqjNvyb9/J8U2/OjIqnaXuuIHPuW8752sZ7Pp+XD4CrzRTajOfe5tKayznfdhyzqrhDr8KmXPpGFiysPWRgtx4AnJpR0Gnc1G+aSqnyvq9wVcIYSEHFkiRrNhVdqrbpeK2JeJzb0jNKIWS5bcTzgUD2eiyH84EWPmS5qLZsS458vH//0qdG2wYOjGrFuqFZ7zB9qctXw9/fEIEAGIiTbMOR7jG8/fBZOUsuGXV53cej3RQJhlQrJUZvOowMmwuKRq+B05Nedi7SDLjG+c3wcStamPaAZpCErOTXOiQc0lqbDaDdRMS58zDavSaOnNoOY+/uGoi52OnS8ddPWJfVzXycdy8cy76PX1nTku63Mn2iudhLALyNz5XdscScGjZoWMRxaNpl0A6OZUqwVmOtSskVKbGiKhRmXYOnr/BaYwESasNPry9QA8mINAq0qeTXGGBROt37BLtChlPsRtmBS2K63yONUw6gng48fSmsBuNE16XBlg/28Tpua1qFVrRmUCO3yqRqCiiHTO+u3zkjWUjmLtopH4bmYLAP0tujxrz+2MYy+GVDKaiaz9m3tbOkQWsZ4tbBGCHnVoFzz64Vzye+t7LtMkSPBD4EtJE/c0YZky03TRm3HsNxLStTZl143uFU1yAHC3egTO2IN/xFVoK9g+JjudVccNv24y9vF0z2Yof5eRtmunfjeVmwgCef3l3XFB4ND9LRmnkm8MbTCF41BJYtmIldwDwAGArdOj5+u+8bSt8AKEvDat4dEJKpEEWmntKl5nd9obS1fFyZu4/cyWjgzrArl8OmmdIJ3v9FxWQrzWOul+ct0npdcn6039q8DfTqfFcCJTePcMB8bMPpxwWJFYaTt17JaBy703hQ3Ydyv8PX5Y+rrJx9JaEMmMfUlpakWyJAsL0jZYY8LVfgOdDWnh+OtijVG5cE9nj6iLHGMVyCCh/5/lwhp+UVx7ESTtrYes9J8t4JLChpC6beTqeOv9KuSUArvXVl8rjp/Dh8uDO2yqfyWnOm3mzer8hHC/ThsBZTw64ySOtuTixwx9MYbek0QPWGJGwpjAjCO3OjGEZI3d+/NrPCbcvR025AIdWHRFxDKcfGY2jCzaj0Q3m1YfDNS6k0oXI4RB50Pbz96VlwjDtwOcj2Z7XX31YceCx/WrGd5xvZtbKQtggHBvdh0GFZUAhSPuP13mjgToBpfDp/+hN/ydteHv+80bYRDxk5rAYIKRSuwgatOqIhHR8Ct8/MA1m0JlNuTS2CmMW/+Or/a7A9vbltkQ+DpsPt0wYFLltidOYBjFpzSSzWaNIVM4C7tqCqGCwAACAASURBVBgfBvxF9Io5R8epnt7fbu3l7T/99LxUhrrQmZd0XCzjLbUl0kBk7g7glHlzizwJdVPMciunMqT1h1sm9N1zhooQFCNbDaUHbEojy/yZwsn2PvPGbho0WLVHNl0qnU+vK6fjDgrR8Di/2ulwX4MZKOMEHlWPp+e1fPsXg8Bjc4xcqN5e7vb6uiHAcO1dh4c23i6NhmN9dYJIYgpPx/v94oT5QfWxjx+3h6eXRYJjHPdWh0e5al4i67XTG9HD/R4OvaUEIqfhclMsp/n+sck5gVYcZausuzzI3c3cmSXHw/jizc+pL/gUtFShfR/GfkVxVCImgo2UIh3rmo5471KI69ZRzjP+kttuSERs+9Oby23Y3v6T//A5ImDbhgE2Hvc2zZvDTXPySHCzpFqO3aLnPMDY2Tjxc0B+yOvnFW3QFuN4b4lVxye6gd7SiF7hcZ79uakEYkdH7eQtT6QLDVXWNj3AS3344nofl164JrI08ooqQJzpqJB20wn39I9+0rb8OEjfaIq9vnwSgtt3NuZ1t6xgj8uzdD7Yso3DDlPf9PSFv/5gRPms5W/609/9gd9O8KGpTV7HQ1tlWKzrMPY1nh7uWrcYZNlJMul4ut4hjYf3+JtnGibEtgv4jtqO71F700gNCgZ3eKxaFBze1A52c+TiLYBXIPE8Ol55B8xH6EFU21B4Wm7mNIz4S942ByDOXtOw+0PSfKudkiqWVG9tlDq+S6+33YbU8zl9WqHReL53n7+U7+sxP40fh+sSa7wZP3nEse1BCW40h/Uvc7tx62/0QhbjKeu+wJQK3bqJWY0OMBzHvd4G1YLN0psv/nSHZqU0BDrrLTENK86plC0d7x059/j5X9tGh0O5L1b6ti2b73D8/BolrT30sh2mG9cOo7TESyfQHqf31w9KFPPx7aE//eGHlH8x/6s7GJfF59iQ49DveJJdv3j/6aKtZmiIfOKbp56e+O7T+Kklx+R3A55aUzg9SrS+OW+UvUXu70Xu/bj2MjR8+LDIBPddUrluJJyeHm4Xv4XwlLsxbPsw51gjlKLgz3FtDgJcYIshgrIruCN753G6f9CpqDzCpWoItzjna2dAKKnpcbx1eniU1x/QZ1pqeqBd26G24MH6Ng1tf4PWd5WftQ/QFc/mvnJ5N26X15RTvyOrl+nt5YOc4pKCs+fjc6tGBAN5erxdBYdcfRimsg8Pz9tRAuL9z87zPh7Xxam3/cMSXdefyN8tmei4fn/R4Yv+ytrPJ1/WWP0wvuxylK3nstuYp6yfejr8Jf8/N5Ap3RqAZw50s/Npux2lplg71l6G+XDdAmh8f3p5AdsH2G3wCo6nWDqdSzhzx1tDzmGa8lN5neurnQi91A1Ha6sP7+6fO+f8+LOPW703BBFP0tc6n+O2p2IaGX+GTQ0Fg0NjhLBAYAxHRijj83MMs8VcX8V3TKRI5nlCZxWo7EFSfN0pDWicl3Ptmie76VCsGauXE9xe+fC4B+8XmEzBIR7m+75iGtpC5zZan5b+1X2pAJLBskZ1oVQMxvHzxlDKsTc5HbSMaz2BSrz/C45ynu5J99fbdt/2WrZIf7oEyDgun/vw2C9IOCesC23x8PTpmQuhzvPnDuWcXu9xmGzvYjztmysQCbYuLRVUTlL6SuQmaSqXHoYkWfZqB9jdUgM0Tri3dJRWyziVj6sz5vyS+b3G8PKSH6B7eEDoKV79yOuSUN4dY1tltUap51x7zxPULcaydcS/ALBODN2BCFzIIQFbj6m40WWPctwbhUXfgRJ5QD+cDXFrYtpybt0pFSSCcbgccGuONm9AlPsewUf+3GA81DJsL5oUKCJw9h0VSiw+T+fLQvX08HG11EMoYqTdOY2hkQgXxeGcqrX5PJwyAmyQTo8Psx8em6H35c9/1Ns64Hd3GvYVqY1DXX1kWJQnjq5hkk7+snMZdedqMuelewxUNU2ipqE9Ztx52JpjYJI80dpPuHWLOWnfOlrwHHY63K8Eg/XwUnrzKAfdICSZdoIx3RLFkJstpyHWHYTd+pTu+4itJ8e3Y9tojLq6aDp5a1G8t5jStjF+6+BBAKEmKVoSEDbIvpZcd4tQnvcK87CtexDmQZFSCdzUEqgSNQURCEzs4dk7iklWUwyBoNYxyGmOBqDBCkzcm4RCyLvbXadD3m8ArGGeFYHZB9KG07hoiVT2PSSxEslYhqexX+QxzeM3HOkpq64Lfve726d2ite2Y/LVuOPb/Oc4DvdnGBj7JiNu49v9B33z0/3DPYCF9iAOdOAgVaLJbjw4lG0lRCfJaQAvcXOoaRz6qh6OgumQ6uaWZW2e5wTtPr1bF91L6eComKNDvJXOWLS1yhKmNk668K7MHU/jFmMD2Xs2eJJrk6HvTgLNEH9i4U4QAoEEmhJnb23Mu5t5MO2GHceR9rUH4njMUnS9h1jkLcLUGVEDAnNpG4PEwD3MkTgjRm8Vs8dI0VrCXEMoVYVuzPL0UWHy5c3eiLyFjM1xKts25N0GaTGAZ2sceBwi73bG06T8QPAw/2frHjLXl2vBP7x8eNW2cqw6zsszOHw5fYoy24/KCmFTVhsP/Xk/vlna4hSIHkhkIU6ByWqC5mkK6duOEHRocR5XOlRlIpG+KAQoHcYtkW61uxPg+Ij36+GxrQtkQsx2tzGap6fsbSS/tR0LZVn8kV5aRx7U8tu7pSsecAUYnvonywNuioYNE34Z0E0Ah1Ebh3HJ5PuOg6kHBUT32PKZAVZyn8ZpXFfGvYkpqBKBBUYNBE8JO0KkYdZ7W/OYWYl73G1AzFTaQgBKoIjhHkJI3Ti3dgpZAjukbN0TqxEBI4LTY9fep4BvpuBLPPSJ9Kvj/eHt/Mt5XXv35YfP/bUvC20tOjpR1Bc7nCHunPHSgrWPb+IWJ7gYDbaUskEgFGoVAgXI+Rh7dPU00h0gcMXh2LCMt/7QN5mS6NbUQMAHaQhRm/d0LjWlW0XBElclPEx+X+RYE6QHvvnUn803HqYz3vqwr6yKE+jxr//+YpUn7ixDb9WJRHzH1DHwJ+HmhJAnVXQkzGKtWQCSe0jrBNVHSRmC06QavYZQH1LdeuOxeNUO0A0phwGwCIRbpTxNXbTxDaaOw46ihBDWNTDAUA6HD52ZXCnYAcJENGLQTdyoEBLG2aopj/w2j/wZz8rp+La3r3/6/jBO+P2HNt7++OPH29pK2KbDfUgOH+xw9PziCptBklre0yud/KNP46d6zIGtzjNcg9XS4LsLk+IOA9QaSCo5eZMEXaZRn3dM5DlMyDoEUw0HsPJFuZquMaBy7wZ8Tt7uONpJpLQf4eCrggyVTry0svUH/CijcPr6d9cOlMgJkzYH5pS8G4EH/sK7uhAACvY4wl5y7eybsjswdAuJHTDN0ygBtxuiR0hXSMBlksA9+kifVw8EQAMm1BSKaSqqCXpLZfHhbpOIRLKrl65ogW/GPzcuaffomJQmC+iJUrnsYChsKU22UyhMIz29h2vHdhq+eV/6z949mpTh+z++3Px+33+81C2674ktD68vfj533BejHSmYuASOSPeeaHXhgV/3JEjDgNs6+RbmRKmpMGRq2obD2iqNPbK8SX9eB+lREnDtipQPtlZwozSRqnNZlRUtJAXCIgQPHlBbgp5XzrzF0+HTLUFM5x9jEgbvSydI3J1y8W6RUurVgAPx5+HVEwJahk1m1jJd2sGuXaxBYrNO4AFpmIcGsd2Zg4CxdZY0DkD1TmXk55urCVo3ARoPz1Xmc9ftkHZn2zFXHaaJLw22OIyt92aZNY7n6+ad2KkLoaDkky8fggAFEqAHu1MZ4fT1ww9Iyzt++vLnJ9IvAp5wf/7NH15eneodPl+qwBDzttKrj2ozr967oCKqZAlIHJWn5oBy7wFESQRvxB5tSzl7szQNEHlzWYXssO/TfR0zszYvYzVIsqSRdW8ApnAggzBrnkgBE4BAA+XMrqen+nGv+DRf1vHL/Ic9BeXhJU/GHNPn3SOXrWOac1AYqFcTwsBfmW4h7ACslfPIOdUOvbUEFdLQdyUMSkRju2LulSWnGMp2C85sDcIiFYCw3RL23YDSbEuXLx/1cufT+Gy0jNMlT3Ton+4YODzqsxmSFH+UV7OaZt72CXoWH8eLLorCWZElFDzoxCLHeUUensZfTo854i+lSG/Lf/hx/f13jfN2ue3AYKNvpxc7XvfDYE0TtM6kPU/hxMVj3IwI7gQ1iEiEkHprHRInXr2UA/rdQI4XfFv2tH7nUyJoe8ra8hO9CHkNiW4OR6sMoeCQHEjQ0qg3Lw+oZCXd68ITGqepfcYMAYATK8+dll2RuBlFyvmh3OtG+WZ5E/wF3/dI6JhtdUlTYUPbATq5AWdrkF3TcW3sHRJsUN7Ihnp1ARlw90BEgAJb9TRyv3RyZuv0xTndX2sZN4+Wpm0+3Dtv3SjklK6b0yQ9QzvYZj7NvQ/mmqg6tFAaJts5lXQPcHmslLOfEv6FzP/pTy9xmh727An+9Pvbp3/9474OWOsm47IDb6QkvY2ptZSwdcrQo0R3ztSDCQ/1hRgdKTU8lUs1d0MSUBLMkXjtOa9JLPu5LtyC1Ma0ukx5uePQEa1mwwGhOXI0n8MTR0VUY3yEGNblQLiE4Vy6GeIOCjImgjQ++1g19gALpjTOyelWuVUjxK+8EjJ4yftuWSRHF/WBre9BBBBj2juxeRMJkrXzU9nvDYO0cyYOoGY4NrXgdKDnHZ2TNvlJSvFdZ/QAsMzELVxkd2Mh70Bv1+1Qc+qbqfCYfWcM74A1h4ywB+UhlkQxRYfzjOeQv/oqfjk3+mJgdUyvH7aPP/zbD9cdw23hFKsL7koRMq21DVPyFoKU83WFwqZFLPPauudsxLufh1snd3MEC5LStID29FA5OsYQc7o30JazRqQpFuCNpw3nuiKfpTVovaTqZbhHWTRXfDND1a2og8UZ9zYi8SW0nwpRZmtioLV2AhBLxzExLWvrHQTxbSAQIo7Y1JmQNdBlYtwWHHjf+cBrgJMvkMwSdZ+ndmdCJwfNk2htntADjDH3jcwPh1efvp368/PqhISoPFoDd2HH8HDwkKMARniDM2xbzhHdzXCim0h3JOaEd3hIwYlVSjnQ1788DG9PZeJ9yKi3H3b/09/9zra7avRXG6JpSHQgLNOiioeD7pBXH+btznNscYhdrBpRILBbZukKyNUYohtk78wO46Hu4nBKH2SK7m6SuTV5+Hb5j7vLASCvleH0hG252yitidZCO84LPr7z6xq2kMTTm8v6kD81tAg9AKZhfCn2KqlbdcjDBuU0bz3X7R5SAt8wKwNAQQENI/RkMJaI7ioKzcFRsnnbOpqnovFQ7p1dIw35Gud52RQJxNRISlPWffryiv34tH9ud5NhhN6pbA5VnJNA0yBlj9P7+lIdqfC07WXStarjCJXcgATneb/J4+E2TtwBy1P69TeHb472IC0YGryuS/v9v6rHlz/o2F4uKKHNDJEiCeXo0MHnyV8BeQyL3ibWRtX5QKshB3FAr4QUNKJtXakgjg0ytRUDH/OiIl29lXfj62t58/bH74GUZmUZ6jTt3XpV4gTWOhikOTr/dPy4lXUryNPsPPYPjYqZi+Kc5mvZVkgG0Y1PuFnKBkRtU0yB7yJYBCqNJ9uiI0BWyGOuNfu2ztPrqphGc/ddASlHDNhAmmJgUipxizQiFt52nKabFmuSumyUomEPPHyZXq4dTaKD8XhC+2SJ8gbjGb9z0eAYUKdH+k6h+xRhPRilPJwvVUbxGRASHb4+/vzb8YvMCRzC66cPud7+7Yef03d/+8rtRYmHtqhFLh0OgdKG5RbDEB0NSrF7hyk08eo4eXPkxGFaI5tnGo7tVjGFOFTMuwIIRExZTZw6nk6vl1Jqj8DAlE9ML/vByFpTBpake7RpIFzzUT7kPlBPjLQPxHsNpGjFo6Rpt6rUETEMh7ndXIjVHB3Z8Bs3MqAup3lrrkolh9oh2d4dSIZ13xUOsrqYEnUeqTYCAQKNILIdiHIKkbWlc75tSWOCSj44VWrKD1O53VujAtYp0elL/PcA4LUMKmZG3TzwzSH4+y1L4U3DI/v49kQXnNrOQ86H7KdfffvTEx4TIKOF9U+X312f/4G+9Y8ff3zB2jGXtasxBeJB9gG5rhslNHJmsBZp2vuIm2sEMZUhuVEY7T0Bz6l+nsud1kBMm2VkUgjOTQo2IDdA2At7bpbnzPiyTZq4NhQwGMvS+Zf+Gs8cbG7lpCRBzxLZ147TQ+et+mF87mxgEJKSmYQBAULdURAQf47aqiXJI7cWhiRjsp1CbaOJI+G2Kk3nbdUwwIZT3joBIyFbc6GB+xIDOJoBBSECMFbnybUf7q0kYya9SfEwGtp8er1wZqswCTy1H9wDcHpsyi/b8UkvK+RUx1TevLt/xrf34H54eoT+9De/fk8DBwGgQ+j66V9+/3Ep2ur1ZSermHx3jwFqMCPNZJ2rFqrdhDQGQF75cI1y70Aix1I6HWV93UC8QYlOEKk6F5FAt6pOPHYbPHnrDqJ4RBjXNaEy1+Phsw4ezdl6PqPTGa74KVAxSE5E1KMbUmsc6etp/dTbPL3Y0JsjJ2GCtbMQJNt2FATEb9QDnJhE3MDZeShR98phRRQOdF2By6Ns170FqKfk5igFgKPVBAfauuJQSHK7U+6dLNDAARJSqxx4Rg2PMApjwqiGOLyxH998Xf35ExJgfuiXKE75nX9/hzRaPhod7PX4i08T7eM86embX/71Ewk2oAhAsO3D3/3mNwov0Zde3cA59maRqTFpmrSzj9hGuK8BEXnSiJqGFYZbRFBJPnh6W5bnlXzvwFlsKxmKHJuqgoJ0ExEDTbxr0LinguhE1JsWA+JB71YZW5RpGG84pfhj+FYyHGZQ67seVHihFBNtLQJH7dw3kXxAU+/GSIhoLSAE8X1PE/YWQgRBwZwpqN+3wa1Qg4m6gsU89lV7cO2c3MF8TlLCltUSRnBBIlcHFNUhNpOzXnHErpUoTYSOXXsAZOzi7iFz+Xx4f3ltUKJJOulzvPH7+G6zZ+OjEFQ4js/zFx2TPB23/a9//fP3JUW4E3gQ7n/6/frx311vC+v58R/uE1xWQOO8QaSylfFSsyROuK4bFfQMlVCYo8kL5CGXvgGmGe7N3NUkO4QL4TvTvlZm9WyOVMJhnOruxnlmpUucHgS3rfQLgEeskrQdzjq3e3n38Ycp3WGaHmlL0D/vmXNsNLGvhuyQIGjDgSCrhTolcClz3ByqEn5lw2htA0EmR8Yy90q31bNDIuXcSWivIUHiyLpKrkoFwMeH7daxdsU8DKZ7twDOEG/kmcav9Y9EHaz2MlLMvO/eFGTMO+wYMlBrcCovW3qI15iHutLgIeDYdDgOge0+HxZ4N+3HMs5t+Cf/+JvMKRwdAhz1x0/L/d/8Rj8r6DB8bqDrhoLz/FkJQIdjvzCRiD83H07ctcaQwwuF/GCPb2hp2oyHGt5VUiAEIBH6F9WH9aKj7gAYhJ7ydK73HgHjDPIcT8W4rlO636plVsKQxLXxu/jC/k32OjzpCH2Qz5u1EQFzar0aFxDYMrdccK8BjhSYKcZilWHfCb+EWTbtlIUMIJyn3r2qp5KieaKO4l09kAglx1UTqecpPB3so81+U5ZiUjazrrl0O8p1OB/8pfg1Wd3KOTUel1WrSYYMa0+UjRjawa8IDB2OVokDMawjOc0zj/vmQv3bn5gbw+mn//SXTwLkgQERbte//5R++IfX9ZOCUxjCfdPENvWuLt7Gd/A9zVsbwsxLZt9bGsvFHzS//+P1cdruHqzGiglNTnLdBmwSIW97RLtOby+L9E2Z+nBijN7NIheEjR76mr0nA5/3yiNZNgO8pC82Ozw3lfMJrM740rmHYxoP7dbVKNOx3TClpMNlIwxk75KJmQzYq+LbkGQhjOI92d4sZ3ZQy4/TcjdUB1BDQjSncdqvTSbc4DQ9nPuH6z2l5iSj755HrCtjsyMsObvDu/ZpIK1xOPZ+vq7mCkKILaVVKY3fXL/rxNYEcOyaEdmxNhLHdMzcacmp/eondct8enj6L74t5A6EEBB+/9OHv79/f08v39Uc4HDAlxbYg4zCxfuYYY0Dbo0KcTOsNtAQLzTv8ra9JNxykam1fYljdgfSOEigbfnoaOslP9w8LS1SCjjSvbBuHQiII8SxdE0O8/GlSVKZP3nmVZIslg2+tby97ii4ldE3kpSsrZ0ywhS7DmM3sd2cwB3JiDhh4EQrvncmkEFqdxvg2gLGQ7iqHw9NUfcGgKJeSm2eRtsiYQB88c/+2Zt//X+9XjrlDcuR1pbCokeYDwSMvtAbv5yor/X0ru8A3rWajFqByfYhtQf+HMje0QWDiMAJdyB0Ri7EVOegv3pzr9P81emnv37LFEZIEQG2PP/h//2Hz8HL7QYJtee0+tjuFUeCzhJla0Dju/UWufcAc0xY/K5oh7f7Nm4x8CE1bWufh+3eU+FhPPvWH+S5gq5VwDwEWXovs2JYDwVmyNgL7hVL8DFdOkYRbRCddPwFN/tg3+zts+95iLVk8R3DqZum0UOGpsXWEhDRw50SNA9JhVBK4E8wqbNIb9aHWDpymXnzqDjKFLV1ZuCtj4e2OTAFQjfO/8k//8/jb/+Xf8PgYUSTYO/azZwQUAAFQktZ5qH92I5f0baPtNm6S7aGGIATLGnIvXK3QBEgd1GHQCCgQNSZ6dTGv3x6Wefh3dt/+rMZmCICAtHruv7mb//8/Cm8f1oHjiCslvqmICiGnOZLjT59ZS36VQuqJHew7uGHL6/93WrKA3oF2h+n15eOI+n8zmD2pp9NEXsUdI7NwaZHXqztzJpy18CzvDoFZlIDns/769ReMC/nL3bUEcvHxnQrw5KbFGpeIwIjj9ph1L2AMTcC1SBI2HfkxILAgj9D0g4IkBD21oNKybgpqGMZVDUd8rbuNs3eEMwhujm9/W/+25+sP/7P//csvYOYRgKz1oEIAgQC6QnB7zHnTzc6FbNj7muVaGrhwZTfbtMb/LCZbiF84qrGhky9BwtQhMwAZXx38CGdv3jz11/OhhwRHkRx//PL3//Dbd1r1x/XPHlw3QK7AhJxQCvHdZedvwxIr6sqIxfUTRk95uPG72G/FzJY+8iZfb33VJQmGrDvnFs1TNMX5fe3WCNPg4FRVEINM8E+zLqBRWL1lE7H+5ruV0TpW3r/6f377+5HNkc0bImGPaIFAg7j3toIdcghee8BFuPuCA0ydjREwK8JmyVzHJOu6sHTFNbC3FzAI9Kcl3vnMQcwqrr3CD/8V//8Z/Hjv/iXh8l9H8dLc7XeIw/YGog7ytMDf35xeWMf2kRWD0es7TCs19UBiHCEIzjVLfUYOjM2B5SCbVPJAUhyiI7T4TTC4duHd//o7RQIDuGBaPff/v63P2ylPG/1x0s69yWVm5o5oVNCAMu9oVAiLBstWyKfZL8qExAL5/eyXEvqO3YRht7VfXhoShvTilPwYsLjvOwTrjaMvXYaQlK97eUAe5/KViNyLkXrWC5mPYaNrv1wvlAxSKMmJHZDhQrYhFVJ1GiELCzv9GWBUfu0bESKc9s0ABTfowJnUybrhD3GMdXquZsHOgECYrcoE1gS00bs4Lv+zX//i+X/+N+2LwdM936wu9taA3gY/daIwUneHj+sCef8YStN/VAw9TpM94sGBaUZeh0ef6yJTm/vr+EOSDgM26ZCzMrHocZ2eHhgfzeff/3rh1nAAd2CbPnw2z9+vm/Cy/rp+S6zb1KenR0QejDEgZdtUBqaTFZhqZlwnu25coKu5WE7j/c7RnNBRh53daM8bkBLIJlgc5/GOnt9+/jHJYSWmjJLaq1DxpHQGjR7eCq3KwHeOxXFY39t5599+EGQEymIjEPpvbbuOI66VAanUQ7C0+F6uQ/ztWe7QY409LVBuOJX7iQUxFFbQotpsnXvQh4IiAFhBsTjcW+MveMwsOtaH//L9Lf//hqH5Me0uCwuXoNQZnldeG6RfSrPcEQpH+/nvclJjWhfMy3AFDi9f15tOH3sSaZTu3YPFndmM0wC2TqPGPzuQPL41fj27Zu3jxkc0S1Cn3/75493sNv1+vneA5xB6iecSplulypJOLcl2/SubXBaX7Ygdj6UNQ2+X1v6svZ5f63ogSmHHFoFnMurA3cnakDCbXgTSeuOuzvBjswwyBpUaZ4F9+bu48xGk77uCkNHqtCPf/HnPyIxGYXmN5lcN20heZRLZYp8gkPz9+/0jy9v9Bkne6E39a6CzQIUv4ABugtPdGkCEGeue9dIZBYoqIGGImXse4swmQmiV6eC1SpQgJRsHUJ6LeKYUrvzuAMd5L7AYZzt5T6BGQeKxaalOkPwlF7tWLR2YU/QFSGYNBAolbKzGYwj/PxpX+Pdz/6KyvHrkwCAG0ZdPj//6WW/ra8fri+Qct/HHOsLyJBg35rMDKfpI/VjEb0KbhsG8DS07ckusFV6Ky1taw02zwcjUmAZyqUFekL3jrOE5IwOse+7JTBCFiD33vITObbWMSEEDyMtq9FcN3LYhmR5DY2kHuejwnS7uHOWgGiM8iZ/PBzoV//1z/7d//qnTiV7H8bl452pGSHi18DRKBPFbohBc1cLYAnbggsYiQMgJ6g10Ki4WndmToRboGJMs+VYpS+WMznnZqoylLiK9/FLvD4P2DfLMoQgz5fnhiYPr/Het5onuSshtnBnaQZYREgDJB35+I3sPfDdr76c339VABFcHerHH/Q3+/r8/OGTYdBUe6Ka6todHMhCIv0l/Sbc+NQWmWKL0PIT+ezpsk+07DwxtlBIvZcHbUI4MsR9T7IKc4OQ8DxPrqBqe5dw4pK7Db4YPzoFWAPErtjydIi9DXUtUSqBTLfFjE3hfNYYt6uDTNFVQ1DL2CWO//y/m+V/+t9pAMMBri66maIg4U8cbBuKA5mRR4iFuA5a2QAAIABJREFUMw1SffWSQ0aJvTowqQZ6JFg0gHN2yt0wHIZxoNte8nqj0YNys9D8qLZhRHp4eL4N+wWIMQ0zWnp+xSAuNNH3NZ2+se97FKpdPeXWkJCFGTzNWQ/nNFUcn7746vzNlwMgYnTrl9//8OG3HfvywwvkIKwdsBe+u6rJ0C0UD7x6IggjIXe0fvx5vcil0+Hh/n1Pc6oR3Y2kcBWaxip6NeZmCRU8WZ+/1E5tQ9k6A1LkZLtMB3il2TWf/bueTLv6w+P+2Nq+Ep5W+WKty2pRevPzKVpH6yzcozsJ7pkw4d/8D/+Y/vw//p8UfcMpmoxx24FLBvyaFCxjh2LaI4iDgjBz2x2nrOUYtq0eLm6OERl2I/ckxszo2ILHktrWKRdoXX3yncUBk1GzBCNpWe/B0XMufTViYvX0Pn5fD2M87M+dM6i7ceqGBMCplBpTcjwNwe+O56fTm1++GxCCwPv6u//4+fs/LqXgD5fuSlb1/2cITnYmSdcEIb/DN5mZu/9jRI5nyHO6uqhCUA0qqSUkCgkBYolYs2DLhguht2yRuANWLFiwAVpCCNESTanp6tN1xszIjIh/cncz+4Z3gOfJqZd8Bqvb3d1HQxGl6EXdT+HSICW3m+9+3GiDvCyXH7vfH6+17U6RyAX4EK6xYLC6AbkJZYM8rRQNILSNJ+yykA6+vUN94Zye4PR0lpjGgONjm8KH6wHau3N9SHbdPcdrHw+n8LpHlxTdpQdQHsQW85/91381/of//icnU5zRWNpwCMvJ8AvHiNx3yjZUMQQCdecJqlHJ3aO6AVh3V2SzQBhIGnEDXnATggjzO/m8eT6A7atOCQK/XOLCyf1KkaP1hhk7oHVL87zHtqew+nePv/0488UiupMJIDE4ImFCnPNNvxCUu5vj45eT/cUvExAQmF7+9u8u6+9HeJPmbV/VPKZDgLFv03V9pFci7wOZCHt5by87psx2m9/mfd9vvxpva+3vDi+1NyDmhOoObnEpQ3nDouueZ+9xrzHkZRPosMQxErtRWZbtlaAZhiEaS7PoeZ7rb+nb1m/btS338jHchpfVT5FH7FdfCJj0uPahjpaS/vwf2//+sbbgcV7GKrtCQJoPA78CdEhYLfvawVNGVxUoyZyCmzlGZ1F1hUA2kGNhGwP6WE6tbRbLiI/21BUg8KjGZTrWnzouE0OowiH7WVKM2w7MZRIlEwrX/Zt/8PLHa8qrBCZQUeCcxQIrkaSb5f56Bbn59mj5l8fxjx5CBoxjt0//sr395rfJnq9eLmd3o1DmKPa6nvZ1RhFwgQQJrB/f6+eVivLp3Tby616/PX426T7FtTVDNJiPQ8dQpvnUhkmk6yC8z88yBlE8DFGFKcBAEEshjJ0SCkUSUmdXnG57HRf5KsHo25rvh5om3xxwOkSwNcg5TiYWHZuxHcMlT7SPJpbmab26xOAweGL8GXmrvPDwtntwjkAmZpyI2MUdQnAwI3MitGEhJkZtippLdxfU1m9smCAiDzGa51xfKsz3pSK/0j2tP4WCpCsVjuoNKCDZOEaArmHUTgHcFTllmeZrnyar0+PULzNNcSm3f/kg385z+pwO4zq+/3348M8/J9zPBuezeQgw3e3RnveggikMNTfihKhcYrvgw4jvylMN4utX9bkgc5UxXD0YHOZdXTvFdJRdUzq3GOjm+PkKYp6/krfqkQYx9BomHC7IxZEBZ2kBrvln0+832fXhvipua5nWUxjULnnUm8eUrh8tX2FSCQ86Biqejh8lxtpFKRKoSpjiGB1CxF96qz3PqLVaTAhgCABqMYUgcVSbTAE5KZoAoymnGAQqxdBGUFQ9S+GIw90I0TFx0Mvm8ebRrmGjOF4lk6bSFIkGgpoRM4bO7JnNN2cDVg3g0y09pUN+a7dTWBrkyMv07b9zkzw9tA8BLtfzNsYf/3Teul619z6cC9i7jrA2JxKLBKEZAs/deZviZg+TdUr95uGH8/3rS4jHcr7UdNiUsSRvIqZwOMb25uV23wcHcu8DPC7H14o51YqEriEE9fTzepZr6T5H3+vIc+/snSHv8LhKMjlNL8X2Vu3hHb3uXMGE3OCGMWrT93e/252GIUU2cVRc0hjqDvg19W4l6z6AEwKP4RhILRVO+XD+KEEgUI4ddEApfl0pRCbhrDtmk2i1MgdSMwdwiolB9iq0nDJ249jOTQ3hOLVmIAEAmhBlVkdiSoRKzcI+OGg4cI9lHcsR9y90++I/iJ/oF7+6j3Uv2znTv/qTL/D5j2u79utZTV3Fo2MJFkZXRjVMWD1FAVKw8bi8bollS/c452ug11eYImqTtAxXzjM+VQPm+YZkbGNiFeEuEbpSOIXLgOPNFX3bg/FyQ5/vf71+qJf8CJ/RrpIMKUbvSczlhsO+p1P6YFnOPt1nekWqgiIIePe1tnaGu3xduziUOMAFyHEKrmLq+J5wYMLRJM6kAGIqKYqVQseb8PGnYYYxR2rDnOYjXl4rRaKYgo6QcaMS2+pgQkdYK3DM6Aj1UmKcb57phqp+vGCOGYYO10wcq6lR1kE8YObSRQHGgBhpOtSWLQAnz6Y/+/f4dzdf/PzP8fk8+mX7evvdtb18v5Xe/dJ0G0TVwL2EUbAKujsel8+eIG0VHfDm2M/u1uIDnfvh0C5rvvc3I/IcVMrCeF5Vy8zlaHvvI9FUZSVWGx4i2dCwRO5tEyoH5K0Y2uKQ46cLcT+EFgnMR58E7zn/VPWx7D7GZeRDSq96uIqLE4a79/t5D/cDxqsZhIwN3AFceQqqYyB+iQhRTX2ETOhd2DqRK8d0+0hPH8QcOKHbUAhlCm3tyEAhRB5oIpkduosBzXxZUzSnmFO7MHi8ufoMnZ82nCbdRuIYkQBFBZFQBiKFAYSApuo8RSNTvj29WVqWjVP4ssz/4O7P0ufLWUwv9XJ9+emS6dIAZDwPZ3MSWFynfG0ogHB8/2M3D94Nie9wDOrcNGEnD951TtY6IRUcPmcc0kfP9xRSv7Rj2mGi/eqQqYs7gQJDzN2mje7tCrVwSV+ext8BPPcyHW5elJVwPBvTYbJXFqN0e62twlyWFy/7cGOkEqQ0mwrCxdhBxdAhmLhZiuY2HL9JpOqGMBJ3YrXgVdkbcDo88PW5W0BiGDYUQpiS7J0ScqCs3VrloO7BPATR4LVkGZpPVGVPjAlfZHLrMkKRoXx79FdIyfoI7ApKIOAR1ZmHQCrQRoT0ZXjKFr6zzxP+6hfb/ddfn7bvny7zu5/+VcXn1RyfP8kU5aWLOxDEk9Vy6p8QndyzjeEA5oHw2IRAAYfRnPZhHsgIhjORWoqEvalCTFzm+Po2ld0DD3UxOKjOuW8jkKPrzWH3/cploXAP2HF/fPvJuR9KnD5eNI7O4PEgNe49vWvn0Nvp5iIhphcyxWPZJAMicZX34U3iVhFjHINVMCBhM/zmNr4ORXKddfWUD7G+jWhVETCXUJvHklFbHeIhFJYmmDM3m0j7AFLtHokhKCUSAoLGN0PGGfNDH9uYTMHdU/KBN751Uiy8S6CmgURDMBMPC3SI7m4Ywi3uhPlL2JL/7Fv/9nh7e/l+e8Xj/ruzra474cfr/Dh/n+gPb8B8e7Bz5HjupLl2PiS7NjQHmPjKFHAoGEzUh0OJ6qGHZGIaKcLWzDkC41TG1YJrFA3QKxYOj0Ffr7EM4xq/sF22wmLxbrpYw5+PN18v4XgsH8623D015L6ElXO5OFwL4zxk+ExdBOJduGx0mjnsbzxBlSjdYxwViw1kYuiOXwQS74FAHMSmQ8G+DdauDoQpjU5xOcjeRLvxHEHGwMDavWQjgtp9MGNQ8JxjtKpKMSKsn/T2Pm3rSCCDCsMR32DR2q1DKdrNFAgUpji6O5TJulPOvUI5gNhxmgsAvvvmq4WP4e+fT/DWr89v66q7LNOTfveL/W+/W/63D8y3X4f9smqhN0TfIT0sZ311+OptuI4cwz4AHciFFKbYMUBk4r5bTL4OMwqAEAgJBhApNCBlYj6RtGpMhNbzHOGl0NlsOvYh873IjjE+vryMhLMoe81aHfDdvtb9tLy/fDqde9SgA5aJp4/+xYG9r2mv3ZhRJ3sTTgAhBhor4C+7D4OQ+2rJaIpqKE5NAYkQw1BIx8N27Ui7xmMa2gVRxCGkYDm/bcDJENx9iYg+ekslB9x+sC+Xsn7CiF3iFBxBNe/uKsRzqgQVgbmHDBekESftFu5P26uEU17L7YOEeYPbv/wLP/f2QQ4u+/n89LRqs8yv9je/+sM/u2u/rTE93kLQH07bbOdrpR6+pM+Dhb5pexOezHAn5dK70sCJe4queDpcnmUpYauOZg4cUHPYMAvHGqV7mpFiu4AJJSJmm+mJ51ez6VQ7eOCH7SXOk441w4g00k7L3rfwMPhpHNLNM07nawgeRg/zEa5lydPeiC+iTVOktF6BCTgxq6+Gv6rdCAhaR8J49KagxgIEBMhRm6Yljj5IOubEOga4mxpTCEQ0hoQoxoy6kHsdDjkGqr37Mjfo3YfxjITVQD2IgwPnIgmqhdnXcByvkXqYtGs8nPYzlSnAgQrkAPj+1wf+4vz5DKK0vjz/9GzBPHTRf/9vfv8/ftg0TlAOHNd+92Jlu9qyt5mgU+qmhcQYadG60SK7muCUMI/R0um0feIl5vOWcKgYhmDAlg5rjzzvFy+H3It8iiBC0flAFCQW2fLczjtZg+P8IuTp63bGMLfPjjKfrt3v1vAst7n2h7x+hqQMgEu8+PFkSd+M9lLqRfPsW3diIvJhhI73RRXRFMwMaAqmrobI7iRQFrlKyEwm1ixnF1VH5zA6ZkPAgKJJuuUQsAjQZWC6ga5nm0ZIPU2XaydOPMwBLRy27lYIcoI6lCZZp0Mf0QWjDUo5tppy1lzomFpO89cPb392+vR2UW1qn354WiEh00b0y7++/NPfVZxvx5jrTtLdE/kIZGO5a9Wl4nzszXEuchUlGmJC0yHHlzUVDOMaGUO14CrqTG7OqaStUUx26VOegPruiKZIjJEpLJyw1B9WgdOWglwCAS23100J9Epavq07lY/zNuI3sN7XjyujpuK+yFtJORV7s+45yKY5DjGjzK5jGBbChxwvFExCaODKhZojKCYcYJCidSfM5KNLmrKtHdVjSRcHDzL8RF1DtwEppnmDsA8rp7banqxzjqcvf/rcR8ZuTglwns8VISgvoEOUQSTFwRnMaVieAljVU9oP99tpE77/8j7OD28dPlXYqu8/PAkBzbZ7yrfHH9/e7OamvYqKghOiExbC1edcUXZYbod0CM3AFYOpORxu2Nd1iorbVohBHFUNMITRIYRb3ZQDhX5NkVk1YQNUdwgkVlADLzd/vFCMxg6tI1NPJ7tS7psj34dL5o+5aL/v+/24NGRPM/UhI4HfT6uADgNwTrwpck5Wu6hTYPx59N1yFQ2YXQG7hgCmkc2QWQ0UQuHeVMNy9KuaACW8YAC0ZnlpO7mrlxEzTngdXnhTwEnbunB4GBevrHs4lH5NC3Z1kJEX7cW36B0CtJRNmKst2YFafN+vh0S85uP0cCrLEyV7rm3fvL7VBpCiqPqC0xfPv+Ob4/VjN3WgwC6AxHGVHHSRNmAqMEQHFJV53hqYz49SYSPHue0xqogaEBhlauqkh6kpIWY6c3Aw5nBpKY89ZjIJumHghXaLIxz7FXWkqMJBw/F1gMXjnoaOCUbEHZYoayoQsG9GmBSWdUKRasiBmLfBeSHZqllAR/wzGsoBrhrEGHVUDEzTpKaaQrwO8sEUbWfzeKCro3HIXi2g6q6UpUIAcncGLtA08hjkdEznp5yWaf6+xpnqPb/WypOnZe0qy7FdZ94BRSkOSCqoTlN0C3hKW3gXD08v+TuNt4v3bZU9etX6JNCV2BtEoeP8/sdPC0zbpyoGyMEckMDc+LvxjOCrRUJCaCMYHU7nZurhxFfqPUIOm08qMhxSbEiApEKZ4cBvXsDJGqTcvb3Se185Fu77EIrBFzgPvPvyp08EEiOIx+DzNuKeyiirx7L3osDHsK15wrBtA5BnVNClB7h2ipnApBunBHv3FEUAf844nEmRaw9UhzMQz7MK2FL4tXFvkJd+cXLIvEFmzqRuIe91NXQfkABZAqk4SZi8Aosejz9uodzdTX98YqD79z88B7WFwiLVQoGxSgK2DrGoYkcbSDkqpqIu774ZsvevDpUfZ6k/jkiU5fx6kQHUVe3Am9yhdM9+8a0RmS9UUZiHoaavZ3nuYXUz85xrd0ohN3MzJEIfGj0fNosCJiNE6AaQUxcqPt7zjyl3cRabqfkwmRbbQjHTpnSwMYlA/+b2X+/YrRQRTGkYcEWwYBAYW8QOFh/9Qkqh9hFdY8mwZpnCU40TYzZoVaiwdrrFiyL+LPgGQS2aIbUeEpvgnMgI59JeTMV4OtbXBsSZuk+ZXdkB1OBMA0WJPbAguiM2OsoGBDSHnySkeZk+rHPAtL+F2TA64vAplW0VUguxe8lqDqA2IEVHIE/zu+MbyPRd7Y+lbkOCw57i058kO9Bn0enxcnUIAr5MH7UJJ5GZdg4i5tEVbqMOAUPohtFGiE7kYAKR3N0McT603VOutoelVndPYZhDmI69ncZrd3JjIOP7UadFKuzI2oESpisUmPxi1vBQZACf8OxTX0lZnRH8iG/d/VQ6WII6JHmPeYoiDazJtKBgmOmyakk24Ji2EfAvet2BnFxD8DZiLtCsHHVYPu1vVY3jFEhrV6LoFnMwkQjKXWCoGcZsezYTDxaiadAKHD3oRShFDlf/Jj9drzAzE/EQLORQ96W0isHsyBVSlO5DUxQPGPLhgebbwfCFtb3W29yudtW5/s6PTP3HbvP8YkFCkrpo04GEDZelXadylTCtO8z5oJecxFpTClrSauQOEFNIUk08hKADl3m76nTsq6hjEFOLS+ylbPtupDrNtqe73AbdXF4ls3oyzrd73x13MMOQDHLabk/x933UxWP8TJPoYhuB01LHnHGvAgahyLzs0pQ0zihDwpzqIPCEQmAZ/016ewN2BOSY6xXynLWl1Guaw9sVwfiQhnNoPSg45BCkY0IfMKqSCr9LrUIHATeMBLnvnGyH4CKFaK76a/vNbuVWRbHUMR/s6rXfL1ZbRwyKmSFaFc8MdA9OMcjh/osaTadz/4p7+3xpe6GLe/DXNwCOldQXFy1XTTsu1mC6Gy+U957yW58oPDSLC2yvDSEwu5qocwoKS9pHc3ZAtsxi6RTatbopkLtGUjrGbXTGmlKCDtNxu8iN1BBMU2y2fLP9sDJ3IuMgXgLgO90+KkewRZ/5tMGdrAzR6UrB0LQbEwZLj6/eBJ2moH1TLtOkq7w7fqjIGf8m/PFTSF4hM+f1QlyKw2RrmkkvlbHF+z4i2WhkahSno+8j46iqDsGIjuOKuashqLJ4wcqlbpgQPWzpzp/z4blZnKPtGkIOYsM1MBH7myJ6yBF4dKSY4uHrQbj/QOn+i/rr1w/l5vz+dTvOv32mRi4dsG9EHLrWnokAu5vgRKphxl2se/Tup0C8TTOk86syT6E3RBML2cTCAmOV7BhcTrVNpyn0c3NVdyAw8zhTNbqxFdwYMXsTy24HbOqsI/2CfnymVOcwWnJl8/Kr7bdjSbRbrrxsPXwBn0xSGhpMXUw4JcGY2MN1RXROSdbqNB1L25f8JEgB/63p9RUj1ZFK9NbcfXIuORAPGZ3bzklT4loHYx0R48NxND5vk+8IcdIRYGhyEE86oHqKOwRtGFIZ44oPdx+3Q6/ogczRpyO8DaDIXWLhrXogj3moMYd4KI/lbZmf/6589Z3yl+2fbf/we4f67bt/+bkY9BV2OkqDAN6HDA6Diu0GbIBINDCyqmi6WWrriSvYQA7ZSZuyGrg7cC7+NjJLEjy2K6Vl6ra3Ca3WFEeHyZwCzFN/RRp2KCsGiK2XUXmk3JY/v/x09ve0O106YKGWH7enyEk2QChxDT6NLUKIUh1JTX0KjFCKgL/VIoqRWzd3SstkOjoZAP7q5voCAUExL8nOmzhxzsttuwCIeN1BI0KCNkJSAQjHL+yNLpW1O+dl5NB3dHOATFo7RW+DSTHOuzhmCwNRVTiYz9PYOdQeIqnC5IN2JeYpbp0wh/k4LfM5pN+Mn3375afThw+233Utx1/S3z1T2M9bGPth3iREXrsOBA7so+vUlMi9++G27WJwuverY69ukDiyJdoHknk1YAwcbKR5pdZj2hUZLPh0E8vb9zTTOs0vLZPYnCrntuZjHOZYTQcJnuK4mS825B8+/O1HH0axwAUOqFEMulI2wwS9++2xYfxRAiLtNIdegscg68pZY4A+AGg0KlO2ASDD8M9je7LEZJ6PsV/2ilhuApZ65WBWt4HoBoFMS2Y0hbCA0tuwYczh6Au/Vgc0oFutozu5akiOQa4Ah7vXPRyb5l3ZfWHpSBWWbLtH7C368BjyBJfmJZ9mXA7MT58Pv76Ry7v/0+ePSz79YsIf/0UjtrF33K24xKLjasQUUlVvkIYygVjEGXHrvPDdS1cE7kpwiFWz1nhif9uMlH2abYpXkN1wmAFEgtvH5fT898x5nG5/92JsA9JywLHpYali2EViOuv91HGPt9DtF6/f74IYAm64TDvNgG9OpkgYxoZ3N9XCqyRD3y3Nfii7A/haCeZCuxKFfYXMzKbm6vhnnj7XEkBgOtoAu/QYTqWZ7D6R7DsCdAgIjktG6mKUyHzvZIAE8XDA69UdncOiK4l6gxDSPLZejY6nXk9f//H1Nu4IHYUy2RvfL/ZmJt4DmgWim+X5onzzqDU9nPJvS1Dyn8ff7fcfZPny7u0ZfxSne9/WIQ0id3RajZi51FWZjaISNjpsdjP1ng9/kEA4pdzfhsQJlL3a7S2eL9WdYwo46zpxG72bWoiI82nC61mBD1+U3z9vgAZ5ysNBrGCE2kNQ0ib3t2+Dlg4dXETdgQExBCPKy+sWDcVkxmsohZuIE8emAAyHqQ4Ok3xuYz7wUMzhukIEYBJBJfwO4rlx4c1vblQptytZCiK9jiX7uhLHamwElBJhb5hCgq0idmE2XJgS9M1LQu2OSPZGs6RC17058XK4zqeXV56WsO/CFPL+itOUYWyeN6egCuU2XJvg3Z0/43QLLzkJ/tnjp/ox7nBo1zM+/DQmerf3tip2CrsW3wHQ09xWCOxOp/SyHuYXuEsxPuOLwJQWjXLZUeAwt6ESS1ARg2IakNDzsq9i1oyZcgzFum49zD8PP7w0DzAtXfuI1ikd7OKHtFPqF7g7rS/ElO1qkYdwRsGCA4ByuzJPQBu5Iy6pajdj1rzodeVimKik56vl7ARMuqtxMGQwA8Rvu6JAiU3LzeKOYazGElJ7lWnG7Q34OMTUySkHkI0ClLLtQZsGRojj/i6vv19vC8ngntBqiJc5wg69c2DXSRUtRK8DbsLQTVKMFmHHKGDgjof70UDoduKnPX5Zt+Tj9Df+afvD/nX8k3zxtt5+aMejvZn1SmQ2MMpgixLyqMQeQL7AnyT1ESLN85uawq0qsONmzW/K7tokz9ApeBgCwoUxaU3xcpUQPDFFRLvWkG/jJwFkzGWt4kEFwoRDCcBzWVsOJoIUrLfDUjsFFZvKho97JdnT3c32ohBcjvfXalqd8uJbA4wDKTp2UWJAYDIwyTNuZiG441dXiOoJvfp8k6cg18vEPcyyy5y6XkynINaEUOJC1hwDsjd8pUwWgu/v7o71txVDcsUWoBOFvuSz5H1Q9C1Ow9kTJX7dSupmIU3HJwF30mQCzPke2fTgl6W9xvcvfU7h3c/70+cPv7r5zQ/LX/IPa6Uy11U1nBuhGQ/wxChxkW0E8QATVkHBoBqV48CFWmcOt/H5gjmgiliZ4KJT2nTyGhIMMri/+fzxOgVAgcQC3ul02544RFMIfrVIoxMHHgoAOucxghqJIbFLKaj7AEQntHfH1xpGOpbnizMh5NKbD+GUfIVMh/nlgjh8OBChQYpIw5f58HYOIUvDd8MBOJk2cLx/LNePdT4pIAAXvQb1XQPqMHaPGULXmESH49lDwQ6cbgj9WT2Su47kawjgS3wK6ZyctZMBK+Z0f3x92h25HLWyzptE2sPUIC4QAoUE53Yal1yuvpxuD618/P7hz//5j8CLvzUq2ccAxsvQCE4NmAMBp8Nl99Exh+6UYxeT5O7NQnYIs1lU6j2U5pFNwmgl7P2YGrOb7HC40c9bRs77mopHO4cvptd+K+a7lrStMQ4kAmyC5BjzGPMA6IaJlUQW2puHgCY63afxDLdpD71CriMGFpcEZZK3CHIjr9UzeDfOMICJmAVovocrWBXCRxIFzIYwRj/+Ir+97OExrRSa59EgxbUZmWFkjGQEPeY3YJGKdrh7Hca/3DbYcEovdmh+6GebKC3nF5okm6sMzaCejrfOLy8jhmVutWOAhfoOySlMDHOVE2FoJEEVOt+nPj+Nv8j/1xmXx/rHSnm+NoI4GobQOomGQvMB6s1H8bVjoeF2TFvqfY5hvEkKhAh65cOxVQMgY26zNHeDeXaLGK4vGucwjMGKvdBxif0pLt7y7boiCtzKp1QsqqA1R3QvJhYwRTEn7waQ81g9lWN78pKBdnls9ev+VJMMznPcLfIcpPehYoqZo161TH1DZiAyg3BzM2j7HGZ8b2qBkMibCH13evrUp8PhjfO5ZhNYlnV1MsEQOEYbs0E8G66KhAdas+7fdLc1FOg745w/r5zjcf78OqaDDA6bYPIx6BgYz5UPcxU3Grxgk9CVYi450CbHMJcP92rjzn60B+cv+jpwu4YlhEbVyk/nEOzqB5MuqMonW36GdXwvvAuROxIJRvEJgu9a7vsbNiTgTCKe8ZynPdFaqSCVIAILvXWeCCqGbqzF5ThfxVRSbk1n2tk9N2WoBMIcsbKqIx2DHcZbN0Qox/RRpox6lik4mpw2nV17Aw9pSWdMIZmyvg4+JQC1Djv6c+94AAAgAElEQVRT7xA4ogJ6XG6trxtG/LYLUIg8VkvS4jE0kXRn5ldI0HV5px89jGpM5RjbeeKAsot6hpDWamSx8OmDByccuvQNmb2EJt3moQUEg8to+W6vpB5v+KNF44ev1s9XnEwaTDdRcIdHibrdxr0t/Nyn2/vj9ONTK9qpxePN8wdrEkrdgA0UzY0nnB5G4Q+vYTircoLR86GvWJIAwELnjoCJHByslL3nHXKXm+msxapSKnNurmMLaYgHqhpPJHUQae1UIskI3FqcYJhrOBzOI25idJr0Lv7mShF5Pi71srLN536DSvECzhAmeGOUmBCLtAVfAj3zTZnAxYasQu4UgKGHoB6WOKQ1xG8UWSFOcrGA14pTZAglmMgc990gLE0Ydmfjm2N/8VDUu6gVJzhHkRBGTmcCScuQ47qFYELDZxvuhYgttzfz6XbdDIEW6AZ0+5X/GNoWx/CQFmt52F1O23YsZyFSpfvDvHzcQr0GdUh5/6kZAdEAdxZTQo6ep3pzeFqlY+ySSht+uJUXgaXUGhBsHPmiS6gGEDJ3PPNi/Y6e+gQdGPHugfp1rRCKGA6hkQNUS+hvLWeaeg0EI3yhZ8+M7eidRqtQ7l/iwx/2wMAhYuZPgyPazSZoloZADEmAG8aIynRqzwg9F+UYZLm22hkpchN0DKYWAg4Bxp9p9oGHctkg8OtunHIpY+TkBa+VpIagzMKx+zJ1ESKGdkEjcoKoFqfnlPeu8dAj19EDE0mVA+0jJExJ5/hhj/F23yo4xxCxl29eP9jdGHkTnmdsGkjLrMDH4w87hAKpQCmfkLc1RPThwZ/O4B4cUcAGRHKyMumUN2w7egtT3JqlOXofcXntCVA1TuulHIGvlpAWaOsSt566pGgu6nRzq9Y3wYAewt4JDRAA47pxwhQ0x/2Kt6Yp5sPTYICzKuXliQ5SlcFy2j0KSjpe7s8bYsC+c+YJNyaYaMeDgpRVYYrbIA/s1DpxVHW1CIDqgaUbJfw3tuBKBVozwms34ByPMKbJ0HehpgMYgCMMLtz7OM592yQ7ho7x9Nbv/HJ3vFzXMO8xrkMYkcEs0IZkMCXGuxcvDusuIJyCgoR07kwWEhrF9+FpywsEaDT9HP5Ue3rv725+6FeVx/iccW/K4K9XRyMD70CGRIyGEJJbAjWBnOmtU5wCDEW4IvdkgwBVI0HVFMpdOL8mGIOZMOCQoR4OAUAclWOEaw2EHlIfBasCTYdR6OniCYFzvpW3MOTaMXhxYwGjIGOmSmic55e5VYvoIHD7eHmrsaQwhJsbzFUjHC51RrWSRsdIPoZACAzq5bBejSb8R9chiK6oCoCjGXLMBZdp9ChmbXQL4BxcLZxglTmNvrfjAnulxGeL3lOa8rZCII2yoUJAsxyaMOJkh9NR7q+/u4wQpRUYBA0HMTg6Bcjhy/TTWk6BLqr5q/rM0t6d/vI//OHv/rj/+BAv0IT6uhGO7kpsOjwFFCNEE0AsmVjIGGltbCEb9kTdRx8QkhGJOKrSNE0P4/sOHggQJqwsu4Et91hNq+d5fjvnKD4tfS9Lu3Y43FijtTsMkOkWbT3aK0YZfX583o0oHvBp+vpTp3UqhKPvtmDnIMdvP/8BE09J2mAdyQU4/EJ/Q0dWClopOuO2W8yEBvE0XoUO+O9uaws8lMiD0bg6GFIKeVLM+v+rjYsYI4DgXRjkSPH8Ur6d/7g5KHREcI6UVCgkuAB0RB6hoOxm0zd+OO7j+JvPjuEQqg9KtTEs2gp0IJ3nqTSFFNuZTb9ozynI3e1/9p++e/3v/umLT+mtdbs0S7Neu+epdqUQc68jFGvmVFJkknFaAaqbEidCH+YoYIREfuEkA1OOc9nPTsjNYkIlaAOUTySoTbAc5AoEFJP1QDa6peKgSrGvTuWUzjZt8s1x88vrl9dPAfTwi/0P8MXpeXspGZcD/nBZpnMgDljFQowFnv1GleswDT87fn+dboc6ohgAVIEUumNM1KqHI/5VexmEjjjldN2xCrgHhlhCxto6eouHpiEO8Tjv8UFWym9vywNfKjTkc4xGYRgX33GC3YwSQIFe8DMazPFeO4yzAsDhFi5rpqtyXPbxyNeunKe45GbzduYZXw+8mS/vT//VX4n8N//Hprf0Yc/rBpS5dYeMTSRmiNaUcx9GmAJNNvbJFYdzoJEmW40soIkzujbiMahEitF3JYRmkdUp6HDyGAmtVVvm1FYAmrhVgjDXVTmxab7ZXkcsxStGW76zj55+G27OSGv57uXFDo9tfcJo+f6bT38fT5vYHHUzTwtNdhVzm7dqHiAWk8zZDuntSu7SQ/JOMWFtHiPhd7AZDrV0U9LlutibUZjyuXNZuF2Hg4RMkNC6aHI/xprz8+VxutSC2qFZgsi9QcbuoMc6iACPpbWxZtQR7i+T1MRglthMqBsFlkY3rL0eYj3ceeNybSHAKJNcYXr/+B/9J8f/55/8yfDw+adwZL30jBWzbw1hxIyEDTmN3imy29Fa58gGOfJY8z1+mnTFqYPFvKs0NaTC+dgqbR6lO0cxZHLygYmAvO5cprozhFNcu+eE9cpxTq3zEV7FQhhWUkj35XK9XvppeRFID0/rw69f2jgPAM9f4ff61bXel4u3DXVJDCBPhuQW0BRmxzA9fPGrf/HbTS1Q04CYQqq7UE4DvySfZOta7g/11U7haSTCO9+vFKOJNIFw4MGB1gELjZpvQ3x5SSeF6HxpiASHbWuOs/eARVWbhXJMb8AqojhpsC0F5i3WXu6+un7qyE18mUbt83IuNxLSLjzA6XBXz1OZpv7X//h/+V/99tyeLxOX+XxhNp3g0pQCegpWgy3l0hwRwkKXhgspFQe/8k14onwJy5ASuJvuKwCnOMerzhVwMzSG7jFDsCYRIaG2FvPeDctEAzGENAbATbxWit4NBChGFck/v/3+I7qE4Vmt4tf/9lN/+wE8xjFPn0fReM/dxxV9SVAN1i2a45T6RrNz+ua//I/DP/mf69WIhzFgQPQulKeG74GCNUA+frl+b7kiDYDw+P78tNEc6ioBMqk5VT/cj65+N9pV/D3UjU+6usFU9l0UDnKJLJN3M4plxmn56SJIhyHS58i8pSsc5i/tp2t3M5ujbn25sRHpll80QJS6fCmbLA/79Nf/979Ge6gfa5eyQNsVyRHVGizcKI4R8TBdwYZgLrp3mtgAPYMp69VwhNg5o2JOVntznQ6+wgG81UKbJ+k4kasrB4hA3tw7wXBGg1BCNts9e2wQxNSVy7x1NVzginTaJYZ07hzy4fHuTz8KLVPF47p2s8NCtA+jQ2lXAL+CWbjl8Wzl8O7hv/jP48f/9n/a3ySSWjBDcASzOBk+KKcW3On2sf3otk+8N6DpsbSPltC1s8eS9isqH2cv58vBN9GJR7UJjHiX43FbAdLj+lqJj7Q3T4Gjxtu3TziVw1uVcDsqZjzPtyNKEzcQnxS65CNf43LbPtocFAWPlCXfXx6O/2/V9WBbQ5WUd7OG6IFMqeQdaR88ZxNGZbRgdVCkoHhDsfyxuUa9YmRqHsggH1jWjRfofojXCv8fR3CWJNmWJQh1d6e5jaqpmbu/LiIjUiolqwQpkeKHCTAKpsQAGATDgAHwwV8BSTWRL+LF8860u/eebu9NCWud8ZawDqPIjg4JXGkK+3WEtCt0wxAm1n6YkAhrHw7IHHFXXsfWVxhIr+F+RFe1mQANw/CQ4+1YW/20PDdEgDBw7roNF1i17HjKn374n//5+Py//G/POwRSizpcgRgcEuAfm2HH2MIHC5P+fpD4hoaS+whJuQGBxE/790bzVMfPX46X3jZfjhJYoNrcjmm5lzlAwro7pUv5aiEgOrMe8UPnWgFS1cytM3+Ev9o01edI6wAsvELnENtR+DJAlOXFRhsdJOyjx6aeq0s3cwAEo4ieG7oVFTDmnhYxwLJF1EDrqpfbry0ZayVh7u4IbhSW3A8z9JTuDQPYud4dcJ3HUHeGCvnF/2oozciGEr3oU6JWoHXaqqqEbhmH46f03j9efi0Q12c9lWLCQwNn2myVqm1dHvan/VsjdJKVy6idfHAfIOf8Av/j//T2v/+vf92fnqBRbh0QHAEhAv7kIzcInS8uP97/taoGtu4SHDJ77ZyB42V7HHyON//hai832quwu2Aq4/X5nsMD3qhDgidRP9G9OhISStbw6XgA+sNi9jEGzJ/ev2IUbSbRYmwUBsjAiLWtYGSSabhSQw++fD8MHXWA5IpE2IbEQqmyR3yqRdYhyaIQHU5d00+1ldtBxAFBSEHIrQPWFi4L9DaYYztU0HPfe4BpdcF7CTIGneLtgNE9v9ijWIYuWVqBFNg2WPFo5OT6KY88//j7b4em6DDcjUwlx72/iN1wrGu5nf0wx+AcDgZV10FmGOJLhJd/pn959m3TpCPG0Yx5OABPgK9AAXE0OU+nH8rfvzw6J1Sk6RNofe7GGeCcbtoohsMDRf8cVdf5kLzb6EttWYucqmPCO84GnY+dBADjj6qyN+Za6dRNWolnuJMaxGW0rjwPT2jgKWBvsamF9Ipen96yR1huW+VotSChSk6jocMWYhdPodYmM1hVnfLMD8ulnN72a7VhSMghsh4hGIIH3Z08nfmpHPExWMzACjhNmWPfRghIk7zfopaR3/LRdy24Ak7QwJaf3kcoo1VSmSx8rO0fr7/WSANh8KqHJURq/rYluNOHU/l7IyYbIASd1RyJwAZwPHkNazHislvWJtFGJ+nGRAvhxUMyGy2cp3yKX9/vFTGhWv70ut/uFZgEf6hX90kBUYH9Jo6f2ki9UOwKDO7gdXH1QwLZGFELplPce3zxrw7kP/54fWd+dsznNL42Xudcfq+WgopAjB0uVE6PL1Wmf8jP7dvop0t6gNY6PHoFKkrx7J173SEJYZD+bDI7WqOzJH/3aTSOfndSNwpKEYMN0CSDuI4x4OXlUEA8OiZzDuVgdB3yCnfKAV7i7YG9OHDOvdNmzMQq8aB/jLf9SKdbaT/T3xOYvm2N13K3AJTcjKFh9LBfzp/TlOq1YAAzBRKGMdyn0GFUmc7heZudtDFCtm7gripgKJQJLyrRnCyee0kTHNuuGGPrIVyw7RUE0yr3ZwTGQdLVjEOjyzcIeqxrb4G7EjxtzrU5MVkdp/O1vCylFLrM9dpDOP389e9T6Obp9bz/KoH8dP71rhggC54u3x7rkkO91+FvuD0KIy0Ztr1+OEbHwH0f7mma8XiWnkJKrOM5mN1D4MxE2+GugbWrA/7/SCY9eIKuOA5j8GkGptLUjFnjZD234wBO0j3OGLG3wupWe1Cb1745mmXabD3Fe3m73L7xv6l/S2qQYP50/PpkcWZM3claXBjj+hexTjYGORMgIKkaIjthekKa0A4AqRrJiGI7AN2QTEMIiK+WWJUhTK2nzO2+u6fko3riZMUkZKoapSiZkmjlBM+TvUPScXEPSTaN4/vIc6g+YkqtRB1wpm10o/Pro8EBE7TEo/JyGt/hzR+H/7huX3fhE7X0oX9L/7Dic0y//f4x/mZOItQrDV0e3OED37uhdfwQHqVBQJ7IoHRnr2Gdglns74fxkp8VOACRYRDRDTMMRdwPSFEiOdPWEDqBh0SAXZsLDJSQ2cFaeQn7HV1B+aWOVA+efac4n74jiD7SH/QuXdsZwtv4+t2ZE6GQGmz82uElfidsrffuFCnkrUc6akzsaaC7prVWA1UAJGLqTUQBhjuGxPgBFmzVaKFKEpy2oj4HzrcH5he+N4wTVlt8Q9GDfoi38davH/7ewTtMxDlA1Uj7ARKx3CDPPOHvJEHQW7P0w6qPZxgaOVifLi+/3ed0tK28vc3lb+315XhwHuPTKU3V6ff/8jLdTA5+63UPsuc7jfBhPCOOMfwspSmI6ewQR+3oNa2JpR/9PiQucjWR0DlDjkdHBT6UCUpPMyAiuHcl6urIZIg2wA2JCIUdDBmkHiJGJeLdF3fN4RFmmp61KSu8DvvpeO+XA9aIt/tYL6F6fj+CwVz5h7GTw1FseIoj0IaLPB9xZY69hlHkp/qV0dwAMdAYmEjJmiKkhfENZzmKcdYWI/YIdThyWuB2SKbWTOY8hgyLzZq//eH59Zf++vmvNLRyXkha8ziPgW2A9FYlcsTaFVmwu6QP/HX3KW9jzo6XGW5NHlvY2hqX83b99Hp7X2qbVj6n6tP9LxOUdto19djP7alk2n6k7n4tIcaIvfaILQ1+PfZaneLMCeW5V0oLjodSDsMxCIxK6DScmaxxMgoB2hjAQ90cSZGoD4QQGggH7MjHzsmNUCDqvRCHLK1NL3p6fJGee31LOvW6+8jnp0IfP304/dqm90dUy9k+6N88pdLQKaiRI2ffNj6zsXccymf6ZhhHB0AIDpEGilZDzIvjJ0y8N0OsOK9QnMXqEcJ6ao9CCEYQ1tqj+1BAzj8+Pv8yf/qPX4qHcpm60eERp2IB4g4TYKugC+1VwZDB5st+77iu1zoxLi+H5XYcHZsnS5KmxMs79keO64XGTvuXH/Rv/hPtfI3+S/28zyLXFL37c8+5p+y1YGIb+dy2w4YusQdc6zE4JB7Pg9aplBHIPQxDCh0EcYwucwrUxkGv1w4GZpYFfECkfmBMMpym8hwALIzIBdqQyKXNU0jTXmAXPxYJtPGjk7xoGR7nmHpdt8HXNom99b9x4EERKBRVuACqdU9ePJi5U8ajcHADA0HDFHefegXween4M3IfMCh0W2YrHRY8KtE063GgYwgdueJ51GosOP+h//X13/Zff7tO0l75inaE2BQzBG+BbZG930Lshr0jD10/PHejGQqiJG9hsd0o5ONoQLj87MdP5SoHIX2YEfZvX36xv+e3MsNfcsvx1pYJYdyZvFYhkDCNZ1+mqpdL2fas3/J8WA7tAMScjjo0z3yMYH1khclDGaQArjhHwdGKvJXDAK35FAhUA3V1iNL47Ze//F2sAUYiLoyOVDeahEK87Pf2I/1m64f7pk/LSFEUcfNpxtDDvntosrZ3ciJM6DLUc+gyjTaIO8TmZuuplRujOI8RsFDwIXMd4Jbc8R+Hj07Aq3SAMiTH0WC0GNvo7BpQAxoG72CKdv5379vHP/1t/Ev/2BhrD+1BQRHBFxtoOqfu1ybGuQ+B7nCB3ZWm5ErMBVI7KKeT378yT7iev6TzdeTUdT05Ho/rEj+v2t7ka+8v1uylVE4HuNYRAEIUOPqSi85z6bDglxrQCYoLQpzrY3iap+ajKccmEaAouxsgpOSjG3rETuZDYwbQAehA4EEe6aPg7yVUdPQooTTkgAVGJ6azOv6gv+LyaWvjK61kwZ1yLxYQx6UVxAHsvUNyjeBonEeFmHsd8sbanzHKCfvW+iEssFFsQA3i3A11kAH+2bS7E0/5aNDanMgp1ScHqJWwxskxNgd2Lge9/Dn9+ja2ZfxleaMHlT6kDxw+HfSa6b6rAFFTAwLhwgia86OZrKELFBOpO+ZMa683CCkmqTnb947xJUWt4fnt5fz/xlp/+MOvx/j5uftUHWVHlrIhIeaAdSypadwPOi+wXX3ygaCGKEt/KC5v3Eo3MMhgPCoEoOosSWrvKOBGsbrjtPanmSOzmkvcfKJlP2LHQWMiK4Ugv0i6Xp1BLton/m6+vj6GguARpmeJIgOGwjnsu07myUpdTrVTGAe+tiaMQ3tIIeqBoFMEbUMJhjeOpgZI0ZVtOAv+eRwtRSSO3SK+G6uf5zai0L2zHae33r3ELlrV4Z8+/T/jpe7nViehz68wqtjRXYOllwC3vUKgQdHZDuQ+Ijgkq5iWfMikR7dWIc5IehDnQmGEP5xq+9sWX9JCyuXzvP4n1vrLT//ZnXeKdXCS3WIaT0UyCOQ1yH/zqDSf8Pg+GJigd8Q474eH9VO7hXmUpsEkPSpjkAEQJivuAwUrccWIHHUTaeHUjqLiLTEipjos8IHkA2nAtGZ/1zHkPBpIVVxfjsrL/Pj2ln47cpLWnJA+wlc7QSEpW3yDHfPjiJ9qMQBnEEqXx2YdeTFolqh2RyfqQMpBFVU9nfFPo4+4QFcOsrT3wxFzRPIZn3ZqPcmWm8KD0NztT/cvp44zT1OQr9ybQPZHmUYhPFE5wjHO8j0vNuF7AdNVSuXgSOvrt2PJow1jFbYxUGwdt4n1/Jqn2xc/D2p4gkfWX8X1/OdrrccRyMGxO0sAKBxHbSFUCBKmMXZMNnYHCDgUAKdcNpX00vd1upsM9FP4XBFDjNRDrs27ESQ4HIAEqfU8jTgf98MYjALjur63MY/inUFCsfiS5YuNpjl5I9n7eRrH8emn47fXl7++TxGfbTbUD/MxYy3R+pMmADqe05rG0R0oiggsjycBxxfYillXYETGgTCIhoM6pVf8qSe34GNwmqB2rQKyhr4xOSYDG/6iVspw5j6fvygg0zLZpA+6WQ6w1i0cCgMZUUo9pycAvaT6GEYflq/fNdDwy8v94YQpjKlzEXpO1v4x/Ef5cYMfceVn9LLf3l6+3y7Hd6n2y9sex34fG2fvR5yErIxLqOrVOwX0SY49ReiFXCN0FIOwjocTJLdoZX05Bp7xc3VgjlQktAEIaEBtsCBFrgOjjOGjAoe5DZrf8me5drPUPbN489eP3772zBu94g3X+ggAoh6W59vLX+7kl1Rx288/HAawi17onpdjs72lCam7hxgYpA8dwHNg2be9AE2E0XeNbM3MET3EE/5yFwF38pjARw6ld7q0vhEwmUdQWvLYrBch/+HdtHHW0/m5IxSV2Qf3nnexImBLOFpibaNPf57+YtkYt10RPLzkZ+2F19S7Lw2xJ8dfPv6nv//zrazygxBvufzX0/J5X2UDPH7A63LC6605g/YQMdBRX2L0skNx7hpxjHmhZ43owdV9OCW3SfYuYJ2mJAbTdidzDKQ4SSkYaXivGAiBQxq7ISkE31nwj6cvUp3geXeiaXGFwNtxulxbUx6wpH1AAqrhDFuJ+tG+9AKnF9gf7ZIO7y/r/vjjh8/Ex17G4FW0ucUkaImeFSLiCoTj66bpzatChwBWFRGJxATfunIcElyiGp7mugM3o94bsQCQYpoVGpSB8/w5dI3UlrfW9uqUaBfd8wWe3h17St6EVnzf8PWyH2EU0jGAUc7LzeHB57Td0oI6IODprb0/fxkj0sw43VyHtXcIn277p+1sv7ngZVzdRxyVcpziFxQZXZM61gGmIQY1o8hDoFRDRqAIYKoeBuFManUoIgZSWtNxaAid2x4CosqS78VIajr5rZKcfpzX59+Oo5ILyJr64LA9pmBSdkXOcy82s27T7LJvp8X0+Zlny+IZftcAl3/8y7Ykl6ND8y7L1I/uQkFrEDaIA3PmZXx+r/OlH2rOOHAMImLRBnjRKoHnqJ18qLzGK+tOYb1eJU2hdJoIQro7jxFAvfqp2oqY94flF/09YXlTfQyPCbhomCXJ/Wgm6AEPVHNglHlmolKb4ZCcB/BV0y/bO38SX6Bp+wP/6/2Vr98wXm788fnT7+99wA/z1+EIXsqHvISjHd6AUMRGJ1KGDquNIEXNzEnUGXwOpTF1T6QAQxVRRNyR/ehTIKgdGYeGH/LnCkzVYhhlxOXlh/Pf+vfnQvc8RvDcw6ftmzCJ7w3CXCGX7BN/HTMfOhnJ/Tafd+HpH7/+i2cPf7xeTVF65OYgIkErSZ3GHmMIRTuvL6TWnzsvVmy4u6UxMDC6guCPphQwnLWVPkbLM41jxLAej0BTPA6ZlgZVJ94akOgRsw+knI6KEOTeL3W5k4n1sSzHY35pNzynx6iGxE2J3Bwiydu5vx/P+FJDtKZyjJdL//v0KZSPnx3lT/L5W8fHznm+Th/ww/89dL+8LF/3MTi94y/Ap/cD+lBEcSBb+OgIOGlFUW0KlNLel5jW67OREOEYAICAjiTObmx1jrw/hE2V4MPl+yOe/NFQqHZa3iZ7fPhy+3F/D2oR097fHKnR6Rit+XmzFwsup9+31/jXyFuiu76uNRBIvRt1etW7maIlBnImXOEGExDUdJL7ExvylGqSdhhFGNtAx6Am4mzjHPEfGMwIVynVxtE8zaNq5LNs7Djdn2lK6o1J+obIfUSixhHVRFuiezxBKzFVG54gHyx7gXXWUdDR2gjRzIYwfVhv71Cmj05P3PuH43idHuXDh/h+/jvewx+nN/4/n9Geth6Qfwx/f5q+fOhuX/ZV3tMFywvf+y7dSByFF9srLU1tOJv3gZwy6Pmc/PeGw03VEQCI2f4bmKVL7Ea47bLuLQQKiz54HXtDpqGOgWTG+evlcTuFDYT3Z4zL69PPw75tcdkxBQdvCPzyzWs5pztkoBNM9310ZUl8BawYIyRWcArjiEIiHLFdb0DUR5xShGaYfOsCzcOgddQJxoeCPzIg5xaCe2z3ZtNlf1CkzGzIx60l4ZOAP20MFD0cWACXUDdkiocSqS6bQwxz3WdpeyPUAEYS52MbPKNCx1wu+L1OFs7xcZXKPzyOl+kdlh/lPXyZD4df/odv/8c9h7IDtvTffdtvQf2Sma+PtUqtk2Taj8ZgGCIgE1iBqRRDkt7MMKSQTp/gOgjSY9vVmcEGirhgxwmKByxGbZCYBomB9BAvilF0OHi2ofLHNtr9tF67WbeUX354XnUan8dEjUPQhvqH9ff1ulc4551YDSN/G2gWI9GTSH2aSsDJd+ROJ7M4wqhQ98bz2GCec/Idkx/DhvI8plwOnvr8jj9y19eX73tm59C6pZ/xrxZ575cT8O0+RMIlHvjcECv5gc6EKQOURsSpyvMIOEDOlPgW5mdpQxzQIMyLhul7AxN3r+SFptgCv0vsPGvJ+TvLh6H7Hjg/0h/2K3TxWqVN/+Hvf2tvT0jTNvcxyk/8OyZuqXoDdl6A4IA0PB7NIMRWGkjKcVpe2jtmRWi33df8qAMk5FMqrs9hQMNAgTCi63IZ32GCQ4XcsbmvoxqfvAl5fIyhGPmvEH4AACAASURBVMJI66N+zPtjzPTcVmmk9ac//WczGvWMmw5gFCgd3FL0PnIidewYqfEEnpfSoYNviHUQpqPLfFrhhgR+tBHOsWHSfYRl+lf8QRu/Lo9Hjh14FOfz+RgZHxpP5EXNnQM7VVUb6tUxJXClNBqeNYzwvBkk94m7VPZKU2uEqMMjy08//e13YakwrDlQHk8e+nra4CXtZdkGYEqPIW5d9bTaoGMgjfjp8U0nmK20i2u16M0jIbahCBgmDP1O01AA0R6WUoqlnOZZq6in/GxeYczz9908TOdVCvbHrg6O7igc43jOL7Dp2R4+P2uMm4fQO7CyYUKT0c1JhuYSz53smZfbPRPZ7uvlAfxy+msg3Z7AITlocVkOBQtrOsoARBzLWYLL3hHGUcgrMCTzmj5lrIch1jGWRcoeUYd8XP4L/nmoRO11mh4tcHOUEx8ht2OwBHB3QGTPXUdgLdsImRS086wjb/F14PWpCUsISEdnhwyNcICn2Q5LY0QfGiliUfTDCSGt8pCf+eY8HseSm+eyOVqcBqe9zOR1pMNy6LTxKdbSgR3BSbm5QMABCfuE2+iSsOCrPQ6IS1a2PaShySvYAkq3oTIFikyZr1c3JTLFSFGmpyfstj48Wh/AFU50N6Zmby/PPpZSLBrZEXPY9rS0HuoAId44ONFHiLtf8m/fu1BojcDncAeEMNkxlNAJWfKlchuxjupSKyRUHi3N2M0oEI12iWhfAQUt0cB/YqydY5ni74WFOQTRboPcB86MJN28QxqEcJKvN4oICK5+ru0Uz63gdu3CI1LQ0YHV+zQN1i5nfN5RIt/6dB7zedu5H6oJR3q7lenFol350GWb5udurDEfIlJBgUfc+pIGbr54FfOZI/ftkO4cU/NdgszlMDNKjgtsB+ZsGuLeJ1B1V0iR5VGdUlSKkuE6wKqLjM6SKe8tsGPakhb14QDncLU3e44PlyvPx6P6KzwVeRoPhcvym85YwXBYduKfOxw98GjNVLA4YMQBAkKjGDMyULW0Rrvz+hySuG5NEgCOEUZ1knSiu1wmu707JusEiP9E8djCKefnf1XnEEMOg+oIwGMQUrBuo0WgYCXTo4fsSGOYCRqltVJr74kAloKXcXfpKgvVOJ5jXfVrXxZ/6HKuNIV1+y0fFclWeRqfAOo+w+Pluab90Gghhl4X2HVkincNEtLzmGk4NEiv8/E4HFBlOfvfyRHUgLpHkVx2TQHQPIXdkHs3sMhTrr24MIvHc3mC+3NIFIVZQLeSieZc/dYBzAxXV0dUOK1PZWtqKfVKMtUnaPr0vv0QbndxM4mEi1nJAKj98HQi+lqjMqHh8IHEPKF1Yw54DDLzfPZSIRVce4OmIIkT1jid4/Hb5q7GQfEnEasYFyh3HWOeOQw6q0JXRRzEfRPGKBvYYFSIDGsvoHsg3vlT3m/Yp26Wi/Bhb2t9SHgMhg4kUC2JEE70rktev90wuLWRp72lsJad8ngsGrAyGQFlfUznDboiVhbPPsqntlGfMXHXsauxwx//+9/+S9duRM0NOCLaQSd2Kz2/6NYCDCUPQaDBQJBMls6bax9HQZ6Tzl20lBHTFJC+H8i4Q1rrgawma9y1WEhlyFQ9pfuOFs7xgXN9RAPEczw6OOdOqR6KaX2d/6/35JbxUHRwZF5D2JoPFHRFbWERJ9V9Oll59jUEER9VMufp+603N2DHHxP3DlotZOgtL5ARSMrDFClhIbe38OzReqsYeMZNJtiMvaN45DZGdDEO8njgbCjEaqbT9LTe5MzaQDziF/so9gy9B+obvm17fhH4LqPa2lEGJQ/dBTq/7D2M1pwSUaGSqJHlLLJl+DyMeDld2nUDg6jNACSMwS6zaxvM4vsIomaUSJsyIccACd3Iy6gNcF4byHQM3acUOksriN5CjPrg9H2cZh/hqYxdPWMw6huS8dtRXc9zfbb40oOZxlr5ZE+3CMRjuI5XuHUhHZRTZti7NecgjK1I5D3mh+XE413PH0y9N4gSEz42I+l4MP57saOhHXWeDAaKTkKHeelmtqTHWOeLfrMQ+lN5ppBuEdb3Z3CdaX+zIgTHqWd4wGGf+l3iadOpizwk8NMXGlWNpPGn9yMt/W5T+N5+2e6L1Ll7Kz75EMoJtIEYwul4Co6BUUyLIzgmaAIEbAc4USTg7gZyttIQmYpFAHRt4aXv1lUEZQCSNgBMFCJMvgP4aIPIKWM27s0DmzbJWKMMIOmlSTv65XTkB4HqwJcApSlTBbOzPJt8XL7VNs4qJ34ejThA0fz2/qST7XietodhribTnHoZ7q1jSOitxhf8bkvtYiGqnyYfo+rsZV36fngS4HvF/+C1hBSez5BpsocZQfRufdDAGZ59Pkf9HnJpjDKBC6HjI+Rr9wCccCR1qN4BTqCPmGF+6sDQYIqhXx2iqzLY+eO/Pl8u+72n+CzLug8by7nXe5PYIa+TlUrZhsq6KaAOIYOnB+9BVF3OM167exyd3ENsGOZQdgm1O4shDQVZ6b2gOXKUCoiqwIGD5PSsOjB0QMaOITWn7glGd1zQZmtkWId42/CX3eLdZq47vl7otxF7uCNDvFzv52m60nRzlDMddwicx9D48+eHidflgz+KaSY1WflRAg1Tk3kgPfCcnrsH8RpXR4gy6pjDY88T1cI5d28F/8lGS+kE5Z1DgqroNTB29QjEulVeM2227NsMgaDSD3Fr7dK/Vw/c4zK6EridwlUJj5w5bmWnAOIEQTedAVlr+JA+72+XZz0sHCYf2lcM+CHdry2KV5lfpd/Hhe9DlhatNjFnfGr2Do7q+Y/Tcby7DSRURASJwP1g7Jwylc6IWazcR7Lh8Qy1SqgtTnMbNp2vlQwv4wuvOpCKR+Z7CL1TXnqHkMB7IamHTnNNpePErW7hDcvIcVxBY8vhPtMskt5v9vJjf79afvnwLLv/XOCxoYSMFeAJs3uQsqOMIWHIolP8fY8TF1smOELc4U7TQBB/VH47HbtRNlDEjxGrpDzJe+8IAEg2CCUouDl5O+bQgZg2DmC895/PV1MsVYXUZfJnqCyT9IIOPDxRw9Y9BDQfyDkcGp2ytqf9/HrH59MV6UxfFSCu3ivw+d5Ol6V/3T6l3yG5BzhstcZyFEZFNYRLKjv4qW4hGQ8lHGepuoPCaYlyfOcQUz1Gs8Bq6WO83izDiH94/etjoCCQ4kxfjDVEuMsP1d+TOWAywJov2b/hUr81mE6CG9cDVr42zjHIy73gM3mZyCpf5v64jddXvT307d/PX+oXW6fLl6+Ql6YFwtghpNPxDNKahgga0mrXAkEtXzDtzwZWcFai0ZrHl3x46QGcAr6yDBaNZxjPgoQc+NHmFGAU5Zj0jvkZHVJpkhD6sZx6MwNVB9cQcc9HlRUMUh+pjMydRnUUCeFo8ZWuj3h+tace++X0hNaGE52m981wfpXtQelVv82Ltcfx4/q1JgeTMsSNVzscqyEhCDI4wjBCiNyEh6NWp8YvSaPeLKPVjmDI6HhZr5uGQPnf9l+PphjcjRRqA5IcWz03NTIPiCDQQRLfx4z94IwIWJqR0OgUyvQzfVUWjY2w9NORT98352Up15EuhK36IrXpiPMDzaZWPMY0IITjQDEAyuI+himd5GmDWsYNTmEAuVaP4QDZxXSOeAFm9MYf1/p8tCiJ6NFjzFSqpdnxYefD3dPYYUGMT3vJxWt1cqAjn+B7aoSy18io7rxYU1T1PMXoh+f+vvP5R4ftZglkNFeDcfp4fLcUVnoWOkeCu2AfY718rRM9PExlQ4ZpaTubwAZiLc62WwxmHJfakn6Hl2ax0ZxwTM9n0NqdAAwIONFQFJL19Xj6PhyIiOuhzuwS6SFSp3AcL5U/yX2DPPnDICadrs+QqAY+UELzUfl8qs1mJxzh6G+3mivznA3vzZ2psEDdQTRrDYqxuyR3lhCeGwTHaBQh8jFmb6UDSYunr/v0Eoy6OUZ6QGza9DXj6gmVHT7Nz7pVybOPow25xP3wOCHd4aTGDb1IZpBWU4RTeZoFSzec0BWCWesLNeuac+0YGXo46YjVsR0KcWohKOSxaWf37tPP+E0nhaooH5ThWz+hDv7we7ms1yd90G8QlxmPlh3D7/UExUyR5DRVkFEHjBI/+KAKMRCkW+dhrTGpGgqguCTZKHVVMUSFHPN2awicjKUFPhiHpn5+uz9aeJmulRMW/LhdM9W+hEcGYx0wOKfcruntcdjaa8Q2QiCkbpEWLAeEe8Oh63wtkZDViWgYv8T3HYMrCTK/xIfh9owTxHGE8D5oWr0iAIkUFygHr4xvHGoPgrN2q55ErHctlpP0Ek8Lvh8QAymVPS3MctTgdrJ0q+zLs70m8HsI7R7WcV+DxbJRjpp7sx5iIRkjODjiND1HHziYtDFOP+4wNNxsPaXr3J89SKWx6JEv+2MEAJ8ixkPhsay/F3JhUwNIb9LF9t66Sco53Y541t0sqNlQAR1GAV14DfuDEFCNIvVx5rhf1TDkxo6ztWkjHj2t+5APad8Ea+twWp6p7LPoI9YZmfg6iQ3epssjfAuTLeNhHMX7lt+Ya3+G6V2x0Wm6HjBJwCxfu1BAH8hSCgogptRq3/E0kUHm/dFBUGXF0pGHO0o3B/zzRN+rhOEjwoGZmJvx40hJsHhe6XFAytS9msSRYhu599NI2zEwKZ5XvXz1Ue8Ya5teSHuj6IWDDgytJFKfpr2KRHruxkgyfATDE034wKJvP7Zfc7ZtGNNj/qk1rk/P0qZwlPNxCEp+9IEYw2gdJOXUoRZHJ6BFtsYT3WWqAxsKFXAIOW2SBL9apKg2DB0lAPtRTZwQjM5Wl1vIm3oSlDOP3UZrOfVA8r7Lm3wWu3Q+1LI0XSfY91R6WHnbNEEK+6B0bn1+AtxQLAhvinOEOMXfdk65luXkehQAJJjpUVRpHQank2zbrqDLR21WIZbhnMLRCX9e87dK7AbBigVJsnt4POMk3JvG0MY0EWpvwGmweIuoOtZS6hQGphTn7wmuY5CDzB2xqvRGYZrcy9YoS7atweXl+wGqHni4B4XL2eh6eDq9fbvnC33fVcY4/8DXw5VJDaRpHh1DDps+URLpUMV5cth7XWgIJq8FKViN8+HWOXo1YJLkWao+AjNWj1Z7WKP72r91NjhpGZOA77jy0YkXgQ70QDk+pPsI/TtOlCsFyu3pgMHxnz5+//Z0uen0cr3RXCkfgMB8eX2M68YRjbCi5MDm/qw6n1vJZ2063AU9jKez4XIfaclMz/seJX0wPe4+oyJN83sD/BlNDSVjHzqUY4Bh42kpLbkclYGIWCbbURUJuy1oVFoeA6J0l/B6KGsbI3ki3zRS09E5xJCO3iytYdy04w8//3ZVcAJHHBjkJbrfS2ZcPi/nFf62AQ7ILgfPNqBXJBo+Q5sGTHRrc3AfUuqJ68nKPntnDr2bC4zgHsNRncGAWDVdgLYx5mHeYM5bY8IQTnorqH7yrUumWmgJtUmZ5jGE7lPcZnDsuodwjOkMZW4Hd8iBMX/82tb9rmF5fhdGXviKifC0lP61r2hdbRa3SKra28gv3EcG7Zyde1e1eDrqgDCBAuizz7M5p+0aMwR65nwvEX8Zg1hCpP50GBbF3fuucVrm8qgZOPaWpY5VmyF0vgx3UCxNcKqYl+m7ePMyUqRuuHFyH87ULTaL7KflvcVtnC79VhjcCMExT6JTe3J44Hk7/dCuezGBwktosNTOOgaY4Q+9/HJT9ltfHCDQe8thkX03Imah5wjOFFLZl+U4hhkxYxkhf4ifewhF+BhptQZlTNFoFAQ8WbthNh0URSFviBoz1FD5ZYv8tOEDOp3DgK7smM5lN4sh7QzDcG82X3C06HKq3ZqhdLQC5z4S7QDUkcKMpOi9ygLaXXOO8X7snifg7WgdMzkTQwlxCKnYUwP+sQ2ezrSd4avHZw/sLvjoIUm040gRUjsCDaPOE+DaFFKhk9y/A6fu4U/+PWudvnWS0yC9N6LAkbykVI4OnqWG2LsDNEJlIHVhwmWA9gxf1z/d++V+YN9wQsxvf/rtdvfgy3sL7uf03lhAd5sBcZh1Tt7dROelDa5KEhOOYYNwDFef0lYwTT/2Lw2EGbqSxDbMAwFohzBrxGsJQxAdJEJzBxHrA37id7BdfGjigbNZ18HT1ANvcIr1moLcIO2WTv0gdp9tVIA8b083mlxjbEr4DItIBXJvDYSHBbp8HM8+bkeau/YCylxsQU6esOvIoT0h4S8KmM/y7URfKD+GkDt4gxnHDNcmS2AphwexwzmlcyrFKk5v7zfANez6E2yCx4f6flz+4d2/3I1J8wTFP4b3o1pWGHLCdhSXpOMk+5Bow/90u+Voz/7Tv3n+FTae8pfny1x6+uVT+xccmotzgbdwfaTUHLArT13FobeeEg3PbsBmsvI4GnbO+nDRC28Nw5JLPYDJ0JDSpZTSeAqHqoeXLZs1UuEKjkYiEGBqX1pej3KZ9lEGJxfB1h07ZkZbxiD6/xiCryXJtiQxrK62OCIiMrOqrujukcQQIPlGM/7/L/CFBiMxIK1npruvqKrMiDhiK3cn1uoVTAZNXaNoSZPAaQnGwS/81y3c0hg9TGn4g6+ovWNAs66CGil8GQ/Ex0h+DvUQpvGAgInIOibH04wIf2LGLpezj4LcXQSDbhhnPMSOmj/zQ6ajRpZ90OwhymkQcD12mH+E9+OtVhvjE2CT/DX57y25RvYThD22MpmGRY7B3ykucKRYIKDu+Y/fn5cvvz3XL6/x/zqcXn76b/VFRuvbP/zwZ+iKPJ0f9MfQD8Qjoo7xEr4XkFjRKJHvJhP1xhy8Dux+Wfp9RL/5LgahE54mnEufPMjhesrs1YfDkqZ3RFemIeRgshwtL/X7Oc2lLnPpOoakwME2hzrljnnVcoh3dAQHHTGgrmsbZyUDGk2sxx9SxXPDW1UPGcdAJINojbiphxe8B0Zuz64Vid7CMTgEKHvOJLY3xIh/5yQPnaQOMHNPmXN/l4ho5wBLP51faUJPNprLtZ86S7ZAOsxn2JePhXVvmiowx5Fze3oSLhULEM2Ogs9XLB/48t5TpM6xA9Col+m9fbr+O/+nP/z7+MvJnH48jomO8HyGP/q3kVkv9aEh8JTfR25OYhv0AdmYg3Q/x5L3GuejkTsor7GcnB2pa7ssj4qOUea9iAR4qo6Q3KAZxJ/zX0x6D2KRJXRa3tsn+f1OHAdkMjlOjYtzpu/keqHH+PIDvd9d3QP33pNpFs9X36hsNeZWHDwupisfFmrDnBbcAvXmUzy6m9J14oeL915HHYCciJBjpu2YJ2ugvUPGf+wN6+AoEe7IR7rSDb45IPTCZOHL+SAbeU77rjatfrz4OfGMD1J3ax1j7PZU6oGZrjLu6e/t2zacuOElptDOT9tWkM82T1XyOJykLPleZKEP+cPLr3txmqAjEHQap36Spmt88vQ8QJmjFepZbA+3XkS7Iwuq82xHn15/3yIMoyh4tvQSh/lzvE7b7j0Hm/B0CZE+diIh5GNgfBuPkM4qYrJ4FICNc7mXCELYc5i2d1+D5gEBt4EwPP54/f8QBIoPDx5Cs0TqwxZ9akyjDsOZLUVgGltXDldsMzdVDkdBwyx4OQ6PZ2vWyIGzw5SrxlydBnAfbog/pm2oI69f6u/GzafpBfajpPj0Wcv0Cp3HV3lZ+of28ALl9XhemWiUMuPpxSkLvndGvtl2ze3EP+p3s0FdkxCP60u5d7ADUFMlcUcP8/r9EZfQ+oDZnwJjlQ9AcDVWT2byw6SP+NjBVae4V04sZhxGUB1qU9pHlEjFPm0bedVwhaIQb3RqftfZ0c6SLyPpAI8LfpwICRqNQYyGZI4h9HFTT+RmNsaI5zQdxzWu7dculwB1zvjXbi4S4pPZceDQKaLP+pjW7UCEWjlEOnp+uRC7tjPG/ShdkuXFmFtDAGwkVa7b0z+HO/anA6AkkmxnSMOlGwCgnPg6wwOMcw3zBtwtBfWLlmhlCHIUnMLXb+HLFfuvR44GIciW5Fy1oBqeSiHz95FNPlmb3cOHSxmEXWWiFi0sxzGpj4KSTidHiHE9H0Oyq4OD6eSV3JUC9QoBUZ1uwqMfTTvla90trK7DHNQwhVNvVFA1BbXQ1M2U3+I7pcS4mXzDK6KUuyQFw5yGQ1WHG/7uhORVkjnPIKVeBuKgMLoRSL/UzaclnXtdk6Q+nR9aDANQqBTTvUXCMJXymb7mW9sAoJwY4/wsr/+kZzq5N+V6NmXANbr4sY+YzUngMv320M8v79dx76MoyhThQoVcUXVMi0XFlQgV4/rcYwJqPXnBa0Qqrh7n9Xlcpt9bDulafjsazYHf8E6hZN2LXeE5GHmp2wQBY6YS6F6oWiI3CItj0wbrtfq2SRI6GcDCCtuwwVFt9btdsXdkbRhjq+xA4LLqk6e6r6HRvDWLkxVFVGu4xLMuHMLwTjaiDnDgsK7nI+eqD48k2DDy3ZdzwylP52HMRBnvNQY8G0d3XJl9vG07AigAMZlKOzG9YfhL/LvHeTl4jL0SLuPIWViffZ7c0vdyk82veNTper4P+czfRr6mCPhS2/ehZiigwhGHngeHRjPLyh/fx+sPDx0c+3flMNGRLkr00UKFKafLjheVtXZZ+g7BBSWeD8mcpY/Oc6jKdJU64IKPvdWRszAhjidPo5RgXQJyIDiOSEGgqVfLKc77oOa3sbcQ+g/x+1lomZufzox0OfVsGJL5LHd9OZA7WLOQ4DBCIKY0jjG7/9PLv74HQ6ZSEDEg4EhxO0QWb6yxdyYwzJFKkP55fNWzL1/0rGecRxUonnxUNJ5yh4BbpuLq4EaJQ9KXdmAZXafMtcZUDpMk9E2iUSIjeyfxl/1I+Wb33qc5nL1joEbYzK/y0fwyf9RlOfg6Ceu+NTWMbEbI4NSLBsIJm1t7+MttO+D1Np420uv9W1jJqVUtNMkFT3xzilopCPbqMyw/3P8dhSc+n7jG1uepXqdd5ORny7ZZBMFOueHn/Msh7gQqk6f7zlGdDsjQwrrodyXV2Zuk1+fgsfWXC+77IAqBpXoraY51TFoZjnV6jK4UI22W0uhAjsEVlrU9BU2gH8aHr5OHBqOPwZMXgmkMtYCyaK0pxZ+//45c5W2r09mnWBoK+0OJAS9yjpB6xcFOqOCsL2tJZP5RDfJsLXvH87ScigcQAjijdmYHdqyBqTZfUjUIQ2C2/GFhq/J5/bd2u6bnk1c0qhXVIbI6MDdFsB4CRd430GZLaihTrKE/r1/ev3vofgntQA8Ulh3/mYcrjBrXfjcx/nn+8wmSuOy8xoddX04cfQ77UorbOGKYcEfpOt/q0zhILRIxUh/ZT1bKtdGUfa8dOWggjaPalat4VXPDkFhBNQaCU/Nw0a6Z691jQvV45VYOULnlR1ll8yt2p97QWuMUAKN7eB45tT4CqaKjpMopsUzfdo/WLjRQcYVngo7bkyODiQjAFf8yOHIALwq0LMLevDVAeoF9qhsiHPZWJfemfTYfA3kamKwWCc1sosGLnz1hWN/HaEFCr9Mt2HlHcgzQIJrmXikxluIQCCFP7fhgrGNeGJzBWEukWrtgvMCMX2umQYD/S8Kzuha/hnfHij//+JdvkMlbhxz28XI7aDwlwAt97Izv9nlp2wxHRyFVvuZ98LAQTAUsw8mAXX76uGOHS9gjDCiN8g/4dSOjAMa3sN99npuEajoiWO3hAu+KHKHHT9C3w4HnFb57IAl6jJAP7lUdIAQBZeuJrCk6RWkqExvEQPu7ECpc4jb8Jf/G10PxOIHJEflzeJf0fUCg2A9ljFEm6w1jKj3n6mw9S/vNf9471kkJuB5400hOcOyRVYEj2A33M3Is1/FNXo5HeqGwGfWE3SmfhaiJqsTszx4yBbIX/OVRZW1H/ESl2bTi1rF28ZCWTwrTX2obQQf+aX1tvwzutuSzwZDrXE6Zax1DGQbMb1rsLguqhtHtCT/KsXz5y6MDsjms4QQUUUDA0S3SGj6O/HZ+RNU1nk5GQ7nN0vY4LMxD36h8gHBPk7Vu4FIaLOu9gEyh+BzG0SN3CLwDL3n30eJ8OhR3hyWNgWjBmxkkSzc/9BLitmWRx9MX7THChowMwW2IteKgEjFLU8y2x9Ba1ZQQZeqDqCYZDZwF8Ta+F3jtd8JL42M6TRID5t6PEcG6xZV8p9anFYadIY8OOTiWyiljAZFWm3ZAFwraYHnh6M8f4M/vlj7LiXnfEK5Tvu8D0twoXv85fLX39+qkAz9dVn237E2d2TpHDzgv7xugd0us08v+0ee3+t6mtGvDL8sx92+VANVJYYET5wldFWTDN8n8e+3MB0YFEvMR1tU+DoYBbjzBYM51lIG0zvAdLODeY+bzhJhYDZDd1x++nuPsEnIs5iNzATKhE+ZcfQSGA7sRIq8wQJhMyQDPe44UTg6lwvqn9+9TcNRatFlEyJfavtj3kD4a4jQNWvsOS/7uK+7Fw01OxqOO/Lq/E/nSozfmXnhN46jA0gDpOj96PCw13Olzqzc/dwKfUpzxwyPp0YaBO0mw5tOX1/dtXNO3xwi3Gz/wYckTcj8KXvnML/Ry63+LH0cFNvx8m/bNJzyao0SwIIAW91MSbvgyWlpwO1KyR+GJB/Iy4DhII3dFB/wsv6kIJdQdfP2S07f7mS79m8dhE0HH19ml3JsjQEtvj+58rc0ahc/yuGeQdtgc8N5cEiEpMsJyeTy6V5rf9Cjd87TrRB27QsywUbQmpKZOc+gYheuZrHDeNMqihWWbcmhnXM7G2nwcGIDz0V7yqDoA+Lpuhbj4On3Xy3V/GMbAdXTv9Hl7AuYLG5283h8prdO5PWsQ7za/vGz9fiRWWu2MfGpbJkCPaTxR2M7iJIog0avFT+F3DQxnUZ4uVtEhkLRnoq2t3sKtT3+P/wHT8xsExZ8naicm2C16m5bRRejprsSuEA2iXMqBNh0fnq7s1SCyEgAAIABJREFUw7qak6DqsJgCpEcHEHHnqdY1IpX3P/7819+GGa15bNNrgpf6r42IUpHX/XR/q6d0nm7nZijyUAxv/bc2/9C/8ws9BqLQNoibpc9yPxBImiWvgl7DBEWTuoc4mlEiwxx936M7iRq19Kcdbu9Sj+voP3090nAB81DO0f160XbK1Pt1/bbhZBpjafPn8aFBJD7awVYSdp84rw0qORwEc+7aKnBTiCl2f/Q5gACQu2rMc2xlHudD1mbtpHyDdvol1sJpnC6TPWsMKMjABhL6fQnPymwQRvxyu98BRx+GP068j0jYbUp3uoziCbZBjOQjIEf19UC9zM+vPWUZ2IquXK5eepE189abdJBghjM/e+JP28c//vRf39WF+9xLlovk4xs403TI2ronLB1tznyi1izPxuFz/Z7+1+n//lv+/PYfDYfHk3LtFlY8ZD1bxeA5emkurgGxgUaqFqNXxogVFBUBIKYj/91eovEHwKWt9cMArYUlPz4GpPiircJLu+NSapx7pYBKMZYqLNDa4N54avBaIhbNo+YmBNCRk3cFm8yzf21Tzgrmg5UYPGaQcbSIRStJuC4fH3LL/d14qHHWYimCUR4pftibnUSnBq4tBp1/nN4/zkhM+HmWQxOqAORNYu8aRxkcTaSEbEwNQ9Coxz2uo+Y8HkbOc+jnEGLCEUZhCFTcWVvkLNv69tvWxaVDH1GiBrLDYpJqs+s0f9/isCtZiwzurcBFRlum9nunMImNhtzz1Lsh9Tq/Qfkqs3PQop7rIdkHIKo5L1K6wup9GKBSBo8cfMzbiZ+U6Fx+RRvuGl7S/tVyomtvx3I5PwIrCAxiYChTOmuD3JtMfTgFZ7o+StbB3CV3DvuR0A0wDLn6L5zy8OW5EWsiLZjGtKCFYf0DZ0n5/gyIdDKoKzApxoQG1MO06STm4KhMJmGnC1R6dFgi/iEMt2g1xnNOQ7s28mYQEKLIfGroYTX7EN/o09hfqRzFPEjk2hUkXuL0lz4jwO70hBkOWNK8bnAOU7JR4uyjR9yI07VWEYXb+/FSzlmw0SIfQaskh0a7OYDTZEaJKzCtVkcr6XP8eM6hqbO5g+II4hSG6oAQ8bQ56Og9mFEynb1fQvylyCzrtd7fhzrxkPD68v8+p6S5ScfX+blbHZKJjKM+dJJiHEtPkrw26Y6RC1TPMHyZAM4BulTjbuNG5cepvO/UMCBRwAbe45yAXfq3k+MUyq7DSKINc3REyatWHwMiy2iRCXE3Fp617Y5MVPQV/w4qSBwFouXXcZYx3BWcwuBbWLcGcWo+bY6lvnZEHXQeg4hY3LlOP5SxX/P+PoziCRd9xCTL5fDC0pRQu6VQbfTo7QIjomHa2ms5cSJ0yieMkybvYdmf5gTGA3lJ5TT+pAPHEV7495HZLfCp1Dy4E0epPtQx44EXPprzclYhAhywyvXXkiG8Uh/7OwYIw3q41o3XeO6ZfJ24PZ4DM0O7vPT3pwQMKSgYqxP0ouZBMGgz40UGjBsfg9zb6AGvn9rvpieGbB2zdSDUcLmcBd4e/8GYLna0gYBgBADuyLIuRy9n4CnXlumZqSM5sMnhomEuLviPHSoFbSAYb77viM0JwElD7hM3yPTOS1Ybh/DUNUo79pMEYJ3OY/7jL3W5emkfaolLsLFwtHB2FB5wq0wn5jZGjo9DCGaitd6R8TzmPOOZ1NO5yXrgje/efTSCAWnCY+SpU7IaMrdDo+uqp4+il3zYOutTh5Ms+tT1tt1hmvQERsfBn7aljljwsutybrD+/NcqTSF2vd3O+4g65Q6jtcGMGl75vltmpomPZxLRcUCaI7VDvLgMwTZrCK0LUNRu/NL9Q+bCCtRAtpTi4QsG73b5eECbLm7GpKUpTt4lDDe6jlFOhnBBTo/6Ksp4NzxndfCQJX7DPyJV9DYCCcc6HK0JOg3TdTpMBk/jjtMCOD12mcykruU4eshCMgAu3/gf5WO5/vt3xenF38+4zu+jiYWoLVPvFBKMkazgtI8FcYVNnid7Yhlt1T7DnT+3HddosB1duCnFrD7VHmyE66X72AYrofo5MGUHAlDsnUPqT3v7vD88c20BRoBml/Q1TcmeVjsEgdcffjtn93O456l2w03mXReqAwHAOJ0dryFas3oyX3zfhPNVi5ONFqBCvoKWLQQUMEFgr3Wa/I3PQ9uBUaDLRM+AUe8mGLJBIhulVU9u86033j1Q2xVxWhGAXugp8q2MERndYWIt+IUjjAqVM3RWD9o8MTpon5d+dozcFQInyeeHm02XPZXSS5jJJ3jG+T79C/0bXO3PrOHv+L7RKr8opDFissJ6ilAM1E+PuXh2hQ7z476s0Oy0KXrKj7HwM0w59/fdePJz0LRe4i+bmS03aUb1FHEvbhidE+4QEfoImEuh9aI+gDa94sPIxjV8dVzTh9oACrRMUrd8sac3WxqyaKkmM7XgvahhbHr7A9VdQTcSTB9HDAJG7OaDuoUprvCbS5j4WbjAlE6cQpqBt7s/YmgWJK1bW9fnA1USGU9nsGLGViH/iN38MK3qrCl6xr7Oj2+zH9UCMvb5usGEV5qpYSjjQk9MYyiw80TYy/xaH5XzWROB5wl6lQ1iMHDtgxLF3HfqI13kiZ/Gb6R1jQZcjLGinDwH6wW80YoSjz3O1EbyvYWsJQlp7QazxHg84kuTqf9c/3Y2z2tpZssXqvV3l7i04oOYyfVkFpGT0hm5iiurdVpcMvlu3ZNvtoSO9DAUd5Fuhjkuc3mnaRwv8Ctz4Hne7i0lQhyjdiXAlN/4o1DA3RDAjxGFBuLIshlSCo1vnU6MfFjpFLJKMuJj8IlqCAYSpwBr+wVvw9Fy1H3CriHV3eYryRn0+wEXw5DEyr1d5vowdlcBRVgmLzNeRwpjiX2s8MSl30eMxS/YGi4v+eMpaS80QjZWn8J7Y6VViwkpvkKfPj4I/IXhwn2DNtAilTLFOoc7B1mhjFaG9GUdp6c0GsGGCWQ69plU25iiO2m/RIr16l/3ahKFrUM2jqWBxDG0UnT0QQTM4dlkkEC+1NptwBQaJy4NCYajzLVrdTIIc+yHYuA5xe1hArf+FWOa1/Q8q4rE3gCGGtAc1PswJFXmKW5DYa48xgsYtCPSwTHMlXWonBqRIAyf9aFugycF67wyrunxDecIoLdYYfTekxyNb4yX3u1Rl+XpeZ3K/aExp/szBesAA2WeX38t+LnCghgZ5axZ9g04DliobSHny3Fe8b67z/nDB9yms+nJFzthhhaFJvubJtd1kSThqL43msqomH3xjfPMIEcfRZHmYUaLNXMXqHk6DovZe6MY2xBP7Bd6z76dA11el/fmwwU95dz27uJDXJlxuIxuDsazVPSuEmMt67UwdOX1qVQ6qQ9EmXpoHcghrDC5WdvOeON09XcNpxINCqM3J5iu/mHenViQM9bgMM6VYr/DWztoOkub1j1Dk1H7JRWIPV7Kd0Wvsg6Bs6+Tz73jORYOKcTB20cDHkNDdPmSjjFirht4nr09KTatbZrPCj5AOC9y4s/FL3MZ0a3pjE8XY2BBeCLJOo5P/FtFSNNzyEBJvSr/D6WFTLjS+x0Q8ucfY9kAez1TGQ2VZsRAQ2+KAuW7j8ipG7JUi429g4CEHQO04bObj8s87mne1vB+Gnf/9MP3/UR15OUTf7zXvI4CZCLDAAwHmOYf2t1SGSFFu9O8fn78Kj+Mv1FoZoSV2AVc2mAwXi8/tfb4Xix+PvW1vMsFW3MLpOPEEKeEh8M+JE70yGwv0I9jDbRXWBoJt9MqjyxDsJZ5seHMUiohaXOJ6XksP3B72o278mUe6nh+a27GRN7C63UHmduDAsMDWNm9DIjYkK07abilA//+hLzA0cwBxKvl4E42gOetL9PBdHRHfNVHCM8ziJlg4mcLb9MJcBZ3S3/4hz89//zNbt+PH+8fyhKpUnxZvpY5adwf1n2J3eZxmqeBqCw85jGwn27ZCZ/yU/pLnTnMH12485z8RH3wG5zLtH89YwQYLNmfwADcoYfl5bQnucmUxntNP99++3r5/PyGF9hGWPch6OpTHY7Ey2d5Ej3vsvC9vsn3kRes2IeZOaVrHtuY5VGX6NoF8s2aNis9g6RhiID1KQhMYEP9lZ/jsrZtuMsYZhxA480eA9dXtURDTbXuOACDUK3xlfYMVFXWWB6VOdhUdkdzDtrVAYUD/mSQMmovVSKdDaeA7q3Ea/reXj+N+/DWQkh6QGrPlidwBBqQFzh8AGCy/vZPy0f/tr3sjxX2tgRKD1N7mfeTxQTv1uMCwNM36OHSVVPAPblrqSM65brZSzpdPc9lLGGLeR/T+nxOqZ6wTMejs4CHC20nOw4WaizUeVggskBnz2+8f7/+qf3NZvjK4eW902WcA5yaRYk0MF1059v7Vi63UVoInvbHcEqdptxOWbh5UmUgv6HsOo6nTkhpHt3Rt5KCr2ZA2HPuI7wc37uhDI5O3MxZ6oiT+Tp56QhHn8OzUoBenacIOIyhB3bsjSdHP607EJurIdF0wT954xU8njsG2GuIgcGq8Wwbfcplk2EWgK1WjFhsFVV0A+/GocU83Pr8xzect7+UcQIYfrkff9ybUHvJH6EVtN4EwmIx3WunyU1oCBB0wd7mD5v0gVOGpE+OSNPxCF/a9vdv//2gMUI449SeQ8ghU4W5WQMkIlBFpMxjDI9gK7fH5adj4zZU4PLsFL0aDzUPmWyMy6WFLqV2us3PMwSHUWthGp4mPehFDoxoE/Wy3o539ebYkDzMI7g/j3VuL605TAqf/SkwNkNzWhYZ+xHc5vgthlPnNZBXH7DAViS0Z4+kKWsFMWNgomIBYQxSNWIjBwEhxn/pm32mTq0iWwNkNEJHsKKXT/pdQQXBOOjDwot0VRg5nQUgdoyBl/67LVep/Uv7tjvy2rW0P/Q9LntA+sz/TwfFSJAGE7U9gMptaDzRLCRR+RiMxwgrgJ0aY0yP7ZZtLOvXB5CI7LqqVlVxYnchOwdwzrUzWbiomsNQn2woppDwMfLhUeI42Uj4bM6TpV6XcJDSOp5juhx9kTrEavHRZZ3Hs9+kGcUQxmnL9G4YE3hp3uXVL/tRth8//QZVBcU9aMBTiVoLee2AZZ84Y/8KiwMnmGOtFEUHkBwHTe0YOR0IlhhyG4rkpSExD0cimNTFFP/lPHWdoXQ3nqAPrx3zDY5Saf3sv3uvkVQoLI/N8iJ2oMa5QS+SVEf6ge+6HmV9Z7DuV2VmOPIRhumS3uL4b3UxRRFwQddT2XF26QqEmFaz2m10wyThw4TifD7Tn87NIJcPm8gcCQGAqgwj1JFDG9gDu3PugYxzTr/2CJVsgORxMms0v7aG3WPcjQEIe3w73y2kWY/eM/mUBsZ+jrFXuUzNLLKPPV6ogqCNVeFVPvqunqaRusH2o3zvA4WDBzf30cnHCK++ycQjniDnHW92guh16poY69GnpXqMx70RapAOALO0zthLFw5o6AvtiHFuBf/le+ccr/row/NsRdtJMs9bHRJfwmatMZ2z4AW+jrepLedeh6XX+ltbpr7xZTnD695+/v0u4dC3c5rG2LJA38ff/3H5ePx7+Xz9euAlNoc+ptORJi47iAAtudkgJSldJZ6DIudjDzd4Ujp7ocS1O4JJYvdq7E4cZYzSAxPx5Dr4hqPxcOUD0+i1hSwUXEDt6IwDEypiS9dWAjkA9T6QSWhabW99OymysUtMxxklOjWIIQ1b++/aCVMf8xQU8kc1k4kMJ+vFELHrJHkfzBG8QtKDpqPa4NuiQ5pbHUQU0zq+NjOKsgGhgAer7CpCpwmEvKnEqTb8n3+rzNNPL/d/A4cg3bUS8NIkovY4+V4a8JxS+2G0KHiMcnTMSzu2KcPRRSSA4LmeM/0iX97/t+NfHd9WHI/vX/6P41+nX09cx1njOqouEEultPRnhyDcwgSuofsllh1z2zk3gYffLs9ih/GUahkI2iEuao7kAEjXUsws3Bwk1CZpnJ0xxXPDxUbrniVftvMF77uhY0jYgduIQkhDATmqSj14euPzlP3pxKwKIdg8HycS8jWNiripD8DQ4fLZj7n/TQHSpd3DWtwbL1TxpRRwDGNI8GGRYFdr6ULe0XycQEZhehn3XpEYyBBdxftIsTtbdXRiAEcDwf/9LwUt3j6lX3fqGMD3QgFT/ryBfvUl+KPQPGHcb1+2e/+BPt4LT+v6/ZvzXJ1s8Th8XMhgejz49l9+/f96/i9vcPztz/zT66/X7XBpWPsy34+8LGfNzGPzhWLqBQUdXMqUDlmeD2ZlL3yD9nwqcQ6j+KR7B0nAKLmfQ1Lsh4jinGvha9rcio80101B2IEN5Zp+H6sejRQjekJQdSVWQtTBcXEv1WhOH06tqycZbgawrFzGMJ6gKo0SQ+85Nw1v1wPHtyPGxI+HvFm3xpdoQyzI0ZP77XiPyRy1EvGq1WKvYoqqmG5yLx0RZKrg6mJEn/rmamYDxQHVHQn/Ez9b87BMoygNzmOrSHG5ff4tnL+F8Jrfv7PIGTLAfk5LOr5riPP1/DaIESxf706a/kD1eXl887efH8/SLp/+Tv7rb/qfvvz6HGOyqlBpHRWThNOzdZu5B7SOCNPoycjLlB5VUaPwALjYXw8MObg6jqOTIIYIokNnLq0vVHmS8ww/LY9WTE7hA7BhjsRc4LP9FvMJZ0cWsxRdg1dAMwXqIDkxtrPF23O4DoPMCENRHWbuOJCMKoMHd8i5nfAlv6NsO10u7b1iCNCah0nzBVye+7yY1+JLC7bVKdsVD/My1rmolSGXy/OAbhyxoY8hywVvv51c3FVIlUGNgPGnfJQBjNkHxwKTtWEm0z+9/NnTX43fpv7Rgu3h1rX2yOxFSWW2zQQn3ae0V1mvyaWH74dNn9vTSOv68tth19CUltGzjbMFEVcIJ2VMK3/bA5ipZIBoMT/H0pqeJjBftzPNCe7bUAQJHc4WJ+wm5HTh0TcNDBqil5HW1EqHZBZMxkaZmEMdt/JV3EW7Y0QGH3bDUztYI3GTJVqKx8a3/hxujoQSfWAvPZLHfIEKm6XgA7tnbUBdFz6qXy/28A4BKjiT3n7CX4Z5AJqTfFUnfdfIIeUmWDTls6gqhgudWnvKSlAV0hpqLewKISZ7DHbFAAF/Hn0gOARyoq4JkOzU239O/27LfccFumPqpqAh9VOCV6JKcRwQaIX9QCD55Bq/7GNs+unL/c9DqDHtNDlGtrdtC3/Ev92dxZwAkjOyq7HrOMPUlren2zHF0QP20aeXcaCkn+tfv50wODOOJhfcVQjC7OcokUbKYK0DyxKetS3zlmLvBYkj9pqm8QFmGKzHpQ+G3pdkzw7UUAB51RJvVJRg39JaT7f8mfq5d3CTJWXufUiQPnIoxbT2AYHUaOYKYDw50OkhhInuD49Ea7SM7x9RdgSXnE6a9TTXE6MPT9Fb1zChWKE1992sEZDJz2//8aE+8MIH4Q9DAUFZ3IhNCSn6UeKflm8CRUOEE1DS3OrpS/yobjUkxzntQ5pk+r4Hgjgoz2vdzyyLfzwhYYBHnne2efV9q8vnj81aFMhIgeDZVEAm0Ea3DumpOuYU9pf4bKVeXk4lCvZxSDn5ckNtJwZlHBSggVIeZXk5SauOcXk76jNfTli1VAAJAyJZOIsrmNLb27fvYWoKHM4K7GQgibuNELJ0Smdcv39VD59u/fvhDiRxNMlNZobhifHotSqIKSAgaUzGLz5tH+mVzzumj5bnWy4kpXyHZMFLj5ONSM/K7JhDVUfGZkJK/4MZ+ESaNze8fmnvz+YwmTn+6ObmlGAMZEM1C4zHeLmUNG/7fGmboc5L19phpfN5ehTOiarFJnE+fqGgo8C8/MP5C77h1J4fJB3lkj921nTrdhrHtqEGhmxjZgV/Fpa4hHZcQMlG81la+jT9udkhP5cKClHbVO/jcnP37YBl0kP4VOEM55inKszHAy5v20AAhqkeQ4QqBOCL7X0MHlU+X+7feB1eu6AbRB4kSdFLd5yFP82gz8dRx/Lm92EqifoYOJEuKWqtIdRSu/AXeSd7egzMFbJGazEMG51PisSv1MJzf/qyhLpVCK9U7alRHGWyo0sKtToNxtibp0ust/jnjrR8lvb96RYVCX9ABHUL7uoIUUuHdK0lRJ0+bx85H4NCk1S7A0TsfXikmVprLpdQYb6fE21d8fKn9N/b6x99b0+63Q+aPHiLLaT1fHcbzYU6gPJkKDCUcfgl1tQaX/Q8Jzh5+uP9d+mQsSL2IEnqvaeoENve1pd2iJeOYbGDZ2swrX2r09vZoQrY1M+2LuOBSTSF4yw+YwEkVkDiYhK9D8lgEzryfnYd02X9gc6mj/eeLmmvrsxkEEU4MinVyrYPgJwD7jjOyenwaEqZyU9NhlNrTuvs3gd8dPjp7S8lCYEP7+ZugILVQkq1uRsZmXm+lk79RARelp/0v3UKSIZfEABJ2U0VJdg2MLwRaVWKRSfs0gOZeMGpF4WIICi7eQOI0XoKRta6ybzPcPgXnMkn/rePC+//uX3zZ8qv/h/qho3QMXJjNECOAvtTVkz9zK/72Sc6y/hn/7cpjo6GaBcOXnd5QbVe2ggrHAHGCTErcizTDlPuB5Fp1+mk1AqsV91GXBzmcq9DEmGjyUwNgULso2im7jyJjHMrite8BNTzeQJPt3q4unTn9VaFBnUDM6ueZZHH0Sg6ez47GCWSCR4eVPLeql6zwBZe8feal70t1/rR4iT+cOxq3kni1DR0R3RSpUl1VCJH4Jd/vv2f74iJK34mcBTO7eyDYvRTMVxybE8NfbcpDPMoGmPT7I+NAi+pthK5dCVCJp0mnM8H4h4JfXrtz5+Wj7/hT/f90856XI6XL7/cFXEgDFhurdZhHEOAcfSFRrR02c9Infbyqu8cwZQI4Tq3Ye1l6sPbRgYUYa39HDn7pVDip3OsHYqaMtSYe/WQ1FHiDa/2134ar1fbhkcvDUK2JqMz1JHXDBXK0UZewVZ57gY2v9i9MXqnINFhWKKhw2bYJYqdRiRkytiNhIeHAMite/Z7X4Sx4jofc7expRWONk0exrN1b8OROQyW7uz/g2E0GAaAJOlTxn97cpit4k/uziKmdQxMUzg75QReuiapVaZ+WiKMYkhUH+68Tl4x1UO74eBZw60Gko+moiDX67EFGOTpfbUnRVjK9X/6y78CMfgwnG+t1S4LgA8s0w/fvy9OLDa+0PYbXftTQdwiIAihxHRt44RwdHNN62Ub8MS5hsypHWZxkB6mgD5kadY9DcWYhH+gr8Uw+MWfJwfHoRLKSNKrq4d56jtF30+8jvP6+lHRPcV2NEIO0U0Dj/bP//Drf+wwlYHMXRORB9BHQJqGW6PAQWuXzx+P2Yj7GOlVIdQ8jjh1x2o5/v8MwcnObut2GORRvcWc8yv+Yq219z6FfYIDOMgCQiMgkQ5CNJDSAtEBroFrAIkOXSRaSFxAhESXHn1EJ0KIxNhO7ONzzl7VX3zfLN5qjIGfx6z1oxuToZNgD1AHBmZ3QwvonE8ltOLBhuEvtFPirtRMPZ5905i4dWBd4qYjszYFZlY54X7QQBEb0/S2sWvCkXTkpimO0QM0ixNZq/LQbk4QkMMBdPIvjo65NZqTDRvz1ffWZrLpvrPLCPN+/ekP35Z53V3JjRk8mvEyx9i/2aJ3RZg/8K6yt3zYGWPryIOC3N9RURgVcPgzvjfMppfzGzxIuznpCNJF2oAmiY8dIhGjd8hT2ysOvf64HRwaQGkDhLI2QgSln/6tn/+6i+1IyEiJCgetN5D5cnc9ZEJzqfOHL8dyP4jK4OwUOHFJGY83m4BSxvUwBR6ODNCFW8PAiGqeTuiS9td83rsDKj7D0CgNZKD1dK4rBqFDE+kpNj9kUgNTxbp87G/4Ydx2IWCsHlznax+3XRjcE9TUB3eiWYd/gq/NeKHelBdo1Axo0pUnNrchCTriOf5hj8vWTtxIT5fbibe7qTmAI1K0IjnGCb7tEQqK0OVRd+tHZEA9eSmS0na6v/AwztYTOF1100FgPun5arrtHTCGEeK2AyFZGTwFJwAnZmHdDjw/7VVIUXW4szcYzq4sPQqT924AlM9zfRHRvvuU4w5awlWU6RUeFLZveNLeB2IKYHGZjPRF3Zgkb3sI2DpJpNrk0m6aCBl743R51PHtgBn6EO74BNYRQAhp9DQfBRl9IJGna9rWMOmArm4lzbCdP+63F75wAQhxdDrP43XtIRkKDh6KSINZ+Prh5z/UMHns9SPjNyWHc/UKOb0mV3aAqQVfBy+bTmezfGLDYxyjGTixNQqjoqScvK4wDaXQ05PdMRzhopsFrlUe8DWa6mga2Znc2enptQ5wicFN6PBunCOH++phODQP4hzJKJMRTlRUfB/kyEgWHexFSZHJ+6CMLADaEKMMHGjq6nlKLehB1/jlDpg+5Pr2JtdY/a16IEqScoz6WrO9VRbsnKk0CldcG5/g3oQgTvvR6HJuo7D61Bsj4Y/QAZwUA1VP09oYhk1c2OHhw7YuWfe6awA3NTw/tP1GJ7oFJh0CfAZY7/Z0emtpKGuTqC7gD3/vL9/XdB6o/uv3vlVFitiC+/WliYRBC7+INQdUShPqKWo+StJ+BKjxdKxNUJ0kJeQdz+0wHEg6JMYl3244T68aIzAo1kONiFhG57B8+FrKoJhVbYAzDMiToh1G6mAmbhISkpiyQMis62aEPjgGrYxbNxA66btyYBIDKygBN8SApqbnP7LPM7eG5Y1E8Ly8F9PwJHt7rUL8MK1+mfnWrutXAAYn8eGdT9pcgcnATE5irzZBJ2VO03Y4If6KGjlIoaydYrx18WaX+X44xB/G+BS3t0GGYLU1iMt5O3yiGvoYGmhwPMvX8vRnf/k1aGFucGoedKRPL73kZe9OocRQOzD7cKBUhpzzrcjjeni3AB3CVep13t8PnGOtJ21x3g+z93H0AAAgAElEQVRoJMBILtxQgtVRALtLeFi2rdtDfClTjBMfo5qpA6Z532Waadjm7sI+hhGxGZEiK7G6G0VvLrME3QZn7rBgr32I9J5Ze1CN1UL4sHx+MeBobQAbEgIofqS34ue/X/6VzI+Xv/7Zs3jBuTTJRL2lrSztxGG1lKamYVW06IYOjFXFOg6NZI5A01W/14U7lz5P4pvGjj+wRjdgodE4+l2DNpsu8r2SzMuEvX/XS55pPWBsjmfZOWCCm5kBwPAo3P03+PsxmoQ6HnwDDkYw2pzv5mIaptgK0GBwA+LwvHy/j2vrHUYMuo/Lw4i8f+5RIlhkglSOtHlMoRSIU9ng6eG2muJQx2U+KlhihSAc0G/9yVdTlWQN0SyIgxqBqntMwwaAGwAIGTCAtniaTNfiECJ1jGEMw2ydwToYTGAKH+fXex8QsQ8EB/QAJj+WbyZyojdNH376/e8tJL2R2PCzBK5FuuwP1lvlKBzD3i1OwRqyAhYbhsYwhsaT8aKv2/R0H0NnYtj4ecdPgIIKCYZ5SOPdqQ9frunbSjmf81bk24j5YTrK7K9tTLklGtQtqg3irVKaW5fUGovzsOzaRyIgbSzdMGslz9hNO+Wpj5TKdJbbXQIpyuP5++caPoW3PfP3higx52QWjm0Py7m9bnI6jZvNp746CNVOGMQPNZwYEUil26kdi1ZWQBxA09S6DrKmKAEtqKMOcxV2EXXEae6vQ92RKMsADsIGw8LQoxkFZysUHMAgzD5GcWdEw3Q+is12IJLQVd4OjVZMghGFyQ00tA3UkQHnGXptg3NIWptHLzzcATpCz09T6b02W2yYETgCToa/NGQYgt0zmMg+WjVarnJ/H9N5ZtvLPjgIgU/Z38t0bsDceuatW8CjU0pQe5CSFtRAe+XNJjem6mKYLsc7ApqGWIXUKASWcK27rF0o/DL+tra20LFffvX7nzlAWk7QjetebDnVtxoyoqELaoOU3Ju6iZmhIBI7znzUHU4Tt9pZTg/3aiDQrB9GeXYMd43a+4AIHtlkmWxbNzQGmThAtTDNZGUF7g61G4Q4Gps7Ei9nqvtmLEQdDYlgtncgjub58euWa1OKQnEZ1yZN7vebynxRuejeeRw9BbG9cYJCgOhdp+lOH+K9Q6PKgXWoQXTHgH+vI3Vj92lqG83qW8F4DlXvVU4Zz+vbbsxukASX9p4CZDH3YaVSRFIL02idskjPQ3M7wIb4mLkUCTnB0UcABJw3hOIYok55a8t5Wx0YnLn0qOOQi63OEBO4kRroQQEGmFKmDpF9rxyEHLkbdQtMQrrznLwUk2Xed0j5ktdyo3/j3z3+2V8dlE8PvLVjJ9bRgQxEmCT4Vs1AQs4B76ufMxuOg7xBsN7jTDa8C3LlU6SXYoCU+uEYQiIya3yRXujxtWgfQ5LiND+S38Ogr0eHaxhxai2G495YGNQ4WjdD5mZTfre8+KYw9To/+Fi7h4Zk+FFFoCnkC5URcj1ax+V0VGvdJ/FTfF8ZADvOtHIaRPAsLwEPaDUsgKOPmRRMPYIpBi6WTcBOeX2Z5vH88Oc78kw2QY2vKd04Dkyrx6JsyD64wzLpsXfJrB2FNWqzBfYahAVGnZ7q0QG0DhZipIRl+EiyPH251fwYrHRnByc4x0G/yX/T/7P/Cv7HfzpCxunx9i2OHST76m4kYWnFnFCBZop5f21pQa2sTcAISHgOQUrbIuluOe47oRslrV1yePBRofuJ0r6dYN8jHkSO8yVu9/qh7u2jvM0+OkpHhrWKcODCwcHbYOpIXHtiKk0e4bj80f5lVwUENXxSOcE2ZFpGx+T7SqpzagdRGRnKfGp9otbBImkXcIL5j+9feIyh8hD17hizU98H8QHL+bgNjDFbX9oew3b56ftbV1KMTITZ3yBYH02edQXz2TftnObHeHzvKSUeLCva1udwx1l9YS+8tKOrgQ+QBIXD7EoNbeFXx/nJ6nAfbnruCnJ58uNP/8s/y//T/3JAkkVuxzV/XtOZurfKMeBmIZD9HRkUvMqJ9q4DAV0IYTl1RzDn5XjbPEKF3KuTzNAA8EyDdFeBdPTzcj9+3NZk5BbgvVLmYvE0n95unmDn6KXFZIoAQoqmZizGirkeg8LjFE/4/WZeehBV/GSBoShydJWst8IYmLh63o7gfZ6GU+KqTYJ3xzGi/JK+2OgOMX745T8vQnOE96OlybsEO9RgQDTzOQ0b6jgwmAJgPu9YNfaiyNNDqQX/+POGzWx6TF7vtkQMCaqPtx4EBLXFibeC6IoWwAtMXCB+TI/999WtGcTLxCtMdfVOl96jTG34v/2f//sv/+3/rSWGZ743PL29zymHvQwP3tyYqCPXATHQ37GKXvgCb5DM5ukeNGH/4Vff/uUOAJZkVGOaY+2IyTX1HZSWCifaw/N3lR5xWxGUQCIrf+Q/3OOpdoxmxrFXzthMM/fqCSqzzLIdhkvKYS9ivRqJdfwBY+tuahFHXGrpGOLArHscJVDjlKxfLu1+j0m7hzdPfIKduqKE+A/1/3Tx58fby9ArRAXc+bRVx444Lo/robsTppnu3T3Hhm5ew8km7B18aEtzPXiK+5iGsUaCRXj8rQfjTK0kqsUBUOYyBA+LWT1cNcladLgMnNFMT3shxZQ/je/wKP0f/PCf/l//W13fYX7k9yLhKJdLyPvN925RK6HRkraKgtGUXP9OCNoweI00wKaYnqfXF+pDcaJdY6gmHsRxDPMuA6JjQJPYW4y97C4THSNGbC3gTgEKMWH3MIn2IPc9n9WtszYkkUD3oXlGMItcFBAq4C8Bx6HAaOZp1qNBWGoTktA2kmqXs/XT+fh8iAQ0WjXPwVfrFkWWv/+3v4OYJWJbXei676E7ss2Px9dwkezrfQOM84zfip5kZ6Jqcl7KVT9TxzoWCLlp6xP5WC5t8ErzWb+W7MZQagY93IFk9kPA1BKIJ2sz2pDmAIPIQA1YwdOP8K1nnz+9/tHrZ7O956UfKVQ6YpDM1NY14t4JOTzwe+EcqTXj0LoHU8OoQ7JvI3yMVAqd+jE80GaE1mmaDsRorUHsLg4mAQFGmFqxdH3C3+3LWlr0w6dshwfyYTKfx52k9Mv5dcbVmxkCCjeUedqbKwZwQ7OMf1KGtD3MsA+UQGVFmeM2+JrLWycLUyY+8fGlJ5lO21ujNHdtriDMCe8Gjw/39tC/u6fTWB3ReVzP/bXJj1aKjRoxXfdvY5KqwblR5szTrz+3UUoZDpHJtshm0yMffW9yoaMZzx2pHpz1aA4wy6ALvnVmI0sFWfTajp6xKrsvdQ+ht5S6AsSLbdb53CqD6kwF+uBgYfYDSBGqO5zCvcYccVDxhdrQ6k7kLufLa8mzGWwUCYZaNxXsmK/4BfLko008uNfhEthpcG7F5OkHffnY/8KneHvLJzn2HsjZAUiAXfmaNm6rdYPkmhdskuJL80YycLjMgD+NzqLCtSMBgxYATBgwhOO9o0SGdM5lX2nh+ePrZ6tIboAkphqGo0/noFbbgGAdjSUGh+v9m+iv243S2nmE07YbKyOKjB7CeZR5iVvpx45xnvdg/ZCFu9RDAVJsgMZ0PX87RigGDjKBxuf+dQgOdDYdHGCUNMlRspB2o+hDASSGYHTvXR5iG61ZpmE2M9xhioLvMVHfq+eonTIFMh7DoR0VZB7D5XyiEtp7D+CYGb0OdaJGc6a3OHeS9nQUuquF6AMTeip344eHw/7k+HMSeD8ePqxvbq5ISljkrCVnyar9GGp88jaH0jHFO8Q6QNEhkOGnBiIAYObEZophb/F0OjTfVwemlPVyff0Zs2B+7Gt4KZi7iYsZZFVDlnMwu68s3UnQXGKTXf+4ptHT2y5eER0NCJPq4gb7SI7LY9m9jdPgudagpufL7w4GDY7n0QGC8mO/azUD5nkalaLf24lsiEXfWaB2UiaPAayRhzC6CTN5qBprj6G7Vozz9Rgn2AtNFNoem+FunGMT8CmOFcUH6NZoPtd3xJjzZO8340iS18aAbggQCHPiexP0n/avUCMOoUEJd6WKKXV6Hm8Q9gYeQ9ec6qFqhCNMm5/OaVi31oZRyhji92ZpafRs37u5UoSOH5RFwVg4dIdjILch03SYHwMDMsx8mr59FWZkapLsJrGAAKvDnF8Ng8Q80W8LZOuctACQn2D6ze+/LNrvAogD4BRXtke6cVCze6KJwbeJ1yGc7l3aOcuH2+/IY280x2EKeFri17XlMYCnqXegY8TE0GlE2nCSvYO6MIeoJdWUD0UGmO9NhYdn3cEhxenBqmvlC71W5FCa10ASOmd2qLtNsXfC4cuv2/+3cZTw4F87uQBdz/d3Iq89nrFhyO3deeAVbmzDnTDEPqohBNHwZ/6374LryD7cKJzGOpzY4h/rv4I048boXYEGJp4v3+4NJwvn86rrbjRDw1+tHhEotuaQsJp3A47RFGB4HBVnnuLXwiEkubd8pm88lIQMkg0Kqir+UdLbMWJv8NxrZ+tLuny8/w62mngAuEwL9Ds8QqeiF7kzU0nUUvza2aVjLBQXMj7uwRynh3a3xpeZ9m1QPApE9NxNJTFo9Y6pjxxrg6ygYQL3Uaa0cxjQAI8eU6fI1mJg1EArBI5xfVfOc98aBxyOwAEHJEA7SvzY7iHHeu/EKHj0lI+mH/6d4/9VgN7TUoUu43Y3UCIxIHUEZ1I3A0Dx/K/hz03KKhezWmBK987uMc/P+f2bph2om8fT+VsRQYZeegDIjwe0AzjXgp96Z8mBeql5Gb327hznuR8aqp9aSTTgtB2Y6Pny7SU+2qs6Emc/ctzK7N79+uP2ulArOvTjdb9h78jXdOu2emC2gfls43qvSgpuIQ8AMs54jMd8fKdsOrQuYZynv9mnE5yeeHvBapewI3W11hB40ZpyaKY29QLdEg8HDGHYABnNFrA5lL1w7JaZptIuULsLGStAkLEjjunUdiaH3hFGygoLDN+UJyvecUkN6H4wyiR16OXcvoMMJRGL8bkeXwDIAQGDGhtg6wJDZEg68bhToCPBuJ7e32w0R3B4eCo07YeVYAVPT9HeipMiqzUCxRyktyx+N3wi6+np0vnLEA7rOtxSDoTd2jFfTKmrX+A+ZKLT9GVPsmsC52x9HuNA9Ia/WtbPc25aETmMrl1DxEDz9504fLitShngCvc9mgXBuKMTIIVGP9If9pYSV3CIKcltZdHLyfU4+880U2EYo3dgltxEsLqnyUrpLNYd4oUMd7Q7AMRIMKrGrJ5sTFZYjt2IlFGQSbughWAww17IiQ3EnLvGSKsBILNbyut7B+DFAJRmrgXQnNHDFN2+MV+OI9kI2JyWUVjBn5dvTbLrgcTnul+e4u3zfbCY00gf9btws4BV0/LL9oWejt2iFVWI1MMMtfn1+a8bfgRuPEVY3gvY+diGW1jwyLGVNfMlVy8thdLTbPDHx1dqe5jYS8qqHQ8QKvDJaieQ0TmDbe5m6rhclr/pi8N5O9QkmowRhBoE4gJihoEUMm39gJMYW6NTaHAa+/18eu8PH/Hbe42KmVvdPUdYSL0cNDMzji5Wh+IcG5JZVQCfxIG1wJQHQMPQPOp2oLAbBSAAVmBxEOzVOGUtCGbDw8XfHCVN/no8XHS9dcdlzms/Jw3Vjk7DXE4Ixx6Z2mCgQdApuzzc1vgPPvzVV8BGJLAL0DzaUUeK0HzKNaZvCm4kHadEtF1++f2LRNDSYclFMx9jTB9+7vibZlwhkjtu9mB7VwhL1OD9WCEuLNN2M+58ZQ2/hK/wPlKMfoNT2NT3+HFb9aEVpPB8twE53g4lawCSpMmyFZ5HbSIACvGUvlfmeEiE3lG4a7AQDmUIaN0mwmXaXtJ8158e6/Hy3YXnk25bz4sSDGktnKjPT/sL52P3rLtnCtDAOjHlwOHrHh6pqpMfFvLYVSJ2J2I0N2dyI1eytFgFVFODZbJWMSXd73ZJuNXhEE+nvp/O3x/w5TAwvtgIuB6X5e0g7ACEBoSPT/e3FmPvLuxk2DFI66M7TanW9PHy8zuBN0CyEZjN4MMvxrdNOa5VQvSKqAM9suGvnWTtlMIEL+tMR0fgIGmpxyhtSiOluuJcPUt6+LB/met7WLyukCfFvk8/vH/TS60k8HQAD0r3DR1sguaaow+FT/4qXLsT+Jy2Emj0mEOrRqxAlmfbmgd0MobBD+et4k4fP9rt+70pPDzQdm/pfNw1RPM80QEnexun8/096ZEzxtzL3gFlnim9belsR8XY9xHPfhgKDCQhtDbUgRC6B8nUAFW8O14uanchx3qIQNfhipxOCL/+N//it/cx0GWatc1H16fnf1Xm9LIDBTLX0/P93boFtGW5+cTKtZl3JZzJLZ4ut9/7bG0wggZXNL5m4u1AUgMWPVy4O0no+BMw9xHUAraDQu2IzpQesGwbTKhMXsLVXillfhj9Q/xbt+Jj5MdY2zCsFdgogjN2hhTvwxXCU1m906nj4Mf6mh73V2MCJHR0PrUBSF3JicED1QECe4xzW/X80W/Y16dfYV9f9waPj3rfRpzratkVcyTtgYrFUG+JHC0sAbbNXBgIPNicbytI8jLS2Sr07iRAAUKrteKcWgMW6Q6DZugo02Slyxghay2xU+i7YXx65n/8j8v/8JfYKYZzG3n5DKdT+FKv4XfFwznY0eW6F1AD4nRa/RqPcVQFJJIMeWxw1s+wRC0EPoJrx7wcvowGyNiJWsVEw2SBij8AcIfYCzA6UVNFAuRF8K0ysVEAZ7HVpnO/jOPp+be1dzOnZSlRvgwWbhouYdfRPP0AK21b/mX4tneecgltQxt+nr4rIbM7Qk+/KN8wsI+OMYTDa0vRoVe++O5hWpratkzIequNH6fjvauc7I7Z3FEIZcG1Euz0qGUUekitumEOtWGPUyobG2doB03iuBdKAh69aTewgB2DujiztSCdp8jjbQqrxzDukFr4qXw+APMP/+i/fvz5v/v5fZwFoo/z/Dd4FaOtl4NjTK69xh/i7a0xEQGTnp/He973zs/z670u/D5yKBYmKsajUvQDcjSMq08IYjBa98g4MAzCR2QHQAcFMEKq3QMALQt/KWjsKSlPtdsIAVPpj6dt0959jg0h5Fotcu/84O+pHhTnnNKX18vTy7bUeAkdt/fGYsyD0J0I1DQ+tveYGgGcHt+La60QY4DWPBAiLXYjA4oU+7exXHi/q9ISNpyQ8XCFOGupTM0zVjOZ4oaLQjiVVaJ5H2HecIL4WjCzFg2MyhPdW8cU9WgTOfjgFAtYl8skbXtYvhbBYllbfwzHnalP/+S/+c3/+t/rN3r2Wwxynf5lckJsuNqyyDqCHfwh9d9XBMbGM+bHbhf4eePn5berEzUUBncYndgg5KMJM3LaaBkjktUKIBSw10H4wQjJDGigd5BJVyVCOp3qt5GaUszz2b4rNDZfHIW4dm329LhvQTuD5141nbx7K/GMz6H+vJ5842ux5Yr3W+2CTgOI0FRQETCrMzhQuP7i5dthoJ1FFn9rCcDCBbaGHXPkfNtjyuVeVRKQ5Ix4b4fRRbZKiGD5qCeK4YbXGnle1/RAb/cQuQyJD9rXklKviGYST/2tcE6+DkSmXiidmvY+Tcv16CD6CmBXqtaqEi6Ph/3D/+Qf/c//+1p84Z1ymuT7ZS/mPN0HJVYfIERp+r4PIHGPAT9pm+1Ll6W/RTuAMIgPH4oMgGGY8UmPkMxYPQjX3ZAvz7ju28AfnUgZhoO7IeT40hEUQrbuwYvS/PFh/TLr3Zyf431IbDs55ImPCDfLqbfiacl6HB6eljP/zTfgIhHM84f2fTdnEh+MZgTixsJ8UCavgcJjuR9G5qh+lu99otH4MY21W5qp2I9w97yvxXMYlrM0xdqVpzBKt9Onu672Q8FSZFYmPUaOWFykjcFTWsLri1z9jtYjwvXh8xqBZPRqWephKTUNwfn0bOtLTR2JHua1yLoi4cOH98uf/nv/9HMZI3MBiVe4JbV1TL4rRGB1RtEQjgbACw3NIdtNccPH6XaLWDzECai26oyONN3N5EQ3StNGPijacHCffnG6bW8H/kTggxmRWleJQu8FQDsxZ/WlbV2eH8o90lpdcuIVz37zyB0ToNw8n+C9KgKaUbS4mPS76cho0MJybIgM+HHcIvWRcBjgJHhQIOiUT7dqg0wz1JpTadPZmgFaU5agrf/6h/WmWz3wYdnWS6hq1JmdW/RKy5+Un+/h5P29zwsPLu7WLWQx0wOzoDbwJZTWMCLGx2/vUUiiv5dpqnuNc4MpdIKQ+ft7mCO/+3UfD3DX1OnB9fr8z7V2YP87cfLOADvOx+EYCTqCC2Ms6srBOZw/lm9vH8crXOaXjYOoxQwMzbuNwTGvh6eci8XLaNobkgOq03IyeV3xRzEVJOS434mjWG3qRG6Sxsi87fJw3bfBzQ0p5EPnVIfAcBJcqvFl/t2hwxyBiDk0DkN7PNc2zG2IW5T+R9ffVvN83Q51CoPEHUH68/NfNGIaI1NvHsiR5mh3LuBgXcAezsv2WmCNv/S3FsQ7N8rSWos85ulh+v0uJY5m80nZG+B+t5QvNPaDhExRdJrb2hO741QPCydpo+02TXpAwMRAfbjk+3uYOa4loDPCtLxr4svnJrU7OQJ4JKMEXSfe6/CYzKa+U/Drea1Hw9T9usCI59uaXPe7pTTsDDiHvdNxI4TUhktAj7P0drK37obsGNM4TukbPhPiAl1RoEqoDCZYZOlDYu3k1THmoV0LmzFzNwlshedjxPRUK6W6ObSugRwCqLLQ0OkJWm+l0XIUuWh8/l5N0sOomyevQQ9hZEvhW5x+iH84INhuwgn2wMjzoQCtBoCkId0Ptw9Pe12N2EiDyF6dY5vCCAfxXugkqD4f5cP0ch8uT3Ec1ZkRox680FoQafSU7a6XuVUrQ3JWdwQmqzbJ2J0uRxM1gS6nyaid1r2puHZAR0D2ER58L5zTUTFn/ohvb0XSjx//pmm5+hc7ecfzXNh/tqUeMVRc8OG8lbu1svgOQh3ZMc1Q/cTr0WiyLnNq75wPfHJyydWJCU0bm0o0ZJYgVoc5Vp9DqvpqDoHULEaQO142T/zsd+S3PmFtTsRg3ZCy1CbnRcqtUNSqcIYWq+YZHuh9C7JT6Mo9UdPh+eEJvqth22nqEx3N/DT5kePa4jCpY+mHnv8I2npXJ0ZwZzdA7zNTHjvbBqfrfZXnfp9n7XWnszCUQ1NuAKOnUz96J3K44NtgojE802EUCRyEREM8GgOMIswwCqeYz8ew23COobWGSMioPEHT+Zm+lDyp/Yf1d9t7+RDKjph+fP9rmo/ew1Mc97vHa3HqTD/8B+//7KjWAvTuiXajALz0xM3qcIre+PQ0v7+q4UdXF+kY2KE3TQ1ZiTVeLrA2D61r9+t8x83ZQRqO+fQ2DU2qmKcO5/C6dqJO2EVKQeKHhN+O9OHx/a1lWXvQNBUkw/Pz6e13Z3wfC5ioxXaYRuEhC9oY7by8O/ta5Mp7P89td/WoO5vx9VM8vm+d2AmGEwW23gKQnPxmhnQ5DrpO/ZAz3nYWB5HjkNgaS/MLtaLOyVI8qqqZTotvGqljbnBhYtjMWyMPHLT1rvOJbjCNwpEWGOPokVHIpJbrH9+/djxxzf/x+vbbl3rFd206p77xKE6nJzialpFnbIb2H/0X/+L/+RfleMVw9JTb4RIGXnucaymOSNRpOQd4OxR/UDWAIA4BR/dRKQAn0jA1qBa6haLzODgB4YEMHpdX49Nl7zVzw8fn288FM8d7NcQBzolO23b69MPnrzLrayWdHje/jvvpE3/eL9vrlKkABirVPIXS5ynUIDrzWqLvrV0eX47poptamMt7UITLKfHxWgXNiEaHxGB1EMnTeHckp4TIRBQ70Y7cjpqjqDb1SBbZNvM4eTyvr0JtIEP3tMC9RLAFMNYy6c0FZ1A3G+3yi9ubAtp0WT08p8+vYQbG1n3Ex2OnfOYDf7mn95+VuVQDtpDjfUPx59OuZTd4+vB1Zf3X/8nj1/9j3d4a2YhydILo9RoKxepqgGJMIYc2DD8C9orM4JJ0zO8bZJ5nbJX3gTAkSDvzK+fTsaF5QLHpPuicCh2SCj08vrw25InfGDpKgQTBdJng/Hqfw7b1AHFq03I3ad1ouo3n0G4QxbygKOkIYap8HW3AmPGGB/7UVwzaIEzhfc8+PMV4ka/VmkOQ1tFJXI14pt1IeIxPrUVtEpWpzfFtwwanZMdwDgFMD3R+jBVoN7bG3HacL7y+oCAB5VbnUdEoabGc6/jhT/+89G7dF1f8lP5wp+zJayFx0pCDy7xpPkpTdwfDoJHjvU9WpuXwPohsit0g/ZjrzVtvjTrGVYNc8YXm3kJP0K2REOTLud4MP0I8No9Ru1CHay3qcgqjYR6H5Ddgx2dtl6f2fQs8hhOlrnAK62y99jxRsSHd2SatEnbj9MuyEQyqfTp9reHsB4Ocb/0ws5hGXg7wMmL0Yz7dh9fgIbhAi7QzVVI6sdtaLFxCKxZCUaD5adyLdUfhgdKdwYP6xXacRHf4Rb+Z2pgzDYM+IOgOFzkg1k4c5rFX+nDc5l+8f3VJmcre52WU4RCcp7l9Q+AFNuF+oHg4/bTm4/vhGBh6SuthhIyj4zQQggCc4NZHAQEcSCa58XALH8qLIwoKjt7zAxAOU4jWS4dGXCyGJ9pqACATcN17nlwkhreCHwB60xSAyMyApDZIXIHOkEjfFQ1ymi7p93sL0szCKbWtXiYX3W+YpmGuYQABIpKP2q4/+NEVwDzju8+XesOTwHavQBAuoaL68Cn7QEdJpYDCpMNgTrUAWZW08Po+gB9HM0zSD9X8IHi/ARlzp2trDul026IhT7jX/Av6fBO2JKyjtpBnqcWGTkupTG7qQew+Pc/r7eAEBoH8hsTI0EO0uitM8dNhue2eh/oz4f7V4k+TrfuKaS9hcdAGUXP2V2DHSr2LMAHZoOrp8TkAABpTSURBVMAKu52v5WUApDAmL8XP8Xy+reBTaMfoB/mAKLMOCYgyhsTwtoZlmIjddnxg4r0Qpxl0YA9SDNihI/kyl1bDKbKmpf1B3Y3BSAR0nBcfxVYM0akUWdjUp3TvUEs+YSPEYajq8Vf2tYYflvL9rRvSeSqdlvRuFL0SxHnBulqRRTenU9yGD8fpg7y/FZfJq8sVHcebfeRp+2xsRM5nK82m5bYjQooeQOb2h3rCnUMgUxMpkII3DFgPAaxNJi8wJa7qnLSk07J/MbQwpVIdlan29Cw+r+V0+nyfpjPun/3006mO/eu4HId8xK3vCpJzWHt1WUpnigWXhdfCH+/F1in0Qw0lwWJ7Mc7PT9vnGi/zOKy9K7hTmgYQOLpSjrxXCrUzaBl4DZFKE0HxqhQYmicxbqv6nEbFJbE1xEp8OJpBdDpfmoW6tQgq5q5dPk2vOyyhHA1ZTZSjb8pd6TT30WnOWPfm6nMwGvHT/krcKxKEsIQdypHDAYKChtYxPU32/uYRa+dwyZiOr/Uyhe07sw0OSUbtFkw9JDdspwtutcVpq0SsQHGu3wYvF1qJeyOhoyuNzlEYCMWhOoNlf+1yXtqGOZQAqzyMm7Qxnd405+uP47cv+cOtnP1bu3ZPP9JfmRkALeHovfP5wOjXt3ZOUW76m/UPp9uYqkJ1Ch+v623vxtMc9iNMcVQ6mtIwjILgNojAKMzeMmylQyyAH6ZWRDLqqN04L71CIIzHm6Uz3nwhYCv0d6yTjf4432359Lo1hEYxzLx1H55DbSqBpOpl7LJ07a9K7vkE8rhvAzg0gtaZAdVF8GT3hmYsl1l9X5WcRZE8xj7ousD9rhnf28MUBfx47/OH+HKPUEaanWxD8sKnT+HltXHMyOkJvrzLZOw3kPN9Aw0zr+fl0GbRrHbOmHBv8YHvOqZ2WKZ7TUsL4D/goVXjKBVBHYViHr9x+e0x1T59fP8mk1O8/M5dUWWSbWhHZuf5svVEndrxLPe0buJkCgrXZ9n3W0fmOWkR2ZE6KVVjDqAsvROq4QPY9XgpxtQRf211ICCSdgezKQA0T+JHD3M4LAxDTnMfo1lgs+zKQJUOJaXMkt2Gqhq7GqZnf7M8DR11FEOXKfflQ39RxCevFd9rEB9u00S9AO0e0xwift8GODt4XKaplzyOGF/bKf+sj1mqh76/yydZ2bszgSfcwlIrnR7s9Z2Sjw6ywIucspMVb1xrgHHhLcMuuEWqjaYlgvcRM903/pXcD7gd8DHU03FL4Ofj/mm8F5dUkVjQL+nx9zWHna69HuDscy9ghj1ZdU8Dc7NLjLd+Pgy0BtbRxF3RFOn6qOWtOcoUfQvxgDiaIjkRag9zvFcUtRgk46Gu2gf+WsGagiL+/w3BSZYlyXUY0NeZmTe/icjIqiwAbERppB1oog1rEVqFRqJ4DkkBEKoqIyN+4+7WvEa8F4DcKBlGEIIpXiYdoyfAc9oVHZln3KkzEUdVxwWbrCS1WjiBmtLr9f5cLuMGGIcGypTkJT8OQ75+uX6+/3gAAeSU52b1QIcyF9Gu6s2BVL5925xHHAPi6CkdMOc4MM37J7yy6XDisDW3PmUckYIQpm3zYTZhLFOzNHu1METW87odoo55wfedld60Zc61wjhf0g+4PG70hv2a/vrJI3vO1PZxyhqRAm2axr5ep/uHFWqKC4YbgEZC7Q4zBvRyjvLZksRhFuFOF2nN1BnoNW91AMpp2h6chyEB5KygowGvy7bTohqciATaIDb8R0Lr3S3CsKy9ikYS1m6xXGOY9wAuOjgZixYehYamy1bP2GgQx5R+HAGWwBj6nLZ44fvBBZ9dpSRZzuVeN5u+/pf/Hv/zXz4PTV+utO+w3g4lkZLqTS54+oum4evXt3rkPnqL6AbrGBQDSirpfVyWx55YzZcrvY/J2Q1ZkF7eG/Uh4vKCz0bX58gD1glqCiVAMy1sW6n6xUbJ97sXWaVXS9kiC0zcet0aTdk7yVf43orKohQbrmhLrQikQ8SBWZWEzS34lJ91mjE/28i2Aw4lkmm12rsTeZraCATKy7gDWGBelRKgHT1iPtfKRKN7lMzUPK0d/5iluZpr9zSnURGD15/W+91zHCMVH4elLCXrYZTmS9DnHWfL/wgf90dORlLVYzjIiY/AzU/LVimXbXPJzFOZ+fHor3/6r/9t+R//+/YY+aeJbg1yHZqzdNJd1tfzPzt2z2/Xj2MS35WMtKbSzLL4/KV9gkyHTa+3H7Se26GlW2qpjJbnI7j5ehox8diibJozTD2NZrymZw91ms3VZunpdHw2md/kfjwxTUXiaGWaH48e+UvumL3fzXxac+Der/3ARAFgbKPzfL4rI3VBEFmVx+mZ/DnUULyNxJwv1x8/GhJxQAz0IChlUwjnPGskkdgaBC+hATx0dJmCCSUP/IaMww10AKVcWFVE6S2PbvsG8wz69Il75jF8yue+ozWXwgC0HyUTWdNIroZJvJH35XQcqeReyYCpCIK2I7/+6T+l/1N//R3SlExZpQ2+LuPT8iqPOduDDp1PfqORpDQU2Fsib3opWq73Z5sm6pdf9j83yjgS1+CZ9bCcjnBL63nAU9/6nTMNm9c+4jlkkW0MZMsFx8Jlr9d0PEd+xR8PnxZpPDadJ6qE3QqFZG6DqCcmJO3X9sCFTBtn6E3Py61ngPBIKd6kzfirgYCBoQ4FWYucnt+bEIoJVAXwoMWGcEACjCypP33uhgEBEDBGACUgFsEvJtwMyBwRy7XEKPB9Lxhp6bUUiR6n8re9YERcZDssCVBO+56KV1kF6jEss4PTSfdAX5fnkAToqTcACSkwDlnW2SrXX0EQiHILavD1sr37+pP/Ruvlr8YKU0948zXvsPoYwNrgrSDxe+Uk9LyetsdAQijyoNNrPC1sWDjkJMnvdSWbJ78dl5ndunVMoJpT+Ex+BTxuZa4VqIxPuCY/DNPYmAyui3vZd5DJYzq9WwxMyeGIiTWso6x9D3cKiJETpSim03m7GQmlOlBVY1oQQZsVjqEv4xkYGrJKnco+IJhIMTpNPaR7ghHuEQ7IhCF4sjxvHSEQgWY00DQdHUHnk+qSffR0or/WGQfgTIciU5RzV0yZ7vqK98PcBZCBLqOZeSqujI48+97Jh6xpaBH6UivVh2FYyq4Izj/1Z43lW7v3l+vvTVxlOT8eyjwoWzhZ9DzP0/z8CwgSj0zPhOrMjB2WE47q4M0jRecTjoFJWHXz88TekBrM7Eo6gmCe1ci5u9I5fjvW1zjc9Jp/bcI0n7LAs42WJoI4gEZZsJkWbJrUKKe7T71TUB5K68vRtumt724ZhncPIoVMxqRK11KftOwdw5WmC+1Fbu6EjiMCJmz89qwJhw2QiHAGdMDzkHl3tgAAyq4IRUzDSQRHYRuWi+7yZfwIIvJkHjDPm6cy86Z5HKoOJRCZTjoOTYiEEkEJRvLuDfIcjJavt+pAamYi6tkGXOM+aHlT8zl6j0B6S9/3MMeUAruMyAjzz/yv74gkk0W0c76PIuiAlie51ev18xnsnQoiTMlVtcG8yLOtvNGX+H4QGZAIQkLN1sf0S/2bTuehw+SMz8OY5y90ONvzSJl19yDJKSrxVBuWphOOJ3zR2j2/6l3P53Eb52UMhaw74fA8a0A4uzp9eTkUaougUMxreR4Zxkh5H1AUM3R+sweHukLCcOsi7vjWIjXPHGFOhAo0QQDABH3qiDgUFxvTS3wMGRqzIfhJH47nWSun2sUNEAixzN4PX6k7E3HI8HOv4YETp9pO+Kkoyd0BLTiN7mVqzVNJfJUb7oEql/pAVjCaBFuQMfn0qv+3OU4zNyMveWuUX9ePh8KUus6vx3MEuKAj/5y0HkMRM21xmY9jwWcfSCFcmKZtT9SP84vdFBHYeD3tz47Z0zwO+FLqpwbawBA2ON1wBg85j/cEvcPr2Ex49gNOPI48qWpZ6hGn/NF4mbU6WbeQ62tAenxAFtjhQrr3lMc+TUcthUZnwuWsuw5DZQ5tAQUc/zQONqOCHh6J6sAkyUJero/sW32RY5Oj5bIchtE9A6PhcELm1kt2p1ALJsMLG4QXt24kRQU0jxaIkJg8Mj4PYJCS9+6YUM2dChyQMZ2x5Yc5iIdTVui+JutAw4mL1GeErKexN2Ej6KP8/Pb8bdc8YdV1OUYaCgGSCnLUGonADUqW6JG0ITTnLAi1ZtSYZt47ej6lQ5bHd52XQrr7lFWehyWEvBlDlsZEcyM+9pSrtgQWnNQoJRAutoe86q9jWrw6MeIAPBQ5n1cYwx60lP5IJ281KMFRpm7zgNjzlOdCvx9qJRxpOCkz4h9lhxiBEIAmZTSAMjfH6Su11X9dznM8/u1IlJwl44AAVg8mVWJETVfr3kNIaW2WA3kw9QCmyRRGBSKIMhNbtM0o0lv5vSJSDIvAxIqsKEXSNiT3ypLlGaBl9jbDoVFmOJ7B6TLpY6PSe8GWLyjx0fNZt5ZWj3V7hgALmXumY1n7oQGAJ+8p6IQ/9kmGSXhxxWWpjYCKm07z490lT96ktCHqAcjn078aRUqIRfAB2HTKtSnSCMpjSM4qOcxLWr+/05QUUmkHBXkzKdNSLLLdj3IeahDmYRlrThriEbV8KV/38esNCQUiQaAZA/4dqA3HMAV0ymDJCTVOSxx4vlSzNT7eO7AIcllqZ7aKCVSdVmnb/KJKY7BMJ/wt8kFsOYdBJOrNfQQVatNJAmKvLSitaeyBYcMDhcFYDDMzNF3kYZhPaT/y4CU1wjp0uR71MVjOuR0tCnfIA67N1rbFCY4gAnYbwAipWMcEloT2bWBOqIHB5+X+nOe6AaxkqHjd+6wx7S0oBJuimCfyxLXJSX0pvykg50UL9B1RgRVN1EwpQ4NpbjC593XeP0dKhBSlV0BU83JCmjHW9r2leW47wBBuiYDL0xj96Hld/mn89feRqXFOjCpaUfEfvNMYRMPcggspQUTIIlYBX07HfRkfxg5T0kgnqkRHn06th5lkbVMe3Twl+fb18TfLzZ0DEwNQ6KZsoyzMtPDmoVYNQ0TU0IdCGCc2YCRiJ+zEz0hSBBuxkKDpbpa+3TYzjnlumwLPdDBq9l5wOIuZJGxDEEBDMnvRm1xc7aZcEgE1LcvUmrxsNZQCwOHN7iDZwhsY5q4QAUiZ3RvMAK4OQBmSIyhGCI7kY7lZMS3ULEkjETDRZoO4FO0IFQQMaF3akVaP9kSavmyf2Q0TDr4IboE3dwPx1zWe1XXQfBru2bsN/BmNyBHMhgZnGUHkwewhZhdsCl45D80UuUxsZHukqbUE1TJh7lUxcqLTKdVb5qPy6JmRefXnoQOnnBai0SJAauPolFEBLNxVCqMFBiZa828NjU6B4VhO6amzbEMr/enjEZzdOBQ4mDqKGyMYo1G4zL2JyPDuIGtoHXlOR+1IJDmhOkKPsuThXG1A5h41BChWaKJG1oJYMamn2SqI3Dqfys6sNRYIttD54o22uk7blO+WoseLR2m1jM0Ti+9EA0lRymXanlBIe0VJL/1d8rR5GbxSS6fjHXwAKE0TBvQNEgM7pmaOVwyeEUx6H4ZMAFTScGo4D52igSumeVRiXi6yj+ybGlEkGMCS6XFwceKAWEvI+fM3wE6E8/WX9n47FDO7kCuXCcazpbIrMSI4jEE5CauGUob5dNvCx5SEGr5O1o6MW0Sd3n5vGAkaAsqkiuAYVs7+YG6IwUkHpqSmgWmqFVly8t2SO17mSOPQ5pYWBI68tagAKRuOJBARQHuFslbjoasZodvouM7W576XNEYeiq/YbC23mIfkh2Xf6efR8jNfWoX8wLIRGEMjGS8/jd11qCtlSLjbND26ZICUlqUS/O2ec1UhhJKfPUAICdUCVzCebfDaGqiLCFCGTqgsOpB7hMvL9fmIOUfi0RwOBRTWykkYYFhQYiJU5PX0d/V/HaDI6frzqT3v740vVAOCoLzp7TFo5XYwk6GMjhkSh7oGI5aU43aDecmqr1kN/H6A2el8MxwkHRA5RS3kYDZd5UPRZHLtzFh0oAmSVQgqK8AYJ90anJZog/J0tDWNCt9qtA/1JFQ8Dbch3A6GuLaDTl/0L5CgByhk4bbMH/NUH0aMP5Uf+2X69Mkl9YHgWNyklnLovG4tjfN+pNUfrc9f1cnqxon/g4EbHiOf9ra+gi85/nxLp6MiA3qABWQJxcDAxYOSDWBCChYODTEg8JipjyDRnn6B3youCy30GKxPFWLWkQDDNchBJIRJur3+Q/7n9xEs89tb2+z5Q9OEwIw8xht87kHphX80BJfiHuQRwNIHpDSwnMbHllIifBEN88egbjzTgIE4gFNAWJ7MoNFSageQsz87SZmaoi04+oiBZTYx+waPj51J0POSctJZv9sfaKQft5EzZ0wfD8+rPHaCSJJi+vvHrx9EQVkrZTFfWyz+rJLzf+a/PotvmMWdEBKMw/LZLGkvubfwc3uWX5Z/v0MuGhCkxMDzGAncm+blWfMaIwu1pgwaSSPcPShnaEFJ8RTIbIrMiFSktgZCEhohFB7M4QBVkbFclvFE1qOV2YEE1XwMxwj8Dyxrq8tp2X8flFK6XB93PDqCw3rmQftxKk8FxEvadycFQWBCVWDRYXndqiwFPztwrKe5p/tuhK3FNIUCmYNk03C6mnu1krol7ElckQIw+XzVHx2bEQlmu/xTe/xbRZICRDZJjazxwsfy3HtZtp1p1MiSsYYBX//4+O1C9lcHv6zve85iR2RMYJXK9e+f39tUO9uiKincrYLNJwhOu+uORH7w17ePT2N0BmcOoJx72Aj1yKlHBFsU4tgjyNg1cVfHnBiG5sALCKc2+Mp7x1Sew4iDfAAgCbjThK11ZokBnCQag+ZMmkpvKe/mHuYYzJgicqbxAMRLchuGoOEW08/49D5ytoAmhR0j+yMQEzqB2HFSBVBF9pP00ftrFikfHYe7qky883wASFIl9VnIDiS0KNS8FLWBBDi/Jv/tiQ4UTpRev/b3D8OMEciYxSxCU5FjYzpmPqokRzc49+5Zyuv+2/Vr+/NI5bS9w0Ql33dhJt5DzimsESK3gDJZa4xjAM008mR9NMYYgdMaT2APFDITDM7ZbxsmGSmHHIquAYLozpBdF3sO4Iyy9gMRXyxQXGUuqq7kHFB4tG5AxKwqc3Q35QyDCFkNDZizhgAJuwfa0AAkhOBEA5BN3uxzBMjcmmnwWuoIZUmuup7wgfOJPltQpB1Lxv3cvZp5sKUX9u3xchrXdmfbDaXyxAfMh0oiM9EhhUYXNkQx8zlH7bIkzSXaswYihQFMkH2LxATDsORQER9t5MvQ7pFS7I6EwJj3ZnNmsXZBGh9pjlsjgWnV3SgB7ubFc95AVtPoE5tnMn1ikgar5LI/g6CiTFyH5GaUpjZysoqTPDeYV++p4IdJNzBgTEFcOMnv9+BSAk5064avqphojDRRmmqLBDSd+C8bRgCC41Ra5+ipAGbrZhgKxBwDygIBg2bq1WN4YkciYiCcy3FzxfQVb00H5WkchsgiI376Un/fy3nlu2InUgOJOWm13kEIT2duN/45YOyKdUdpucyHc29UwjjrIadousoTM7SR3mDftaxv/htIc0V3dEDGAHdJFKFBi7vCTKNb4Cm1xqQIZIBEFDVUuBsK4pfzx2cae5DxkpxGxgEjOnBaqnJSlRFEdMLDIqJsY12kPG8AFphXv2vJGhzhlLn2YEIpZq5p7XcjQNfAyIwyFdgfNlgS8Uv/MQZ+xW6J/IB5FRhGzB7l9d8fDDACiVe5NwRAyTPoMZg5AqU7GgqTG+R1Go/aPSVQ54SYcIJbc4D0Nlk9qufzOGqApxzwhy9j+7B8Xt77cE6g3eklDGH0hoKvL4cCxLpDkOw/FDHmmXszI/LIqTp98TpyOjwjGH/p74Pmcj39eQtcmp/iMQA4wTDIHOAKiXrCISlMCQRdYiiVMz5j6r17kvnYqeQ+SGjzHsRDZiDRhD1R3V14YW2GRlGThxCVKTbSSq+5tWoYiNO6350nJmndaMI9gKm8lu3WOZf9QCA0dUACWSLzsTkkA5JktTt+Cw0GqM6nyY2wRO1VhiJjD5L87cuv/68xBCFESgOWJWp4HexOUroLTMtyv3WXDBpGQWVmv3dnLJfC46Pa8pW3R7NAITp/OaV+Owa21JyNw6wESUZru3GUFz4MLi/HjTI994GsPp+OhhE00tIN/CscTQFoOsMY2uuUS6zl991jTdu3sj2rE5MaZYnRmalrGU7ixgmGp6WPEdPPl++HaTORlDf9+qX9uhHNVbtjoJQ8U4ekeTRrQyZmr3hA6egWzPm1bYQW5+ndDUiDUq6HIZfz6fPRMZMGF6RF9gowyd4BAAPA0EZao6TtDkRJjSGiA/69DXMM85A0ZWipGddwAEIz4svPl8e/HOQAgMHnqteC7kcDsUGJwJx4SXrryMFEPYB4MTMN5LwUaY9nyOtbu+/qQIRlSfkqx8fouQIO57A0rFAirdUDT9/6bVyu8aE5b+qO4bmMjqKh5XXrOOYZHzshLD/R/lkTTQEIYV1DZszrXH90RIYIyFZ9mXyP6TgwMQCOYEI1hnLitlcMTDMcR34b73QCt/BuiABRztw8TzrQtyZlhgW2e0uEMVSwvLYbClKa7hXYw4MgNADz+Zfv39WIgWbxOPm9S55OcWuGhImr6xEiOdXhPp3anRHQEH9WNEcKRY+EYakn5NRjQPEOOP+Bfr+pZVdMrOKaLiLtYMGompOOcCqM20AMBnFygoBIQoppyinqR8WyhBLYCAIp/Zh+ugahvx86gEzZVUsCGjaCsojHSOdjm+Z+GCShDrkhh3e6eAXzUrqhO815P1IKkKltWHQErWeLWb4PRAbqPYVi4rCUfLfMuxMyuoWmCUEVAcKXn+L9bmTAAUQnaaNHuKefaHcpoFz3CHqRvqlMbZ/jiBLlyp9HQEyghgjYBzFYBKXL2+d3D8TMLFhkf/RUcDkfd9LACQmevQI6sQXmtR9OCEH/H7JhjzFJDrIrAAAAAElFTkSuQmCC;" vertex="1" parent="1">
          <mxGeometry x="230" y="80" width="388" height="361" as="geometry" />
        </mxCell>
        <mxCell id="Esx5o3foS_uKvqINkfH6-2" value="" style="rounded=0;whiteSpace=wrap;html=1;strokeColor=#FF0000;fillColor=none;strokeWidth=5;" vertex="1" parent="1">
          <mxGeometry x="364" y="270" width="30" height="30" as="geometry" />
        </mxCell>
      </root>
    </mxGraphModel>
  </diagram>
</mxfile>
